<?xml version="1.0" encoding="UTF-8" standalone="no"?>
<svg
   xmlns:dc="http://purl.org/dc/elements/1.1/"
   xmlns:cc="http://creativecommons.org/ns#"
   xmlns:rdf="http://www.w3.org/1999/02/22-rdf-syntax-ns#"
   xmlns:svg="http://www.w3.org/2000/svg"
   xmlns="http://www.w3.org/2000/svg"
   xmlns:sodipodi="http://sodipodi.sourceforge.net/DTD/sodipodi-0.dtd"
   xmlns:inkscape="http://www.inkscape.org/namespaces/inkscape"
   version="1.0"
   width="2280.000000pt"
   height="1417.440000pt"
   viewBox="0 0 2280.000000 1417.440000"
   preserveAspectRatio="xMidYMid meet"
   id="svg4516"
   inkscape:version="0.91 r13725"
   sodipodi:docname="2017-05-29__07-36-48_PM_line_art_RAH_v04_BW.svg">
  <defs
     id="defs4700" />
  <sodipodi:namedview
     pagecolor="#1f0a58"
     bordercolor="#666666"
     borderopacity="1"
     objecttolerance="10"
     gridtolerance="10"
     guidetolerance="10"
     inkscape:pageopacity="0"
     inkscape:pageshadow="2"
     inkscape:window-width="1680"
     inkscape:window-height="987"
     id="namedview4698"
     showgrid="false"
     inkscape:zoom="0.3877413"
     inkscape:cx="1425"
     inkscape:cy="885.89996"
     inkscape:window-x="-4"
     inkscape:window-y="-4"
     inkscape:window-maximized="1"
     inkscape:current-layer="svg4516" />
  <metadata
     id="metadata4518">
Created by potrace 1.12, written by Peter Selinger 2001-2015
<rdf:RDF>
  <cc:Work
     rdf:about="">
    <dc:format>image/svg+xml</dc:format>
    <dc:type
       rdf:resource="http://purl.org/dc/dcmitype/StillImage" />
  </cc:Work>
</rdf:RDF>
</metadata>
  <g
     transform="translate(0.000000,1417.440000) scale(0.048000,-0.048000)"
     fill="#bde4e4"
     stroke="none"
     id="g4520">
    <path
       fill="#bde4e4"
       stroke="none"
       d="M12385 28760 c-163 -23 -183 -74 -163 -416 14 -250 15 -396 4 -694 -15 -412 23 -644 117 -714 l28 -20 187 -8 c103 -4 228 -12 277 -17 50 -6 131 -11 180 -11 50 0 189 -7 310 -17 189 -14 254 -15 465 -5 172 8 261 8 300 1 93 -18 722 -19 805 -2 39 8 144 19 235 23 91 5 233 16 315 24 188 19 303 20 530 1 99 -8 237 -15 306 -15 70 0 151 -5 180 -11 30 -7 149 -12 264 -13 180 -2 230 -6 355 -29 475 -89 440 -127 444 479 2 310 6 413 20 509 43 292 -88 787 -225 853 -81 39 -275 51 -559 33 -58 -3 -145 -2 -195 2 -49 5 -218 11 -375 13 -157 2 -415 6 -575 10 -499 9 -501 9 -620 -15 -60 -12 -186 -29 -280 -37 -93 -8 -190 -19 -215 -24 -113 -26 -833 -19 -995 10 -27 5 -149 14 -270 20 -121 6 -278 19 -350 30 -242 37 -419 51 -500 40z"
       id="path4522" />
    <path
       fill="#1f0a58"
       stroke="none"
       d="M12915 28626 c123 -17 605 -60 850 -76 257 -17 594 -15 705 4 52 9 167 21 255 27 88 5 232 19 320 31 189 26 299 28 455 9 85 -10 145 -11 230 -4 68 5 154 5 210 0 92 -8 444 -15 975 -20 l260 -2 50 -25 c95 -48 142 -172 171 -450 l18 -164 -17 -106 c-32 -207 -40 -346 -33 -602 10 -359 6 -363 -326 -309 -154 25 -312 39 -445 39 -56 0 -135 5 -175 11 -195 29 -751 38 -1013 16 -496 -40 -628 -46 -1090 -43 -121 0 -384 0 -585 -2 -363 -2 -790 16 -955 42 -38 5 -125 14 -192 17 -201 12 -204 18 -211 341 -3 130 1 296 8 395 12 167 11 219 -17 721 l-4 81 26 31 c54 65 237 78 530 38z"
       id="path4524" />
    <path
       fill="#bde4e4"
       stroke="none"
       d="M26255 25944 c-66 -7 -169 -17 -229 -23 -182 -16 -196 -46 -131 -291 29 -112 37 -163 45 -300 6 -91 14 -217 18 -280 5 -68 4 -173 -2 -257 -7 -108 -7 -181 4 -305 9 -108 14 -368 15 -773 2 -411 7 -634 15 -685 15 -99 15 -241 0 -365 -9 -69 -10 -153 -5 -270 4 -93 6 -215 4 -270 -8 -195 -4 -422 10 -590 11 -137 11 -201 2 -324 -7 -84 -9 -183 -6 -220 4 -37 0 -152 -10 -263 -9 -109 -13 -214 -10 -235 4 -21 18 -94 32 -163 22 -109 27 -163 33 -420 l8 -295 28 -115 28 -115 1 -240 c1 -132 7 -287 14 -345 7 -58 16 -226 21 -375 6 -212 13 -293 30 -375 24 -115 27 -199 22 -550 -3 -164 0 -255 11 -335 32 -229 30 -577 -4 -756 -6 -30 -14 -263 -18 -519 -6 -348 -13 -499 -26 -600 -21 -160 -14 -230 37 -385 l32 -100 1 -290 c1 -236 4 -304 18 -365 12 -50 19 -139 23 -270 3 -122 14 -258 29 -365 13 -93 29 -244 34 -335 6 -91 16 -250 23 -355 7 -104 13 -228 13 -275 0 -161 35 -175 315 -129 89 15 203 23 395 29 160 5 306 15 359 24 49 9 130 18 180 21 227 14 473 41 591 65 50 11 164 29 255 40 91 12 210 28 265 35 139 18 515 72 666 95 69 11 188 27 265 35 76 8 157 19 179 25 22 5 99 14 170 21 72 6 177 20 235 31 71 13 177 23 325 28 258 10 449 30 595 65 60 14 167 29 250 35 352 25 357 28 390 200 10 55 33 150 49 212 17 62 37 174 46 248 20 163 38 246 76 351 48 131 54 200 34 369 -15 124 -16 180 -9 387 5 133 6 308 1 390 -5 104 -3 207 7 348 25 328 27 410 16 625 -6 113 -15 309 -20 435 l-9 231 -37 179 -37 180 -3 360 c-3 426 -5 462 -45 625 -22 91 -32 168 -39 285 -23 371 -33 470 -65 660 -44 260 -55 372 -55 572 0 91 -9 267 -21 391 l-21 227 12 345 12 345 -16 95 c-9 52 -21 174 -26 270 -6 97 -24 267 -42 380 -28 180 -32 233 -34 435 -3 296 -7 336 -55 507 l-41 143 -8 267 c-7 205 -15 302 -34 420 -42 253 -47 318 -52 703 -4 319 -8 385 -26 479 -17 91 -20 135 -16 255 4 89 0 199 -8 281 -18 178 -17 309 2 438 30 201 -32 266 -226 241 -41 -5 -165 -16 -275 -24 -110 -8 -236 -20 -280 -25 -44 -6 -95 -12 -113 -15 -18 -2 -77 3 -130 11 -53 8 -139 19 -191 25 -51 6 -123 20 -160 31 -92 29 -173 36 -266 26 -216 -26 -930 -24 -1185 3 -172 18 -282 18 -500 -1 -429 -37 -926 -18 -1183 45 l-141 35 -155 -1 c-86 -1 -210 -8 -276 -15z"
       id="path4526" />
    <path
       fill="#1f0a58"
       stroke="none"
       d="M26760 25819 c47 -11 159 -34 250 -51 l165 -30 301 -5 c192 -3 330 -1 382 5 189 26 476 37 589 22 59 -7 212 -14 338 -15 127 -1 262 -5 300 -10 44 -4 105 -3 163 5 73 9 115 9 195 -1 88 -10 118 -10 216 5 122 18 158 16 285 -16 44 -11 132 -26 195 -33 64 -8 153 -20 199 -27 73 -11 96 -10 190 6 102 17 409 40 538 40 109 0 134 -32 134 -172 1 -48 5 -118 10 -157 31 -228 33 -273 20 -447 l-13 -173 29 -140 29 -140 -2 -285 c-3 -288 8 -449 52 -773 8 -59 19 -187 25 -285 10 -198 21 -281 51 -415 56 -252 59 -271 65 -482 4 -153 14 -267 35 -420 18 -127 34 -291 39 -415 6 -113 17 -288 26 -390 13 -148 15 -248 9 -495 l-6 -310 21 -169 c14 -111 24 -275 30 -475 8 -265 12 -323 34 -429 31 -151 43 -267 51 -482 10 -277 23 -406 55 -539 40 -173 49 -269 60 -666 8 -292 13 -361 34 -485 67 -382 94 -1150 56 -1600 -6 -74 -10 -207 -8 -295 2 -88 1 -270 0 -405 -3 -152 1 -285 8 -352 15 -131 6 -209 -50 -402 -22 -74 -53 -214 -69 -309 -88 -508 -102 -530 -342 -548 -73 -6 -216 -26 -318 -45 -205 -38 -362 -53 -549 -54 -81 0 -197 -10 -335 -29 -117 -17 -248 -33 -292 -36 -136 -11 -325 -34 -445 -56 -163 -29 -563 -97 -704 -119 -65 -11 -193 -24 -285 -30 -91 -6 -245 -25 -341 -41 -124 -21 -234 -33 -380 -40 -113 -5 -272 -19 -355 -31 -114 -16 -206 -22 -380 -23 -163 -2 -255 -7 -315 -18 -252 -48 -262 -37 -296 369 -13 157 -35 365 -49 462 -21 144 -26 213 -26 369 1 156 -3 215 -21 310 -18 96 -21 145 -18 263 3 80 4 217 4 305 l-1 160 -36 107 -37 107 0 98 c0 54 4 125 10 158 23 150 30 318 22 565 -9 276 3 539 35 745 23 150 20 396 -8 618 -22 176 -22 221 -3 592 l6 120 -32 130 c-35 140 -36 158 -31 500 1 96 -3 200 -9 240 -7 39 -16 196 -20 350 -6 233 -11 297 -30 380 -19 85 -23 146 -30 405 -7 262 -11 317 -29 389 -39 154 -45 256 -28 472 12 146 14 272 10 509 -5 318 -8 631 -7 925 0 88 1 234 1 325 0 91 2 235 3 320 2 85 -1 202 -6 260 -5 59 -5 175 -1 265 10 185 -8 992 -25 1134 -10 89 -7 198 11 366 4 39 4 104 -1 145 -4 41 -12 149 -17 240 -6 96 -21 221 -35 299 -51 266 -45 274 228 291 88 5 162 13 165 16 12 13 227 -6 311 -27z"
       id="path4528" />
    <path
       fill="#bde4e4"
       stroke="none"
       d="M10825 25860 c-33 -4 -176 -8 -318 -9 -184 -1 -309 -7 -435 -21 -98 -11 -283 -24 -412 -30 -129 -6 -302 -15 -385 -20 -82 -6 -235 -15 -340 -20 -121 -6 -223 -17 -280 -30 -242 -54 -935 -86 -1233 -56 -92 9 -257 23 -367 32 -110 8 -222 20 -250 25 -27 6 -124 14 -215 19 -152 9 -428 49 -588 86 -89 20 -116 18 -151 -12 -46 -38 -41 -73 41 -316 l72 -213 -2 -185 c-3 -230 11 -381 49 -532 l29 -117 1 -288 c1 -158 4 -333 8 -388 7 -106 -10 -523 -30 -740 -7 -74 -12 -317 -13 -560 l-1 -430 -32 -150 c-40 -184 -49 -263 -63 -525 -6 -113 -15 -249 -20 -304 -38 -392 -6 -473 201 -502 55 -8 120 -19 147 -25 51 -11 347 -14 409 -4 21 4 83 16 138 27 72 14 168 22 340 28 132 5 285 13 340 19 55 6 235 13 400 15 l300 5 75 22 75 22 240 2 c132 1 281 7 330 13 50 6 189 16 310 22 121 6 261 16 312 21 111 11 379 11 524 0 98 -8 569 1 859 15 96 5 150 2 230 -11 82 -14 158 -17 340 -16 173 1 286 -4 430 -18 107 -11 269 -27 360 -36 91 -8 190 -19 220 -25 71 -13 633 -31 865 -28 99 2 272 -3 385 -11 252 -18 367 -17 490 4 166 27 653 39 865 21 678 -59 1373 -84 1448 -52 18 7 45 28 60 45 l27 33 0 71 c0 44 -10 112 -25 172 -14 55 -30 143 -35 195 -6 52 -15 133 -21 180 -5 46 -9 172 -8 280 3 220 -14 532 -36 661 -34 195 -8 927 41 1189 9 47 18 150 19 230 l3 145 37 120 c28 92 39 150 46 245 9 112 21 201 51 370 12 66 5 206 -22 435 -11 94 -20 226 -20 295 0 244 -60 283 -430 281 -239 -1 -631 36 -919 88 -62 12 -163 23 -225 27 -61 3 -190 14 -286 25 -96 10 -231 24 -300 29 -68 6 -163 17 -210 26 -68 13 -139 16 -355 13 -396 -5 -933 10 -1030 28 -44 8 -163 19 -265 23 -102 4 -230 15 -285 23 -136 21 -555 41 -690 33 -65 -4 -214 -1 -365 8 -269 17 -357 18 -455 6z"
       id="path4530" />
    <path
       fill="#6ffb44"
       stroke="none"
       d="M11420 25776 c251 3 769 -18 875 -35 66 -11 201 -25 300 -31 99 -6 216 -18 260 -27 102 -19 448 -34 931 -38 327 -4 396 -7 492 -24 62 -11 180 -25 263 -31 83 -6 185 -15 227 -21 43 -5 151 -14 242 -19 102 -5 198 -17 250 -29 47 -12 153 -28 235 -36 83 -8 166 -20 185 -25 56 -17 289 -33 500 -34 l195 -2 47 -21 c65 -29 78 -59 78 -175 0 -51 5 -124 10 -163 5 -38 14 -106 20 -150 18 -134 14 -307 -10 -420 -11 -55 -27 -167 -35 -250 -8 -82 -24 -181 -35 -220 -37 -125 -51 -207 -60 -357 -5 -81 -11 -152 -14 -157 -39 -62 -66 -1137 -32 -1291 11 -51 19 -170 26 -370 18 -511 41 -830 70 -952 21 -94 8 -156 -39 -178 -78 -38 -613 -29 -913 15 -270 40 -796 43 -1273 9 -161 -12 -285 -15 -460 -10 -132 3 -415 8 -630 10 -214 2 -433 9 -485 15 -52 6 -154 17 -226 26 -72 8 -216 19 -320 25 -104 5 -223 14 -264 20 -88 13 -212 14 -401 4 -104 -5 -171 -2 -288 12 l-152 18 -367 -12 c-202 -6 -500 -9 -662 -6 -241 5 -322 3 -445 -11 -82 -9 -261 -20 -397 -25 -135 -4 -251 -11 -258 -15 -6 -4 -93 -7 -193 -6 -156 1 -208 -3 -362 -29 -244 -39 -350 -46 -1130 -70 -177 -5 -303 -14 -395 -28 -449 -70 -684 -36 -721 102 -22 80 6 696 41 900 52 304 71 486 61 586 -15 142 -3 557 19 670 10 52 22 156 25 230 17 337 19 450 11 515 -5 39 -9 223 -10 410 l-2 340 -33 120 -34 120 -7 300 -6 300 -31 82 c-18 46 -37 109 -43 140 -7 32 -23 93 -37 136 l-25 77 16 25 c26 39 52 39 329 2 144 -20 305 -38 357 -42 52 -3 167 -14 255 -25 88 -10 289 -29 447 -41 l287 -23 213 12 c117 7 251 12 298 12 127 0 283 17 422 46 100 21 167 28 358 35 129 4 269 13 310 19 41 6 197 15 345 20 149 5 365 17 480 26 252 20 841 34 1090 26 99 -4 200 -6 225 -6z"
       id="path4532" />
    <path
       fill="#bde4e4"
       stroke="none"
       d="M33165 25820 c-38 -4 -117 -8 -175 -9 -294 -3 -375 -25 -424 -112 l-31 -54 2 -205 c3 -205 15 -459 34 -685 22 -270 32 -754 19 -902 -9 -95 -11 -211 -7 -350 4 -114 2 -260 -3 -323 -24 -284 -23 -344 4 -565 23 -179 26 -232 21 -370 -6 -190 7 -408 35 -555 42 -223 53 -362 51 -645 l-2 -270 26 -180 c14 -99 34 -229 46 -290 17 -91 21 -159 25 -400 2 -159 8 -326 13 -370 12 -110 7 -250 -15 -379 l-17 -109 11 -166 c14 -192 15 -438 2 -496 -4 -22 -22 -96 -39 -165 -41 -168 -45 -235 -27 -440 20 -216 20 -308 1 -452 -12 -92 -13 -224 -10 -708 4 -592 -1 -770 -31 -1015 -44 -371 2 -396 726 -390 255 3 412 -1 555 -12 198 -16 765 -26 1210 -23 184 1 260 -2 380 -19 83 -11 242 -25 355 -30 113 -6 255 -18 315 -27 109 -16 159 -16 345 4 41 5 224 8 405 7 l330 -2 250 -32 c138 -18 299 -43 359 -57 216 -48 250 -31 219 108 -21 99 -21 408 2 738 12 180 15 309 11 440 -5 158 -3 209 16 350 l22 165 4 500 c5 705 4 800 -13 921 -19 136 -19 231 0 375 12 84 15 196 14 424 0 171 2 328 6 350 4 22 9 185 12 363 l5 323 -22 192 -23 192 11 130 c6 72 9 144 6 160 -34 225 -57 419 -65 545 -10 159 -26 283 -54 405 -11 45 -19 155 -25 310 -4 132 -15 285 -24 340 -8 55 -24 179 -36 275 -11 96 -27 211 -35 255 -10 55 -16 170 -18 370 -3 218 -8 316 -21 395 -15 88 -17 130 -10 260 5 85 7 232 5 325 -6 238 -7 381 -1 680 l5 260 -20 40 c-28 55 -63 71 -198 90 -137 18 -240 44 -460 114 -107 35 -175 51 -210 51 -84 0 -210 19 -273 41 -105 36 -208 58 -496 109 -156 27 -317 57 -358 65 -52 11 -178 19 -405 25 -326 10 -521 27 -800 70 -253 40 -303 42 -604 31 -240 -10 -309 -9 -431 4 -150 15 -353 17 -475 5z"
       id="path4534" />
    <path
       fill="#a9e392"
       stroke="none"
       d="M33571 25715 c188 -20 311 -21 549 -5 l195 12 120 -16 c66 -9 263 -35 438 -56 l318 -40 237 3 c253 2 357 -8 587 -58 61 -13 162 -31 225 -40 144 -21 313 -57 454 -96 79 -23 144 -33 241 -40 l132 -9 177 -54 c97 -30 236 -68 309 -86 237 -55 231 -42 218 -425 -6 -178 -6 -312 0 -360 14 -107 15 -306 5 -540 l-8 -200 18 -95 c15 -77 19 -145 19 -365 0 -235 3 -286 23 -390 27 -148 58 -454 77 -763 12 -186 20 -258 44 -360 37 -158 49 -249 61 -477 6 -123 17 -219 35 -305 21 -100 28 -172 35 -360 6 -129 19 -310 30 -402 23 -189 27 -526 9 -668 -22 -176 -35 -436 -27 -561 6 -90 4 -164 -7 -269 -27 -262 -28 -353 -10 -575 15 -181 16 -235 6 -395 -9 -141 -9 -232 -1 -380 16 -266 14 -380 -10 -550 -15 -101 -24 -239 -30 -459 -5 -173 -14 -369 -21 -435 -8 -82 -10 -217 -5 -417 l6 -296 -21 -27 c-26 -33 -81 -35 -219 -6 -52 11 -162 27 -245 35 -82 9 -177 20 -209 26 -33 6 -128 10 -210 9 -711 -8 -826 -7 -936 6 -63 8 -203 19 -310 24 -219 12 -410 29 -425 38 -5 4 -167 8 -360 9 -815 5 -1193 10 -1203 17 -7 4 -209 9 -449 12 -557 7 -612 14 -650 88 -22 42 -22 43 13 681 3 66 1 172 -4 235 -14 161 1 822 24 1011 l17 144 -13 135 c-7 74 -15 198 -17 275 -5 146 -5 142 58 430 28 131 34 255 19 413 -18 187 -17 314 5 530 20 196 20 200 -20 464 -14 88 -15 133 -7 248 l9 141 -24 207 c-34 295 -44 483 -41 752 4 301 -6 410 -57 650 -37 174 -45 275 -39 490 5 162 3 226 -15 378 -25 216 -26 325 -6 533 8 88 15 274 16 434 0 154 1 363 2 465 1 102 -4 284 -11 405 -27 446 -49 1076 -41 1133 15 104 49 117 363 137 132 8 252 17 266 19 61 8 158 5 291 -9z"
       id="path4536" />
    <path
       fill="#bde4e4"
       stroke="none"
       d="M2760 25801 c-241 -11 -305 -89 -304 -376 l0 -150 46 -190 c25 -104 53 -226 63 -270 10 -44 44 -154 75 -245 32 -91 72 -218 89 -282 50 -189 133 -380 211 -488 23 -32 49 -85 61 -125 11 -38 42 -137 69 -220 164 -505 206 -788 160 -1073 -23 -140 -167 -399 -364 -656 -21 -28 -63 -100 -93 -160 -44 -89 -69 -124 -123 -178 -42 -41 -83 -95 -109 -142 -23 -42 -66 -114 -96 -160 -98 -150 -187 -373 -244 -606 -21 -91 -62 -235 -89 -320 -28 -85 -58 -204 -67 -264 l-17 -108 16 -137 c28 -238 36 -286 61 -391 14 -56 36 -167 50 -245 35 -207 126 -430 273 -672 32 -54 82 -150 111 -213 29 -63 92 -185 141 -270 106 -187 150 -275 190 -375 16 -41 48 -111 69 -154 51 -101 74 -169 105 -317 14 -66 39 -170 56 -230 99 -359 125 -579 117 -1004 -9 -453 -28 -668 -77 -867 -54 -223 -78 -352 -85 -473 -9 -132 -16 -161 -75 -290 -26 -58 -67 -161 -89 -229 -68 -202 -223 -434 -383 -568 -48 -40 -117 -112 -153 -159 -37 -47 -122 -140 -188 -207 -99 -98 -131 -139 -170 -210 -50 -91 -116 -193 -204 -312 -74 -101 -228 -376 -359 -639 -62 -125 -118 -233 -123 -240 -22 -27 -80 -157 -100 -226 -13 -41 -44 -140 -71 -220 -31 -93 -54 -185 -64 -255 -9 -60 -27 -173 -41 -250 -13 -77 -25 -180 -25 -230 0 -49 -7 -151 -16 -225 -30 -245 -24 -865 10 -1161 7 -63 11 -159 9 -214 -10 -197 52 -453 197 -820 26 -66 60 -175 75 -243 31 -144 47 -193 110 -337 25 -58 60 -145 76 -192 17 -47 57 -143 89 -212 32 -69 81 -191 110 -271 29 -80 93 -230 142 -335 49 -104 101 -217 115 -250 14 -33 50 -109 80 -169 30 -60 77 -166 105 -235 27 -69 68 -170 89 -224 21 -54 50 -119 64 -146 13 -27 56 -128 95 -225 39 -97 91 -221 116 -274 25 -53 63 -144 84 -202 20 -58 60 -154 88 -215 61 -135 154 -394 183 -512 12 -49 41 -137 65 -198 33 -85 46 -137 58 -230 22 -163 72 -442 98 -540 l21 -80 -2 -345 c-3 -495 -64 -789 -260 -1243 -64 -148 6 -187 204 -115 77 28 430 113 660 159 61 12 170 41 244 66 l133 44 162 15 c546 49 585 67 620 294 10 58 28 148 41 200 42 165 58 430 36 606 -10 88 -25 415 -37 832 -3 118 -12 241 -20 275 -40 182 -73 361 -79 427 -14 160 -27 239 -60 355 -33 115 -60 262 -90 480 -18 129 -100 465 -164 670 -67 215 -70 224 -150 393 -38 81 -79 181 -91 222 -12 41 -48 143 -80 225 -32 83 -74 206 -94 274 -20 68 -45 140 -56 160 -10 20 -46 117 -80 216 -58 168 -178 436 -290 650 -26 50 -58 122 -70 160 -13 39 -43 113 -67 165 -70 149 -129 297 -158 395 -15 50 -40 131 -55 182 -16 50 -45 167 -64 260 -19 92 -48 220 -65 283 -17 66 -34 169 -40 240 -6 69 -18 175 -27 235 -25 179 -5 873 30 1040 8 39 20 117 26 175 35 332 135 759 221 949 16 35 47 121 69 191 54 171 187 429 277 537 89 105 122 159 182 292 50 111 71 145 155 253 24 31 58 92 76 135 17 43 58 137 90 208 98 218 205 516 251 699 16 66 43 160 60 209 16 48 43 153 59 234 17 80 48 214 69 297 48 182 57 240 71 461 9 124 23 221 51 360 34 163 41 219 49 390 5 110 13 259 17 330 29 481 -104 1086 -393 1790 -47 116 -105 265 -130 333 -24 67 -71 186 -105 265 -82 190 -83 193 -141 417 l-51 195 -8 230 c-4 127 -11 289 -14 360 -7 131 -5 158 34 395 52 314 98 445 290 823 72 143 143 287 157 320 14 34 48 100 74 147 74 130 195 487 225 665 13 77 37 203 55 280 115 517 82 885 -122 1318 -38 82 -78 185 -89 230 -11 45 -38 143 -60 217 -22 76 -51 208 -65 300 -14 91 -36 210 -49 265 -13 55 -26 132 -30 170 -11 111 -84 466 -104 505 -30 61 -60 68 -291 75 -113 3 -252 12 -310 20 -341 47 -614 61 -940 46z"
       id="path4538" />
    <path
       fill="#25566e"
       stroke="none"
       d="M3290 25640 c162 -10 358 -25 435 -34 77 -8 195 -19 262 -24 205 -16 224 -36 267 -280 15 -81 41 -219 58 -307 17 -88 41 -221 53 -295 34 -201 76 -343 289 -965 86 -252 111 -464 83 -700 -9 -71 -23 -206 -32 -300 -28 -274 -139 -686 -240 -885 -24 -47 -57 -112 -73 -145 -38 -75 -154 -315 -199 -415 -19 -41 -57 -113 -83 -160 -79 -137 -194 -474 -211 -615 -6 -49 -17 -142 -25 -205 -11 -88 -13 -195 -10 -450 l5 -335 30 -115 c16 -63 39 -162 51 -220 21 -99 83 -284 152 -450 17 -41 51 -124 75 -185 25 -60 80 -196 123 -301 96 -234 142 -364 181 -514 17 -63 57 -200 90 -305 44 -137 66 -227 80 -325 11 -74 29 -184 41 -245 50 -255 21 -863 -57 -1195 -23 -97 -39 -203 -50 -320 -20 -223 -36 -318 -85 -488 -21 -75 -48 -193 -60 -262 -26 -157 -53 -256 -139 -517 -38 -115 -81 -251 -95 -303 -16 -56 -57 -156 -101 -245 -41 -82 -98 -202 -128 -266 -30 -63 -77 -150 -106 -193 -29 -43 -84 -139 -122 -214 -47 -95 -87 -158 -129 -206 -37 -44 -85 -117 -126 -195 -37 -70 -74 -137 -84 -151 -33 -47 -67 -125 -105 -240 -21 -63 -46 -131 -56 -150 -47 -95 -148 -437 -164 -555 -9 -66 -27 -162 -40 -213 -13 -51 -29 -141 -35 -200 -6 -59 -17 -165 -25 -237 -26 -227 -44 -483 -50 -702 l-5 -211 24 -129 c14 -70 32 -191 41 -268 9 -77 27 -179 40 -226 14 -48 32 -133 40 -190 19 -124 26 -153 70 -284 19 -55 57 -172 85 -260 52 -162 218 -578 314 -785 30 -63 59 -131 66 -150 7 -19 50 -111 96 -205 94 -193 207 -470 254 -625 65 -212 223 -616 304 -778 63 -126 115 -277 147 -424 12 -57 36 -166 55 -243 54 -230 72 -324 84 -440 6 -60 29 -184 50 -275 29 -121 45 -219 59 -370 16 -163 26 -225 51 -305 50 -161 59 -247 70 -660 6 -209 15 -484 22 -611 16 -320 9 -436 -42 -673 -62 -293 -54 -288 -415 -306 -147 -8 -241 -25 -410 -77 -71 -22 -179 -50 -240 -63 -97 -20 -237 -51 -570 -125 -191 -43 -197 -31 -106 198 94 235 128 341 162 504 l31 153 -6 300 c-4 165 -11 320 -16 345 -4 25 -17 105 -29 178 -12 74 -32 171 -46 217 -23 81 -32 137 -55 349 -8 77 -20 124 -54 210 -24 61 -56 155 -70 209 -60 222 -115 363 -185 482 -23 39 -53 108 -68 155 -14 47 -60 159 -103 250 -43 91 -103 230 -135 310 -32 80 -73 176 -93 215 -19 38 -56 126 -83 195 -26 69 -73 189 -103 267 -30 78 -82 193 -115 255 -33 62 -81 160 -107 218 -25 58 -73 166 -106 240 -33 74 -77 185 -98 245 -41 118 -136 329 -256 570 -57 115 -79 172 -95 245 -26 123 -62 247 -109 379 -21 58 -50 165 -64 236 -15 72 -33 155 -42 185 -12 41 -18 130 -24 340 -4 157 -13 323 -19 370 -6 47 -12 290 -13 540 l-3 455 22 130 c12 72 24 180 27 242 9 179 59 445 116 613 27 80 64 195 84 256 21 70 52 141 81 189 26 42 86 157 133 254 129 263 233 449 347 616 56 83 128 193 160 245 40 66 84 121 144 180 48 47 122 128 163 181 42 53 107 122 144 155 117 101 160 148 278 308 138 186 146 202 187 347 38 137 77 247 118 328 62 123 79 193 90 376 10 168 18 212 74 406 43 147 63 488 61 1004 -1 320 -21 454 -120 825 -18 69 -47 194 -64 279 l-32 155 -58 115 c-32 64 -69 153 -83 199 -14 46 -57 141 -95 210 -39 70 -97 182 -131 249 -33 67 -114 211 -180 320 -130 218 -153 262 -207 403 -75 199 -83 228 -94 317 -6 50 -25 147 -41 215 -16 67 -34 177 -39 243 -6 66 -15 165 -20 220 -14 147 25 348 120 621 15 45 35 117 44 160 42 206 228 579 400 803 27 35 85 121 128 190 44 69 97 149 118 176 21 28 64 91 95 140 32 50 84 126 116 171 69 95 122 206 150 312 l20 77 -6 220 c-6 212 -34 477 -57 535 -6 14 -36 99 -68 190 -118 337 -159 441 -209 523 -100 166 -180 347 -202 453 -11 55 -46 178 -79 274 -34 101 -68 224 -80 291 -11 64 -37 174 -57 245 -69 245 -53 491 35 538 38 21 275 20 642 -4z"
       id="path4540" />
    <path
       fill="#bde4e4"
       stroke="none"
       d="M17829 25768 c-48 -29 -53 -67 -40 -309 6 -118 16 -235 21 -261 5 -26 7 -196 5 -390 -4 -265 -2 -377 10 -493 12 -115 17 -302 19 -775 l3 -625 21 -145 c17 -113 22 -186 21 -335 l-1 -190 27 -140 c34 -177 42 -235 50 -360 3 -55 18 -181 32 -280 20 -144 25 -218 25 -370 -1 -201 2 -235 44 -465 l27 -145 3 -450 c2 -362 0 -475 -13 -580 -16 -131 -14 -201 8 -435 5 -58 14 -217 19 -355 5 -145 15 -282 24 -325 8 -41 26 -129 40 -195 14 -66 33 -174 41 -240 15 -114 69 -434 101 -595 18 -90 38 -772 29 -980 -3 -74 -1 -173 5 -220 6 -47 15 -166 20 -265 6 -99 17 -243 25 -320 8 -77 22 -233 30 -346 9 -128 28 -279 50 -400 43 -241 53 -345 65 -679 6 -146 15 -285 20 -310 21 -92 23 -357 5 -485 -17 -122 -27 -343 -44 -1020 -5 -209 -15 -445 -21 -525 -7 -99 -8 -229 -2 -406 5 -155 5 -308 0 -380 -6 -65 -11 -252 -12 -414 -1 -200 -6 -317 -15 -364 -14 -74 -12 -186 10 -416 17 -185 17 -708 0 -862 l-14 -126 26 -55 c78 -159 112 -175 377 -175 137 0 271 -6 370 -17 170 -19 324 -15 459 12 90 17 1110 27 1246 12 44 -5 310 -12 591 -15 523 -6 541 -5 784 33 25 4 176 7 335 8 160 0 364 4 455 9 138 7 199 5 372 -13 246 -25 312 -26 483 -6 97 12 206 15 430 13 547 -5 1011 67 1119 174 l39 38 -8 128 c-4 70 -6 197 -4 282 9 405 -7 868 -38 1135 -13 107 -17 231 -17 525 -1 212 -4 390 -7 395 -24 36 -31 315 -13 522 19 233 20 213 -32 588 -22 163 -26 232 -29 490 -2 185 -9 356 -19 445 -25 233 -36 447 -35 715 1 178 -4 289 -15 385 -10 74 -21 227 -26 340 -5 113 -16 247 -24 297 -27 172 -29 259 -11 458 16 164 17 211 6 345 -6 85 -16 254 -21 375 -5 121 -19 281 -30 355 -13 89 -20 186 -20 286 0 102 -8 215 -25 345 -13 107 -31 266 -40 354 -9 88 -23 201 -31 250 -9 50 -20 185 -24 300 -5 116 -16 284 -24 375 -9 91 -16 239 -16 330 0 91 -5 206 -11 255 -6 50 -12 203 -14 340 -2 169 -10 311 -24 438 -32 280 -42 627 -46 1502 -2 590 -7 846 -19 1010 -36 504 -39 564 -30 692 10 156 8 236 -11 376 -19 138 -19 239 0 376 18 125 15 552 -4 861 -12 184 -6 276 24 359 26 73 37 221 33 418 -5 266 -8 269 -218 284 -69 5 -136 11 -148 14 -37 9 -326 -20 -637 -64 -152 -22 -1000 -1 -1139 28 -83 17 -1133 13 -1284 -4 -117 -14 -167 -15 -342 -6 -113 6 -293 16 -400 22 -107 6 -251 16 -320 24 -204 23 -479 37 -570 30 -89 -6 -641 -7 -1519 -3 l-514 3 -28 -17z"
       id="path4542" />
    <path
       fill="#6ffb44"
       stroke="none"
       d="M20055 25675 c61 -8 152 -15 204 -15 52 0 136 -7 185 -15 132 -21 849 -37 1031 -23 145 11 418 7 815 -12 324 -16 1534 -17 1745 -2 602 43 689 37 737 -51 20 -38 10 -505 -13 -587 -39 -141 -46 -320 -16 -425 7 -24 11 -134 12 -280 0 -201 3 -254 19 -323 l20 -83 -13 -119 c-16 -149 -16 -196 4 -344 18 -137 19 -235 5 -374 -8 -78 -7 -134 5 -252 8 -84 15 -217 15 -296 0 -79 4 -198 10 -266 5 -68 11 -449 14 -848 4 -776 16 -1125 48 -1420 11 -102 21 -255 24 -340 2 -85 9 -333 15 -550 5 -217 17 -452 25 -522 7 -69 18 -229 24 -355 5 -130 16 -256 24 -293 9 -36 20 -155 26 -265 6 -110 18 -249 26 -310 40 -277 46 -341 49 -500 2 -98 10 -206 20 -255 8 -47 22 -193 30 -325 9 -132 20 -274 25 -315 14 -117 12 -358 -6 -495 l-16 -125 17 -127 c9 -71 21 -245 26 -388 4 -143 15 -312 24 -375 9 -67 20 -253 25 -445 9 -333 22 -549 41 -705 6 -47 14 -247 19 -445 l8 -360 27 -160 28 -160 -2 -200 c-2 -110 -3 -279 -4 -375 -1 -96 4 -270 12 -385 10 -165 11 -244 2 -363 -9 -123 -8 -183 4 -310 8 -86 19 -251 24 -367 6 -115 16 -273 23 -350 23 -266 7 -890 -25 -938 -38 -58 -109 -81 -297 -96 -69 -6 -210 -17 -315 -26 -142 -12 -251 -14 -435 -9 -159 4 -306 2 -418 -5 -150 -11 -195 -10 -355 5 l-182 17 -325 -13 c-179 -7 -372 -12 -430 -11 -58 1 -152 -5 -210 -13 -266 -37 -337 -39 -720 -21 -201 9 -401 14 -445 11 -44 -3 -264 -2 -490 4 -225 5 -525 12 -665 14 l-255 5 -105 -21 -105 -21 -210 8 c-115 4 -328 9 -472 11 -383 4 -355 -28 -364 419 -4 176 -12 464 -19 640 -13 377 -13 400 0 528 6 54 10 193 8 310 -2 136 2 252 11 324 13 110 13 182 -5 660 -4 111 -2 215 6 290 7 65 13 289 15 498 1 209 6 391 9 405 3 14 10 142 15 285 7 199 15 285 31 365 23 110 23 171 1 375 -6 50 -15 232 -21 405 -12 352 -25 462 -75 642 -42 148 -52 228 -60 458 -3 96 -10 229 -15 295 -17 216 -32 565 -35 845 -12 877 -11 849 -61 1059 -41 171 -70 341 -79 470 -4 51 -17 134 -30 185 -37 140 -45 209 -55 454 -6 154 -16 264 -31 342 -26 139 -32 485 -12 695 7 72 13 279 14 460 l1 330 -26 135 c-50 259 -58 327 -51 455 7 139 -6 327 -34 503 -11 67 -25 191 -31 275 -11 145 -21 224 -54 402 -8 44 -17 167 -21 273 -3 106 -12 232 -21 278 -35 202 -43 963 -14 1273 9 94 8 134 -6 235 -14 104 -16 175 -10 506 6 328 4 401 -9 494 -11 68 -15 152 -13 226 l3 118 23 25 c31 33 77 43 264 58 l156 13 119 -18 c102 -15 137 -15 263 -6 80 7 215 9 300 6 102 -4 199 -1 285 8 181 19 581 20 720 1z"
       id="path4544" />
    <path
       fill="#bde4e4"
       stroke="none"
       d="M43565 25550 c-49 -4 -209 -9 -355 -9 -187 -1 -288 -6 -345 -17 -143 -26 -189 -33 -255 -38 -195 -13 -540 -26 -795 -29 l-290 -4 -208 -36 c-114 -20 -247 -39 -295 -42 -112 -8 -249 -27 -552 -75 -172 -28 -315 -44 -482 -54 -313 -19 -358 -39 -358 -156 0 -22 -7 -105 -15 -183 -21 -202 -26 -896 -9 -1242 7 -148 18 -443 24 -655 31 -1071 44 -1371 65 -1510 8 -52 17 -133 21 -180 3 -47 10 -105 16 -130 9 -42 15 -171 37 -860 6 -171 15 -309 25 -365 13 -68 19 -201 26 -545 19 -958 21 -1010 61 -1294 24 -171 147 -212 489 -161 89 14 155 16 291 12 167 -5 353 6 574 32 200 24 421 42 620 51 147 6 253 16 354 34 124 23 173 26 355 26 207 0 307 8 1001 82 55 6 192 8 307 6 263 -7 254 -13 235 166 -9 89 -8 129 6 239 9 73 21 191 26 262 6 72 15 177 20 235 76 784 81 1152 21 1460 -13 66 -47 377 -60 545 -5 66 -25 217 -44 335 -20 124 -40 289 -46 389 -5 95 -12 177 -15 181 -2 4 -12 121 -20 260 -9 139 -25 305 -36 369 -11 64 -24 193 -29 286 -5 94 -16 215 -24 270 -17 110 -42 398 -51 600 -4 72 -13 184 -20 250 -8 66 -16 242 -20 391 l-6 271 22 168 c25 197 24 518 -2 589 -27 76 -83 92 -264 76z"
       id="path4546" />
    <path
       fill="#13eacf"
       stroke="none"
       d="M43646 25448 c50 -27 57 -55 62 -253 3 -132 0 -213 -12 -300 -24 -181 -19 -677 9 -845 7 -47 17 -146 20 -220 11 -239 35 -541 55 -692 11 -81 27 -218 35 -305 9 -87 22 -199 30 -249 8 -49 19 -175 25 -280 5 -104 12 -202 15 -219 3 -16 9 -113 14 -215 5 -102 15 -207 21 -235 30 -134 92 -527 105 -670 8 -88 21 -207 30 -265 8 -58 21 -195 30 -305 8 -110 18 -222 20 -249 7 -81 -17 -500 -34 -591 -17 -89 -31 -246 -41 -470 -6 -121 -21 -329 -34 -463 l-23 -243 -26 -27 -27 -27 -133 -6 c-72 -4 -194 -8 -271 -8 -76 -1 -182 -8 -235 -16 -154 -23 -405 -38 -706 -41 -297 -3 -312 -4 -475 -35 -74 -15 -141 -20 -227 -20 -116 2 -697 -46 -868 -70 -44 -7 -201 -13 -350 -14 -202 -2 -295 -7 -369 -20 -63 -11 -128 -16 -182 -13 l-84 4 -29 28 c-16 15 -32 42 -35 59 -10 47 -28 518 -31 787 -2 129 -8 280 -14 335 -6 55 -11 172 -11 260 0 146 -13 343 -40 640 -5 61 -14 255 -20 431 -6 177 -14 362 -19 410 -22 217 -51 518 -61 624 -6 63 -15 295 -20 515 -5 220 -14 466 -21 546 -30 392 -26 2010 7 2248 26 189 46 200 385 206 l216 4 119 30 c159 41 348 69 541 81 176 11 411 41 505 65 59 16 427 39 453 29 7 -3 172 0 366 5 333 10 460 22 594 53 138 32 685 36 741 6z"
       id="path4548" />
    <path
       fill="#bde4e4"
       stroke="none"
       d="M44824 25427 c-175 -51 -198 -80 -176 -216 7 -38 12 -152 12 -253 0 -309 34 -621 74 -681 36 -54 72 -60 331 -61 157 -1 280 -7 387 -20 l157 -19 27 17 26 18 -5 56 c-3 32 -14 89 -25 127 -11 39 -34 147 -52 240 l-33 170 -6 282 -6 282 -30 31 c-49 51 -100 60 -349 60 l-221 -1 -111 -32z"
       id="path4550" />
    <path
       fill="#eb6a06"
       stroke="none"
       d="M45333 25338 c48 -18 59 -56 68 -230 12 -236 38 -422 85 -631 40 -176 13 -203 -175 -168 -91 17 -151 21 -280 20 l-164 -1 -26 19 c-46 34 -51 59 -67 339 -33 571 -19 627 167 663 57 11 356 2 392 -11z"
       id="path4552" />
    <path
       fill="#bde4e4"
       stroke="none"
       d="M45405 23419 c-22 -5 -126 -15 -230 -23 -202 -15 -253 -27 -278 -68 -33 -53 -28 -930 7 -1213 57 -460 39 -436 346 -446 107 -3 249 -14 315 -24 134 -21 181 -16 222 20 l28 23 0 104 c0 56 -6 171 -13 253 -7 83 -17 224 -23 315 -6 92 -26 256 -45 370 -19 113 -39 268 -44 345 -22 329 -72 390 -285 344z"
       id="path4554" />
    <path
       fill="#47b2e3"
       stroke="none"
       d="M45494 23251 c16 -15 29 -42 35 -75 71 -367 94 -540 111 -826 5 -91 15 -242 21 -337 l12 -172 -17 -26 c-27 -41 -58 -48 -169 -36 -54 6 -160 11 -235 11 -188 0 -187 -1 -226 182 -44 201 -60 465 -53 862 8 445 -3 423 224 436 214 12 267 9 297 -19z"
       id="path4556" />
    <path
       fill="#bde4e4"
       stroke="none"
       d="M45335 20714 c-388 -44 -399 -56 -360 -389 14 -115 31 -295 40 -400 8 -104 21 -218 30 -251 8 -34 24 -146 35 -250 30 -266 24 -258 215 -268 72 -4 204 -11 294 -17 l164 -11 43 17 c100 38 107 119 40 490 -27 152 -64 551 -74 807 l-7 177 -21 28 c-45 60 -211 88 -399 67z"
       id="path4558" />
    <path
       fill="#1f0a58"
       stroke="none"
       d="M45569 20569 c50 -18 62 -54 72 -213 22 -377 31 -490 44 -577 8 -52 21 -139 29 -193 9 -55 18 -138 22 -185 l6 -86 -23 -29 -22 -29 -136 7 c-340 18 -358 27 -393 210 -10 56 -30 151 -43 213 -18 82 -25 143 -25 225 0 63 -4 149 -10 193 -5 44 -11 144 -12 222 l-3 141 21 29 c48 65 357 112 473 72z"
       id="path4560" />
    <path
       fill="#bde4e4"
       stroke="none"
       d="M6128 19730 c-58 -17 -97 -51 -124 -106 l-27 -55 12 -222 c7 -122 12 -328 12 -457 -1 -129 2 -329 7 -445 4 -138 3 -258 -5 -349 -6 -77 -16 -271 -22 -430 -12 -325 -14 -344 -41 -541 -20 -143 -36 -310 -50 -514 -7 -114 -4 -173 21 -328 10 -67 10 -103 -1 -197 -13 -113 -11 -209 8 -506 7 -120 8 -149 2 -420 -2 -94 2 -204 9 -255 16 -112 15 -340 -1 -454 -13 -98 -15 -483 -4 -771 l8 -195 -25 -165 c-14 -91 -28 -201 -32 -245 -3 -44 -15 -117 -26 -163 -42 -183 9 -214 276 -167 127 21 178 25 361 25 164 0 242 5 336 20 68 10 202 24 298 30 130 7 212 18 320 42 l145 32 245 2 c177 2 271 7 340 19 69 12 206 20 505 28 576 15 626 14 720 -7 100 -23 178 -23 375 3 240 31 302 34 448 22 76 -6 344 -16 597 -21 286 -6 507 -16 585 -25 209 -25 1133 -10 1310 22 51 9 201 18 375 24 160 5 315 13 345 18 30 5 91 10 135 10 43 1 135 8 203 17 141 18 557 7 767 -21 128 -17 414 -19 630 -5 169 11 243 16 535 30 l205 10 240 -21 c398 -34 447 -35 591 -8 l126 23 166 -12 c92 -6 199 -18 237 -27 218 -52 302 10 340 251 l16 102 -21 148 c-32 222 -59 318 -188 654 -25 64 -51 159 -66 240 -71 380 -86 453 -111 533 -14 48 -37 147 -50 220 -12 72 -36 193 -53 267 -76 341 -104 483 -122 614 -11 78 -29 186 -40 241 -34 165 -49 335 -43 495 4 91 1 171 -6 215 -7 39 -16 192 -21 340 -6 149 -14 299 -20 335 -5 36 -10 125 -10 198 l0 133 -45 222 c-24 122 -49 269 -55 327 -6 58 -20 155 -30 215 -10 61 -21 133 -25 160 -20 147 -58 283 -110 390 -29 61 -59 130 -65 155 -38 142 -109 197 -244 187 -518 -38 -521 -38 -696 -27 -96 5 -229 15 -295 21 -105 10 -143 9 -307 -10 -103 -11 -243 -21 -310 -21 -68 0 -164 -7 -214 -15 -185 -30 -1111 -27 -1383 5 -239 27 -991 36 -1186 14 -173 -20 -631 -19 -755 2 -74 12 -132 14 -260 9 -117 -4 -205 -2 -300 9 -157 17 -695 23 -1015 11 -137 -5 -273 -3 -392 4 l-182 12 -198 -21 c-109 -11 -236 -25 -283 -30 -47 -5 -185 -16 -308 -25 l-223 -16 -252 21 c-139 11 -261 22 -272 25 -11 3 -110 10 -220 15 -110 6 -294 24 -410 40 -115 16 -267 36 -337 45 -70 9 -158 25 -195 36 -71 20 -129 23 -175 9z"
       id="path4562" />
    <path
       fill="#a9e392"
       stroke="none"
       d="M6660 19570 c180 -27 398 -49 605 -60 99 -5 241 -18 315 -29 291 -43 483 -47 720 -16 58 8 155 17 215 20 61 4 171 12 245 20 129 13 464 14 1590 2 352 -4 686 -17 795 -32 82 -12 168 -12 485 -3 470 13 767 20 880 21 168 1 607 -23 720 -40 153 -23 1099 -29 1220 -8 41 7 136 16 210 19 74 4 194 13 265 22 134 16 607 7 805 -16 43 -5 138 -4 220 1 238 14 315 12 359 -11 139 -71 240 -366 261 -765 l9 -170 39 -140 c39 -140 54 -213 113 -545 17 -96 37 -202 45 -235 28 -124 37 -215 39 -395 4 -337 23 -742 39 -818 8 -40 29 -168 46 -285 16 -117 41 -252 55 -302 14 -49 39 -173 55 -274 17 -101 37 -211 44 -245 8 -34 17 -88 21 -121 12 -107 26 -178 60 -305 19 -69 50 -208 70 -310 23 -113 57 -244 87 -335 88 -259 96 -287 133 -425 25 -92 41 -185 52 -292 l16 -158 -16 -97 -16 -98 -32 -29 -32 -29 -146 9 c-207 13 -404 11 -566 -4 -185 -18 -274 -17 -425 5 -141 20 -623 23 -800 4 -52 -6 -240 -15 -416 -22 l-322 -12 -148 17 c-189 22 -501 46 -534 41 -75 -11 -286 -26 -433 -30 -92 -2 -173 -7 -179 -11 -6 -4 -111 -11 -232 -15 -122 -5 -264 -15 -316 -23 -271 -44 -1344 -58 -1595 -22 -93 14 -169 17 -340 15 -121 -2 -381 2 -577 9 -310 11 -374 10 -485 -3 -222 -26 -336 -29 -470 -11 -140 18 -329 21 -458 5 -49 -6 -225 -12 -390 -13 -239 -2 -316 -6 -380 -20 -67 -14 -111 -16 -270 -11 l-190 7 -145 -26 c-80 -14 -183 -33 -230 -41 -46 -9 -168 -20 -270 -25 -102 -5 -236 -17 -299 -25 -63 -8 -169 -15 -235 -15 -67 0 -166 -7 -221 -15 -209 -30 -299 -17 -326 47 -23 54 -17 297 11 443 24 132 23 226 -6 434 -18 131 -18 223 0 393 8 73 22 210 32 304 l17 171 -18 144 c-14 109 -20 230 -22 504 -2 198 -5 439 -6 535 -1 96 2 225 7 285 7 88 5 136 -9 235 -23 159 -16 404 15 555 19 88 22 157 30 560 5 253 12 474 14 490 21 128 27 431 13 600 -19 225 -18 957 1 991 30 56 307 67 582 24z"
       id="path4564" />
    <path
       fill="#bde4e4"
       stroke="none"
       d="M45242 18105 c-199 -43 -202 -55 -191 -705 8 -452 20 -595 63 -770 13 -52 29 -121 35 -152 15 -72 48 -103 101 -94 19 3 112 10 205 15 309 17 347 48 316 251 -19 119 -35 452 -37 755 -3 503 -29 633 -138 675 -23 8 -267 42 -286 39 -3 0 -34 -7 -68 -14z"
       id="path4566" />
    <path
       fill="#14d385"
       stroke="none"
       d="M45425 17980 c161 -24 172 -65 180 -665 2 -205 10 -437 18 -521 15 -157 14 -194 -10 -231 -47 -72 -277 -71 -349 1 -101 101 -146 474 -133 1097 7 327 34 356 294 319z"
       id="path4568" />
    <path
       fill="#bde4e4"
       stroke="none"
       d="M43930 17140 c-30 -5 -109 -8 -175 -9 -66 -1 -209 -13 -320 -27 l-200 -27 -495 -3 c-272 -2 -817 -5 -1210 -7 l-715 -2 -110 -19 c-82 -14 -141 -17 -235 -13 -127 5 -449 -28 -527 -54 -82 -27 -99 -91 -83 -316 15 -225 15 -446 0 -564 l-13 -106 16 -129 c9 -71 21 -190 26 -264 14 -190 36 -244 111 -274 47 -19 540 -22 830 -6 91 6 244 12 340 15 96 3 225 13 285 22 78 12 158 15 275 13 339 -7 461 -4 555 15 69 14 145 19 324 21 129 1 273 8 320 15 159 25 619 9 908 -31 249 -35 432 -26 489 24 52 44 39 204 -35 439 -51 159 -106 374 -120 462 -27 168 -53 433 -59 590 -8 194 -15 217 -79 234 -21 6 -40 10 -43 10 -3 -1 -30 -5 -60 -9z"
       id="path4570" />
    <path
       fill="#a9e392"
       stroke="none"
       d="M43957 17024 c44 -28 52 -55 73 -244 45 -400 60 -497 89 -586 17 -49 46 -150 65 -224 20 -74 47 -175 61 -225 44 -159 32 -241 -41 -271 -45 -19 -303 -19 -456 0 -64 8 -167 17 -229 21 -63 3 -191 10 -285 16 -144 10 -192 9 -310 -5 -92 -10 -208 -15 -344 -14 -177 1 -221 -2 -325 -21 -104 -20 -138 -22 -255 -17 -74 4 -191 9 -260 12 -89 4 -161 1 -250 -11 -69 -9 -222 -20 -340 -25 -118 -5 -278 -14 -355 -19 -212 -15 -696 -6 -734 13 -72 38 -89 216 -87 908 l3 508 19 21 c44 49 215 79 509 90 116 4 255 12 310 19 64 7 392 12 910 14 1196 5 1426 11 1925 51 180 14 273 11 307 -11z"
       id="path4572" />
    <path
       fill="#bde4e4"
       stroke="none"
       d="M45745 15610 c-44 -11 -141 -24 -215 -30 -245 -20 -246 -21 -237 -230 5 -100 17 -186 46 -329 41 -199 51 -225 105 -265 l27 -21 202 -3 202 -3 45 23 c70 36 74 58 54 297 -9 108 -16 269 -15 358 l1 162 -23 27 c-30 35 -88 39 -192 14z"
       id="path4574" />
    <path
       fill="#eeda98"
       stroke="none"
       d="M45793 15451 c23 -22 28 -66 42 -386 9 -204 -9 -225 -190 -225 -110 0 -134 9 -159 58 -26 50 -58 235 -63 364 l-6 127 30 30 c24 23 42 31 89 36 32 4 79 11 104 15 68 13 129 6 153 -19z"
       id="path4576" />
    <path
       fill="#bde4e4"
       stroke="none"
       d="M35130 14359 c-112 -14 -405 -29 -585 -29 -141 0 -201 -5 -322 -26 l-148 -25 -370 -2 c-246 -1 -432 3 -554 12 l-184 15 -25 -29 -24 -29 6 -85 c8 -97 -14 -358 -40 -486 -12 -57 -16 -125 -15 -235 1 -85 -3 -198 -9 -250 -5 -52 -15 -149 -20 -214 -15 -165 -28 -191 -158 -318 -172 -167 -305 -252 -505 -323 -120 -42 -162 -74 -173 -132 -9 -48 13 -286 37 -398 29 -138 67 -459 79 -665 5 -102 15 -223 20 -270 5 -47 10 -112 10 -146 0 -124 86 -148 450 -126 150 8 224 6 415 -17 214 -25 477 -33 665 -22 328 21 583 41 647 52 99 17 501 -4 698 -37 l160 -27 190 9 c104 5 234 6 290 1 64 -5 138 -4 207 4 118 13 162 10 378 -26 80 -13 204 -29 275 -35 72 -6 168 -15 215 -20 47 -5 229 -12 405 -15 176 -3 421 -13 545 -20 483 -31 475 -35 435 225 -8 52 -20 165 -26 250 -6 85 -21 205 -34 265 l-24 110 -6 400 c-3 220 -11 438 -17 485 -7 50 -13 302 -15 620 -7 1317 -3 1232 -67 1296 -38 38 -75 49 -209 64 -54 5 -157 23 -230 39 -73 16 -192 39 -265 51 -73 11 -188 32 -255 46 -132 27 -363 43 -652 44 -88 0 -198 4 -245 10 -112 12 -867 20 -950 9z"
       id="path4578" />
    <path
       fill="#eeda98"
       stroke="none"
       d="M35500 14274 c105 -12 147 -13 266 -3 122 11 162 10 290 -4 90 -10 264 -18 439 -21 l290 -4 192 -31 c106 -17 275 -46 375 -66 101 -19 239 -43 308 -51 160 -20 204 -39 230 -96 29 -66 44 -206 35 -328 -12 -162 -7 -1284 6 -1444 8 -85 10 -237 6 -397 -6 -287 2 -426 33 -574 13 -58 25 -169 30 -265 5 -91 16 -208 24 -260 18 -110 14 -149 -21 -182 l-25 -23 -316 2 c-214 1 -357 7 -442 18 -68 8 -188 15 -265 15 -84 0 -192 8 -270 19 -71 10 -175 22 -230 25 -55 4 -167 18 -250 31 l-150 24 -475 -2 c-389 -1 -500 2 -615 16 -134 16 -328 33 -501 44 -46 3 -104 0 -135 -6 -30 -7 -187 -21 -349 -31 -162 -11 -331 -22 -375 -26 -94 -7 -466 11 -639 31 -72 9 -217 15 -359 15 -367 0 -385 17 -373 359 6 159 4 206 -13 326 -11 77 -25 193 -31 258 -6 65 -24 171 -40 235 -61 242 -30 334 131 388 155 52 363 175 455 267 33 34 90 89 126 122 86 80 97 111 108 327 5 92 14 204 20 250 5 45 10 136 10 200 0 65 7 160 15 212 8 51 21 178 29 283 14 199 21 225 66 242 15 6 218 10 505 10 l480 0 100 21 c79 17 142 22 301 25 111 1 206 5 211 8 5 3 87 11 181 17 95 7 212 18 260 25 120 17 206 17 352 -1z"
       id="path4580" />
    <path
       fill="#bde4e4"
       stroke="none"
       d="M43790 14316 c-133 -17 -594 -28 -1290 -32 -656 -3 -1381 -37 -1610 -75 -63 -11 -231 -18 -801 -37 -146 -5 -270 -12 -275 -14 -5 -3 -67 -11 -139 -18 -161 -14 -197 -23 -238 -60 l-32 -28 -2 -414 c-5 -850 16 -884 487 -800 96 17 236 36 310 42 74 6 191 17 260 25 122 13 342 20 1195 35 231 4 654 13 940 20 524 12 796 7 1060 -22 145 -15 460 -15 512 0 99 29 113 71 113 330 0 437 -23 645 -90 828 -86 231 -127 254 -400 220z"
       id="path4582" />
    <path
       fill="#14ead0"
       stroke="none"
       d="M44010 14172 c83 -45 129 -194 130 -422 0 -80 5 -176 10 -215 39 -300 23 -472 -47 -502 l-38 -16 -300 17 c-165 9 -376 24 -469 32 -142 14 -187 14 -280 4 -68 -8 -310 -14 -626 -16 -1298 -9 -1577 -13 -1735 -28 -88 -8 -239 -20 -335 -26 -222 -13 -322 -25 -435 -50 -347 -76 -381 -24 -378 575 2 401 6 426 60 458 38 22 305 56 443 57 47 0 123 5 170 10 47 6 207 15 355 20 149 5 320 16 380 24 61 9 270 23 465 31 195 9 420 20 500 26 80 6 442 12 805 15 363 3 746 8 850 13 352 15 436 13 475 -7z"
       id="path4584" />
    <path
       fill="#bde4e4"
       stroke="none"
       d="M45485 13829 c-115 -68 -141 -226 -97 -594 12 -94 24 -199 27 -234 15 -158 41 -171 355 -184 417 -17 441 11 379 433 -6 41 -14 166 -18 277 l-6 202 -21 28 c-35 48 -67 56 -234 64 -85 4 -202 10 -260 14 -73 4 -111 2 -125 -6z"
       id="path4586" />
    <path
       fill="#eeda98"
       stroke="none"
       d="M45686 13714 c49 -8 122 -19 163 -24 123 -16 133 -30 150 -215 6 -60 18 -181 26 -268 17 -171 12 -218 -26 -253 l-21 -19 -173 -3 c-249 -5 -251 -3 -300 248 -62 321 -42 517 55 540 19 4 36 8 36 9 1 1 41 -6 90 -15z"
       id="path4588" />
    <path
       fill="#bde4e4"
       stroke="none"
       d="M30915 12200 c-118 -18 -241 -30 -307 -30 -78 0 -491 -83 -526 -106 -58 -38 -52 -90 25 -232 116 -215 145 -285 178 -435 24 -108 60 -239 139 -507 72 -245 111 -650 88 -920 -39 -450 -56 -735 -57 -960 l0 -195 32 -160 c18 -88 39 -203 48 -255 9 -52 40 -171 70 -265 29 -93 68 -219 85 -280 18 -60 51 -166 75 -235 23 -69 52 -170 65 -225 12 -55 38 -156 56 -225 89 -325 105 -779 44 -1280 -41 -347 -50 -389 -134 -638 -41 -119 -88 -260 -104 -312 -17 -52 -55 -156 -85 -230 -39 -96 -66 -183 -92 -300 -20 -91 -45 -199 -55 -240 -10 -41 -38 -187 -60 -325 -23 -137 -58 -310 -77 -385 l-35 -135 -10 -375 c-10 -395 -11 -407 -59 -442 l-26 -20 -200 -3 c-144 -3 -216 -9 -259 -21 -32 -9 -84 -23 -114 -32 -46 -12 -68 -13 -136 -3 -119 17 -184 14 -350 -15 l-149 -26 -400 5 c-220 3 -436 2 -479 -3 -120 -14 -780 -14 -936 -1 -74 7 -182 16 -240 21 -58 5 -154 20 -215 34 -60 14 -177 35 -259 47 l-148 23 -36 -20 c-22 -11 -47 -37 -62 -64 l-25 -45 0 -130 c1 -132 24 -358 51 -495 8 -41 21 -151 29 -245 19 -228 33 -245 215 -264 240 -26 1549 -14 1759 15 89 13 361 19 501 11 87 -5 824 15 990 27 216 15 535 14 1140 -4 524 -16 553 -11 625 99 l23 36 0 150 c0 83 4 195 11 250 l11 100 -20 95 c-13 59 -24 168 -30 290 -5 107 -14 249 -20 315 -5 66 -10 186 -10 267 0 81 -7 249 -16 375 -11 158 -15 311 -12 498 l5 270 27 125 c33 151 37 165 91 305 24 61 53 155 64 210 29 135 64 240 123 365 27 58 67 166 88 240 21 74 46 154 54 178 28 79 46 189 61 383 18 230 28 323 49 443 26 147 15 487 -23 698 -11 62 -27 166 -36 231 -8 65 -29 168 -45 230 -54 201 -130 530 -150 647 -21 121 -37 186 -65 260 -35 94 -115 424 -125 512 -5 51 -17 138 -26 193 -13 80 -15 129 -9 245 20 365 22 832 5 985 -5 50 -12 185 -15 300 -7 238 -19 325 -75 544 -22 84 -49 204 -59 267 -11 62 -33 155 -50 207 -18 58 -34 136 -41 203 -36 364 -49 386 -214 390 -50 2 -118 -2 -151 -6z"
       id="path4590" />
    <path
       fill="#6ffb44"
       stroke="none"
       d="M31092 12099 c37 -20 56 -87 73 -251 8 -86 24 -189 35 -230 11 -40 38 -154 60 -253 22 -99 58 -247 81 -330 l41 -150 11 -350 c6 -192 11 -406 11 -475 0 -69 -2 -330 -3 -580 -3 -644 4 -690 159 -1177 16 -51 39 -145 51 -210 27 -152 78 -383 133 -597 104 -408 158 -998 117 -1281 -6 -44 -18 -165 -26 -270 -16 -192 -42 -378 -71 -489 -28 -112 -96 -320 -130 -399 -19 -43 -63 -163 -99 -267 -36 -104 -79 -224 -96 -266 -53 -134 -139 -469 -146 -567 -6 -85 -1 -226 33 -937 8 -173 19 -434 24 -580 5 -146 16 -305 24 -355 25 -152 29 -254 16 -435 -18 -256 -26 -265 -224 -256 -66 2 -251 9 -411 15 -159 5 -321 14 -358 20 -42 6 -104 6 -160 0 -51 -4 -157 -9 -237 -9 -80 0 -192 -5 -250 -10 -58 -6 -328 -12 -600 -15 -656 -7 -800 -11 -955 -26 -161 -16 -934 -17 -1366 -3 l-306 10 -34 20 c-45 26 -58 56 -70 161 -16 142 -27 229 -54 393 -13 85 -25 195 -25 243 l0 89 29 29 29 29 84 0 c49 0 149 -12 243 -29 317 -58 853 -73 1433 -41 174 10 262 11 350 3 69 -7 142 -8 177 -3 33 5 107 9 165 9 58 1 152 8 210 17 58 8 213 19 345 24 132 5 265 14 295 20 86 16 247 22 340 13 324 -31 446 56 370 266 -39 108 -42 178 -17 366 9 72 23 208 32 303 9 95 27 241 40 325 13 83 28 190 34 237 7 47 25 139 41 205 17 66 39 174 50 240 22 136 64 269 139 438 28 64 65 169 81 235 16 65 45 164 64 218 86 242 128 425 141 604 7 110 30 306 51 435 18 114 18 243 0 365 -8 52 -17 140 -21 195 -9 134 -37 287 -79 431 -59 205 -117 413 -161 584 -23 91 -70 244 -104 340 -120 338 -170 853 -127 1310 8 85 17 220 21 300 3 80 13 194 22 254 14 95 15 131 5 285 -16 229 -38 336 -149 716 -52 176 -62 216 -94 365 l-29 135 -91 183 c-145 292 -137 325 85 352 49 6 94 14 99 17 5 3 93 10 196 14 102 5 218 15 256 23 88 17 170 19 197 5z"
       id="path4592" />
    <path
       fill="#bde4e4"
       stroke="none"
       d="M41365 11880 c-201 -4 -385 -13 -470 -23 -77 -9 -268 -21 -425 -27 -157 -6 -341 -15 -410 -21 -69 -5 -190 -13 -270 -18 -80 -5 -178 -17 -218 -25 -40 -9 -106 -16 -145 -17 -92 -1 -116 -8 -141 -42 l-20 -27 18 -92 c11 -51 33 -140 51 -198 18 -58 38 -136 44 -175 7 -38 23 -113 36 -165 13 -52 28 -142 35 -199 6 -57 18 -138 26 -180 9 -42 19 -134 24 -206 4 -71 13 -173 19 -225 6 -52 15 -149 21 -215 6 -66 18 -192 26 -280 8 -88 21 -254 29 -370 8 -115 20 -266 26 -334 5 -69 7 -159 4 -200 -8 -89 18 -460 39 -576 30 -162 38 -279 46 -695 8 -459 21 -600 76 -845 21 -94 28 -162 35 -315 6 -143 13 -216 28 -275 12 -44 26 -134 31 -200 6 -66 22 -162 36 -214 14 -51 32 -153 40 -225 46 -404 101 -472 339 -421 39 8 102 18 140 21 112 9 308 34 391 49 41 8 94 15 115 15 22 0 131 15 242 34 111 19 236 37 277 41 41 4 125 17 185 30 61 13 182 29 270 35 88 6 192 18 230 26 135 28 171 34 290 43 66 6 161 16 212 22 74 11 115 10 215 0 68 -8 242 -15 388 -16 275 -2 538 -26 660 -60 30 -9 127 -20 215 -25 88 -4 187 -14 219 -20 170 -33 237 33 239 238 2 158 -21 800 -29 813 -8 14 -21 268 -34 684 -5 171 -14 357 -19 415 -6 58 -10 351 -11 651 0 441 -3 566 -16 655 -8 60 -19 199 -24 309 -9 195 -35 434 -65 585 -21 107 -52 365 -70 575 -10 122 -25 222 -46 310 l-31 130 -8 230 -8 230 -31 135 c-19 79 -35 182 -40 252 -11 165 -26 179 -219 203 -172 21 -320 50 -477 91 l-140 37 -485 2 -485 2 -115 26 c-108 24 -397 50 -497 45 -21 -1 -186 -5 -368 -8z"
       id="path4594" />
    <path
       fill="#1f0a58"
       stroke="none"
       d="M41973 11770 c122 -6 240 -18 305 -30 l107 -21 450 6 450 7 325 -67 c431 -88 400 -63 460 -356 l41 -194 5 -185 c5 -162 9 -198 35 -290 38 -142 48 -211 59 -422 5 -98 12 -200 15 -226 3 -26 14 -132 26 -237 11 -104 30 -233 41 -285 16 -76 22 -152 28 -385 5 -169 15 -342 25 -415 13 -95 18 -220 20 -525 3 -446 20 -1042 35 -1210 5 -60 9 -162 9 -226 1 -64 8 -202 16 -305 32 -413 36 -908 7 -961 -29 -53 -195 -60 -439 -17 -185 32 -311 42 -738 54 -187 6 -380 13 -429 15 -56 3 -148 -3 -250 -15 -88 -11 -201 -20 -252 -20 -51 0 -123 -6 -161 -14 -37 -8 -151 -24 -253 -36 -102 -11 -239 -29 -305 -40 -66 -10 -149 -21 -185 -25 -36 -3 -114 -13 -175 -20 -60 -8 -175 -22 -255 -30 -80 -8 -201 -26 -270 -39 -268 -52 -539 -67 -593 -31 -50 32 -53 47 -142 630 -14 88 -31 198 -39 245 -9 47 -20 166 -26 265 -8 149 -18 222 -59 425 -67 332 -74 391 -66 600 8 226 -18 786 -46 976 -13 90 -23 235 -29 414 -5 151 -14 304 -19 340 -6 36 -11 115 -11 175 0 61 -6 164 -14 230 -28 229 -38 341 -45 521 -4 99 -10 185 -14 190 -3 6 -11 82 -17 170 -6 87 -19 218 -30 289 -10 72 -21 166 -25 210 -4 44 -17 125 -30 180 -12 55 -26 120 -30 145 -3 25 -18 87 -31 138 -53 198 -30 251 125 288 122 30 736 73 1044 74 62 0 166 8 232 16 107 14 429 27 795 32 69 1 214 -3 323 -8z"
       id="path4596" />
    <path
       fill="#bde4e4"
       stroke="none"
       d="M28665 11809 c-22 -5 -103 -13 -180 -18 -99 -7 -164 -17 -223 -35 -83 -25 -148 -32 -532 -56 -80 -5 -194 -16 -255 -26 -60 -9 -171 -20 -245 -24 -219 -13 -347 -29 -484 -62 -70 -17 -172 -34 -225 -38 -111 -7 -137 -19 -157 -65 -21 -50 -18 -271 6 -482 17 -142 20 -229 18 -452 -2 -215 1 -300 14 -386 9 -60 19 -146 23 -190 12 -152 78 -184 304 -150 91 14 152 17 305 12 131 -4 222 -1 291 8 408 54 603 46 640 -25 22 -43 92 -385 104 -510 21 -206 50 -353 121 -595 22 -77 50 -196 61 -265 11 -69 34 -179 50 -245 16 -66 41 -199 55 -295 14 -96 35 -218 46 -270 12 -58 23 -157 26 -256 9 -211 27 -233 174 -214 40 5 118 10 173 10 155 0 363 29 615 86 156 35 177 97 149 448 -9 109 -9 187 1 342 l13 200 -22 184 -23 184 11 115 c7 64 19 166 28 226 12 84 14 147 8 270 -3 88 -8 367 -9 620 -2 463 -16 782 -36 865 -6 24 -22 111 -36 194 -51 306 -147 724 -183 794 -25 49 -71 88 -119 102 -44 12 -449 12 -507 -1z"
       id="path4598" />
    <path
       fill="#47b2e3"
       stroke="none"
       d="M29031 11711 c114 -11 152 -28 179 -82 29 -56 125 -436 150 -592 11 -70 30 -160 41 -200 47 -161 79 -1558 43 -1845 -18 -143 -20 -344 -9 -902 4 -201 8 -425 9 -498 l1 -134 -36 -32 c-68 -63 -340 -113 -641 -118 l-156 -3 -26 24 c-31 29 -38 55 -65 231 -11 74 -32 214 -46 310 -15 96 -39 234 -55 305 -16 72 -36 173 -44 226 -8 52 -41 192 -72 310 -75 283 -81 311 -94 468 -13 155 -42 335 -70 437 -11 39 -25 109 -30 155 -18 148 -45 201 -115 230 -41 17 -354 13 -460 -6 -197 -34 -281 -38 -506 -25 l-215 13 -102 -23 c-224 -51 -231 -36 -242 530 -6 304 -11 416 -25 485 -12 68 -16 130 -13 250 4 214 5 215 173 235 50 5 128 19 175 31 101 24 204 35 438 49 95 5 232 19 305 30 72 10 206 24 297 30 408 27 414 28 500 55 64 20 121 29 230 36 80 5 165 13 190 18 60 11 174 12 291 2z"
       id="path4600" />
    <path
       fill="#bde4e4"
       stroke="none"
       d="M7955 11770 c-27 -4 -130 -20 -228 -35 -127 -18 -220 -39 -320 -71 -83 -26 -242 -63 -382 -90 -720 -137 -934 -335 -1183 -1094 -79 -243 -128 -495 -126 -660 4 -631 74 -1100 201 -1352 49 -99 301 -327 429 -388 84 -41 447 -176 525 -196 78 -20 395 -14 524 11 155 29 242 37 490 40 138 2 281 8 320 14 40 5 159 7 280 4 403 -11 590 16 948 136 97 33 203 65 235 71 152 30 140 -37 137 735 l-2 650 -21 130 c-11 72 -23 168 -27 215 -3 47 -15 164 -25 260 -11 96 -26 303 -35 460 -8 157 -17 319 -20 361 -4 69 -38 244 -82 419 -25 101 -59 129 -203 167 -142 38 -469 109 -570 124 -41 6 -130 24 -197 39 -195 46 -539 72 -668 50z"
       id="path4602" />
    <path
       fill="#14d385"
       stroke="none"
       d="M8505 11644 c66 -13 194 -35 284 -49 91 -14 183 -30 205 -36 22 -6 108 -24 190 -40 240 -46 292 -81 320 -216 9 -43 27 -123 40 -178 18 -73 26 -144 30 -260 4 -88 11 -200 16 -250 5 -49 10 -151 10 -225 0 -80 6 -168 15 -215 9 -44 20 -145 25 -225 5 -80 19 -197 31 -260 28 -151 36 -394 28 -895 -7 -475 -10 -488 -127 -531 -26 -9 -99 -38 -162 -65 -283 -117 -587 -161 -943 -137 -108 8 -181 6 -323 -6 -116 -10 -226 -14 -297 -10 -90 5 -147 1 -292 -19 -543 -77 -674 -64 -1029 98 -164 76 -167 77 -310 205 -163 144 -181 181 -277 545 -66 253 -94 574 -93 1065 1 434 241 1079 469 1262 151 122 494 258 650 258 39 0 271 61 401 105 72 25 166 49 210 55 43 6 140 20 214 31 239 34 522 32 715 -7z"
       id="path4604" />
    <path
       fill="#bde4e4"
       stroke="none"
       d="M45349 11770 c-126 -21 -140 -46 -151 -263 -8 -169 -17 -243 -57 -482 -11 -66 -25 -181 -31 -255 -6 -74 -13 -145 -16 -156 -27 -105 100 -196 250 -180 33 4 122 11 197 16 119 8 151 14 257 49 66 23 126 41 133 41 33 0 98 43 113 74 l15 33 -6 494 c-6 539 -6 533 -65 569 -78 47 -487 86 -639 60z"
       id="path4606" />
    <path
       fill="#eacc0b"
       stroke="none"
       d="M45740 11628 c149 -20 153 -28 162 -268 3 -102 9 -275 14 -386 9 -268 -12 -317 -165 -375 -75 -29 -410 -50 -460 -29 -74 30 -81 223 -21 604 5 34 16 130 25 215 17 161 29 200 71 227 49 33 194 37 374 12z"
       id="path4608" />
    <path
       fill="#bde4e4"
       stroke="none"
       d="M10377 11660 c-98 -19 -114 -59 -116 -278 0 -90 -2 -166 -5 -170 -9 -14 14 -684 29 -837 8 -88 15 -205 15 -260 0 -55 5 -163 10 -240 6 -77 13 -486 15 -910 3 -648 6 -782 19 -843 10 -46 16 -123 16 -205 0 -145 9 -268 46 -607 14 -135 24 -285 24 -375 0 -93 8 -201 19 -285 11 -74 22 -169 26 -210 33 -388 33 -390 160 -640 57 -113 120 -245 140 -295 105 -257 256 -456 500 -658 50 -41 126 -107 170 -146 148 -133 351 -213 598 -236 236 -23 277 -30 486 -91 101 -29 179 -31 255 -4 32 11 92 27 134 35 107 22 131 32 314 141 232 138 271 167 334 251 30 40 133 151 228 246 259 261 323 364 408 665 77 276 116 510 104 626 -4 34 -11 156 -16 271 -17 367 -55 541 -124 570 -101 43 -526 3 -705 -66 -125 -48 -152 -88 -112 -167 45 -89 68 -250 87 -617 9 -182 -12 -517 -36 -571 -30 -69 -138 -118 -375 -170 -384 -84 -761 30 -997 300 -131 151 -174 232 -222 427 -39 157 -86 266 -170 396 -79 123 -165 369 -201 578 -26 149 -65 484 -65 554 0 36 -10 133 -22 215 l-21 150 12 133 c8 75 10 158 6 191 -14 110 -13 690 1 842 8 80 14 245 14 366 0 159 5 247 16 310 12 69 14 115 8 204 -8 124 -8 162 -3 370 5 220 -82 799 -134 894 -28 51 -84 80 -202 105 -179 39 -558 63 -668 41z"
       id="path4610" />
    <path
       fill="#6ffb44"
       stroke="none"
       d="M10855 11520 c261 -33 257 -29 304 -321 51 -317 63 -425 60 -537 -2 -59 -3 -222 -4 -362 -2 -307 -19 -787 -35 -964 -10 -110 -9 -146 5 -253 9 -68 16 -170 15 -226 -4 -197 8 -733 19 -852 6 -66 11 -153 11 -193 0 -40 9 -107 20 -150 11 -43 24 -144 29 -227 17 -258 52 -365 262 -790 68 -140 111 -256 150 -409 45 -176 146 -331 296 -456 342 -284 620 -386 913 -336 52 9 125 21 161 26 64 9 240 70 321 111 100 51 166 150 187 280 17 108 30 360 21 419 -5 30 -9 87 -9 125 -1 77 -22 270 -47 436 -27 175 7 207 251 239 326 43 384 3 389 -270 2 -74 7 -209 11 -300 10 -217 -2 -327 -66 -597 -96 -411 -163 -541 -389 -763 -58 -58 -174 -176 -256 -263 -164 -175 -208 -208 -394 -301 -253 -127 -403 -142 -675 -68 -113 31 -196 46 -335 61 -275 30 -413 83 -556 213 -45 40 -148 133 -231 206 -161 143 -170 153 -251 281 -61 96 -93 157 -123 233 -11 29 -72 157 -135 285 -131 264 -137 285 -153 548 -6 88 -17 208 -26 265 -11 72 -15 165 -14 295 1 123 -4 248 -16 355 -9 91 -15 188 -12 217 3 28 -1 114 -9 190 -7 76 -14 176 -14 223 0 47 -7 128 -16 180 -9 59 -15 148 -14 235 1 77 -2 255 -6 395 -5 140 -7 395 -5 565 3 276 -18 892 -34 1025 -12 92 -29 624 -30 890 l0 276 18 28 c40 61 148 70 412 36z"
       id="path4612" />
    <path
       fill="#bde4e4"
       stroke="none"
       d="M13503 11620 c-88 -4 -166 -11 -173 -15 -6 -4 -91 -11 -188 -15 -337 -16 -594 -46 -657 -76 -65 -31 -63 -12 -70 -729 -3 -357 -8 -680 -11 -717 -3 -41 2 -103 12 -160 20 -107 25 -320 27 -1090 l2 -497 21 -22 c29 -29 82 -37 184 -28 211 19 712 22 858 5 l143 -16 157 15 c86 9 216 22 287 31 72 8 236 17 365 20 337 6 755 32 900 54 69 11 154 22 190 26 123 11 495 75 605 104 61 16 175 43 255 60 509 113 795 309 1081 743 202 307 250 617 149 970 -16 56 -39 148 -50 205 -41 202 -83 276 -252 437 -172 164 -467 317 -738 382 -110 26 -194 50 -345 101 -79 27 -155 45 -400 98 -61 13 -465 63 -675 83 -68 7 -291 10 -545 9 -239 -1 -514 4 -620 10 -318 20 -344 20 -512 12z"
       id="path4614" />
    <path
       fill="#14ead0"
       stroke="none"
       d="M14110 11510 c63 -5 311 -11 550 -15 272 -4 476 -11 545 -20 61 -7 187 -21 280 -30 347 -32 340 -31 674 -133 74 -23 207 -58 295 -78 357 -79 710 -276 865 -479 70 -91 99 -168 132 -339 11 -61 31 -156 45 -211 103 -427 -67 -910 -430 -1225 -151 -131 -484 -283 -714 -325 -70 -13 -176 -35 -237 -49 -150 -34 -324 -63 -496 -81 -79 -9 -182 -22 -229 -30 -47 -8 -148 -19 -225 -25 -77 -6 -214 -17 -305 -25 -91 -8 -271 -17 -400 -19 -139 -3 -288 -12 -365 -22 -171 -23 -1475 -28 -1506 -6 -42 30 -48 148 -28 634 9 208 9 308 0 405 -25 275 -39 920 -28 1308 6 204 9 432 8 509 -3 221 -18 215 569 247 107 6 218 14 245 19 58 10 587 3 755 -10z"
       id="path4616" />
    <path
       fill="#bde4e4"
       stroke="none"
       d="M4672 11300 c-64 -14 -142 -60 -174 -105 -44 -60 -123 -213 -143 -275 -10 -30 -37 -98 -61 -150 -129 -283 -62 -490 157 -490 10 0 79 -16 153 -35 302 -78 386 -29 412 240 4 42 26 129 55 215 27 79 63 201 80 269 l31 124 -12 54 c-25 113 -107 153 -325 159 -71 1 -149 -1 -173 -6z"
       id="path4618" />
    <path
       fill="#6ffb44"
       stroke="none"
       d="M4939 11209 c132 -28 133 -111 5 -461 -45 -124 -58 -172 -66 -253 -17 -173 -44 -202 -178 -192 -80 6 -254 56 -306 88 -79 48 -76 176 10 352 24 51 52 115 61 144 19 61 115 224 159 271 53 56 189 78 315 51z"
       id="path4620" />
    <path
       fill="#bde4e4"
       stroke="none"
       d="M33155 9989 c-407 -44 -474 -99 -531 -435 l-27 -159 7 -240 c3 -132 11 -260 17 -285 48 -200 -9 -373 -166 -498 -44 -36 -88 -76 -98 -91 l-18 -26 7 -105 c5 -58 9 -204 10 -325 1 -121 7 -247 13 -280 7 -33 16 -161 21 -285 l9 -225 30 -115 c42 -157 71 -513 71 -862 0 -97 7 -228 16 -298 8 -69 20 -161 25 -205 30 -250 40 -950 15 -1136 -17 -129 -13 -300 14 -556 6 -51 10 -157 10 -235 0 -85 7 -186 17 -248 14 -84 17 -180 18 -490 0 -212 4 -416 9 -455 10 -87 -6 -252 -40 -417 -96 -472 11 -611 416 -540 63 11 167 28 230 37 63 9 174 30 246 46 72 16 158 29 190 29 157 0 236 29 267 98 l22 47 1 310 c1 171 -2 384 -7 475 -19 333 -21 991 -5 1166 l16 160 -15 310 c-26 539 -35 695 -51 834 -30 271 -23 1290 10 1570 29 243 85 624 100 680 8 30 22 100 31 155 65 411 167 640 402 904 157 176 160 239 18 401 -170 195 -233 478 -186 840 52 398 -7 469 -358 434 -208 -20 -368 -20 -455 0 -92 22 -191 27 -301 15z"
       id="path4622" />
    <path
       fill="#1f0a58"
       stroke="none"
       d="M33447 9859 l103 -23 218 23 c378 41 379 40 367 -389 -7 -286 -4 -327 42 -485 38 -135 72 -201 153 -300 133 -165 133 -200 0 -354 -168 -195 -288 -413 -351 -638 -55 -196 -56 -205 -74 -330 -8 -59 -26 -153 -39 -208 -13 -55 -29 -145 -36 -200 -6 -55 -20 -154 -30 -220 -61 -382 -80 -1411 -36 -1856 30 -291 48 -538 41 -548 -2 -5 0 -119 5 -254 8 -198 7 -279 -5 -416 -13 -143 -13 -266 -5 -803 15 -989 15 -1074 -4 -1103 -35 -53 -38 -54 -401 -96 -49 -6 -171 -26 -270 -45 -99 -20 -223 -38 -275 -41 l-95 -5 -29 23 c-72 57 -72 244 0 604 13 64 15 103 8 195 -5 63 -7 266 -5 450 2 253 -1 385 -14 540 -10 125 -15 242 -11 300 6 93 -20 377 -44 475 -14 59 -12 165 5 237 52 226 39 995 -21 1276 -20 94 -24 142 -24 280 0 92 -7 230 -14 307 -8 77 -18 223 -21 325 l-6 185 -36 125 -36 125 -2 175 c-1 96 -10 234 -18 305 -20 160 -31 702 -16 743 6 15 52 68 104 117 139 133 183 241 172 415 -43 647 -43 628 -1 814 45 204 73 237 220 272 174 40 317 41 481 3z"
       id="path4624" />
    <path
       fill="#bde4e4"
       stroke="none"
       d="M45785 9700 c-38 -5 -122 -13 -185 -19 -200 -16 -371 -77 -403 -144 l-19 -37 11 -408 c8 -309 16 -442 31 -552 11 -80 25 -187 30 -238 15 -150 37 -175 170 -197 47 -7 123 -23 170 -34 l85 -20 185 14 c257 20 304 36 335 119 l18 46 -22 137 c-28 182 -39 290 -46 453 -4 74 -15 198 -26 275 -10 77 -26 225 -34 328 -23 288 -45 308 -300 277z"
       id="path4626" />
    <path
       fill="#13eacf"
       stroke="none"
       d="M45865 9546 c19 -8 39 -25 45 -38 35 -82 99 -524 114 -783 3 -55 14 -164 23 -242 24 -208 6 -252 -109 -259 -29 -2 -107 -9 -173 -15 l-120 -11 -112 36 c-160 52 -164 58 -209 306 l-26 145 -5 315 c-7 431 -7 414 13 449 33 55 148 90 304 92 52 0 118 4 145 9 74 11 73 11 110 -4z"
       id="path4628" />
    <path
       fill="#bde4e4"
       stroke="none"
       d="M35422 9650 c-59 -37 -106 -207 -133 -480 -5 -58 -23 -161 -38 -230 -16 -69 -32 -147 -35 -175 -7 -51 -52 -303 -86 -480 -11 -55 -35 -147 -54 -205 -21 -67 -44 -170 -61 -283 l-27 -177 11 -123 c7 -67 18 -180 26 -252 78 -704 68 -753 -181 -870 -208 -98 -264 -150 -249 -232 24 -136 198 -485 289 -581 68 -73 72 -73 389 -32 128 17 286 38 352 46 342 45 689 229 751 399 86 235 -55 720 -288 985 -346 395 -358 456 -180 883 39 93 104 228 146 301 42 72 92 170 112 216 20 47 62 126 94 175 49 78 207 389 323 635 20 42 59 107 87 145 58 79 67 106 51 141 -21 47 -54 54 -386 85 -71 6 -175 22 -230 36 -125 31 -170 38 -375 64 -262 33 -270 33 -308 9z"
       id="path4630" />
    <path
       fill="#eeda98"
       stroke="none"
       d="M35860 9504 c96 -19 201 -42 233 -50 32 -8 120 -19 195 -25 263 -18 267 -30 108 -346 -143 -288 -225 -444 -284 -541 -28 -46 -58 -106 -68 -134 -9 -27 -92 -201 -185 -386 -256 -510 -264 -631 -61 -868 32 -38 84 -103 115 -144 31 -41 74 -97 96 -125 115 -148 261 -548 261 -715 0 -296 -288 -472 -845 -515 -44 -3 -158 -15 -254 -26 -239 -27 -255 -20 -353 168 -172 330 -161 395 92 516 129 61 186 112 237 208 l28 54 0 120 c0 161 -22 523 -40 665 -30 240 -10 437 69 665 33 97 50 168 66 280 12 83 32 196 45 251 13 56 29 146 34 200 6 55 19 142 30 194 10 52 22 127 26 165 6 63 39 232 67 342 26 103 76 109 388 47z"
       id="path4632" />
    <path
       fill="#bde4e4"
       stroke="none"
       d="M37528 9495 c-101 -37 -123 -79 -137 -262 -6 -72 -15 -152 -21 -178 -6 -26 -24 -131 -41 -234 l-31 -186 7 -185 c4 -102 8 -295 10 -430 4 -315 24 -497 90 -789 l28 -124 -11 -136 c-6 -75 -11 -199 -10 -276 1 -93 -5 -170 -15 -229 -29 -153 -11 -649 28 -776 2 -8 11 -73 19 -145 9 -71 28 -199 43 -283 l27 -153 -12 -77 c-6 -42 -19 -113 -27 -157 -25 -130 -32 -575 -11 -700 8 -55 20 -145 26 -200 20 -214 87 -497 158 -670 24 -60 53 -132 64 -160 48 -121 133 -557 168 -865 11 -102 32 -250 45 -330 13 -80 31 -189 40 -244 15 -97 92 -319 136 -392 56 -93 174 -77 334 45 88 68 387 167 757 251 213 48 235 68 224 199 -11 120 -44 306 -71 395 -13 44 -35 142 -49 216 -14 74 -36 189 -50 255 -14 66 -30 182 -36 258 -6 76 -19 182 -30 235 -23 119 -50 298 -55 372 -2 30 -9 120 -15 200 -13 181 -36 374 -61 506 -13 73 -19 148 -19 275 0 96 -8 255 -16 354 -9 99 -14 204 -11 233 3 29 1 108 -4 175 -6 67 -9 230 -8 362 7 557 4 705 -15 829 -16 97 -17 140 -11 240 15 219 16 213 -82 609 -24 99 -36 178 -43 275 -7 119 -14 151 -45 242 -33 91 -38 122 -46 244 -6 95 -18 179 -38 261 -17 71 -33 174 -40 255 -6 74 -23 191 -37 260 -24 109 -28 149 -29 310 -1 275 30 252 -343 256 -318 4 -370 10 -482 54 -89 34 -185 40 -252 15z"
       id="path4634" />
    <path
       fill="#eacc0b"
       stroke="none"
       d="M37757 9354 c81 -26 264 -48 498 -60 181 -9 203 -21 220 -119 4 -22 17 -96 31 -165 13 -69 33 -201 44 -295 26 -223 37 -292 65 -400 15 -58 25 -139 30 -229 5 -112 12 -157 37 -235 25 -80 31 -122 38 -256 7 -133 14 -179 40 -270 64 -224 70 -261 80 -507 5 -128 18 -316 30 -418 l22 -184 -10 -311 c-8 -253 -8 -337 4 -455 16 -165 22 -326 28 -755 l4 -300 26 -126 c14 -69 37 -233 51 -365 31 -303 57 -510 95 -744 16 -102 34 -244 39 -315 11 -138 67 -467 106 -625 96 -382 79 -463 -104 -504 -163 -37 -301 -79 -391 -120 -52 -24 -126 -51 -164 -60 -76 -19 -126 -42 -199 -92 -164 -113 -252 -33 -293 264 -8 64 -28 182 -44 262 -28 141 -62 369 -75 500 -4 36 -22 124 -40 195 -18 72 -41 168 -50 215 -9 47 -26 108 -36 135 -11 28 -39 120 -64 205 -25 85 -65 216 -89 290 -49 148 -81 294 -91 410 -3 41 -14 122 -23 180 -14 85 -17 169 -16 440 l1 335 23 108 23 108 -16 117 c-9 64 -19 146 -22 182 -3 36 -12 119 -20 185 -39 318 -44 382 -50 545 -4 106 -2 220 5 290 7 63 13 243 15 400 l3 285 -24 118 c-13 65 -29 171 -35 235 -6 64 -17 158 -26 207 -11 64 -15 154 -14 313 1 122 -4 262 -10 310 -27 214 -13 381 66 792 13 69 28 154 34 189 20 122 88 148 248 95z"
       id="path4636" />
    <path
       fill="#bde4e4"
       stroke="none"
       d="M4004 9359 c-119 -58 -174 -568 -89 -836 13 -43 33 -121 45 -173 56 -251 176 -562 306 -790 159 -279 233 -315 435 -209 246 130 287 222 396 889 60 369 14 684 -123 830 -58 62 -303 190 -400 210 -32 6 -99 22 -149 35 -164 43 -376 65 -421 44z"
       id="path4638" />
    <path
       fill="#eb6a06"
       stroke="none"
       d="M4453 9220 l138 -29 132 -72 c196 -107 190 -100 238 -305 44 -187 46 -338 5 -559 -124 -673 -115 -647 -236 -758 -122 -114 -227 -92 -305 63 -10 19 -42 77 -73 127 -199 336 -387 1061 -341 1319 46 260 97 285 442 214z"
       id="path4640" />
    <path
       fill="#bde4e4"
       stroke="none"
       d="M26765 8995 c-277 -35 -395 -100 -395 -217 0 -58 -26 -342 -35 -380 -3 -13 -14 -102 -25 -198 -34 -289 -33 -289 -346 -251 -283 35 -280 35 -414 11 -109 -19 -146 -21 -290 -16 -99 4 -197 3 -245 -4 -44 -6 -179 -15 -300 -20 -161 -6 -255 -15 -350 -34 -71 -13 -224 -36 -340 -51 -362 -46 -440 -66 -470 -125 -18 -35 -17 -47 21 -177 13 -46 30 -133 39 -195 8 -62 19 -140 24 -173 6 -38 5 -92 -2 -147 -9 -74 -7 -97 8 -160 58 -236 -3 -303 -295 -327 -69 -6 -163 -18 -210 -26 -247 -44 -282 -12 -320 285 -6 53 -29 140 -60 230 -43 124 -50 156 -50 221 0 42 -5 101 -10 130 -6 30 -17 97 -24 150 -15 109 -36 160 -74 185 l-26 17 -315 -1 c-174 0 -453 -1 -621 -1 -168 -1 -367 -6 -444 -13 -103 -8 -176 -8 -285 1 -80 6 -315 12 -521 14 l-375 2 -59 -18 c-102 -32 -124 -75 -196 -387 -69 -294 -130 -382 -334 -481 -158 -77 -224 -91 -374 -83 -100 5 -132 3 -220 -16 -118 -25 -166 -23 -264 14 -35 13 -113 33 -173 44 -91 16 -132 30 -238 81 l-129 62 -71 76 c-40 41 -110 100 -157 131 -204 133 -296 267 -356 520 -34 146 -45 163 -118 186 -18 6 -361 -37 -551 -69 -49 -9 -184 -39 -300 -67 l-210 -52 -230 0 c-126 -1 -279 -7 -340 -14 -60 -7 -153 -17 -205 -22 -99 -10 -314 -66 -381 -100 -81 -42 -87 -64 -63 -246 4 -34 -1 -93 -15 -178 -25 -144 -28 -115 47 -451 39 -172 61 -245 99 -335 27 -63 58 -139 67 -167 35 -105 64 -111 224 -44 224 94 543 201 717 240 50 12 131 32 182 45 51 14 144 32 208 41 64 9 170 32 236 51 254 73 263 70 434 -128 104 -121 128 -142 200 -183 28 -16 92 -58 143 -93 262 -181 672 -328 1102 -396 52 -8 183 -33 290 -55 372 -76 515 -77 712 -3 57 21 137 51 179 66 42 15 107 45 145 68 38 22 114 62 170 88 86 40 117 62 211 149 216 199 348 258 768 343 116 24 153 -26 186 -250 27 -181 25 -617 -3 -667 -107 -196 -525 -265 -1483 -244 -651 14 -760 14 -1050 6 -232 -6 -283 -9 -485 -33 -69 -8 -201 -14 -295 -15 -93 0 -206 -5 -250 -10 -44 -5 -231 -14 -415 -19 -805 -22 -980 -30 -1075 -44 -134 -21 -194 -20 -293 4 -91 22 -198 26 -283 10 -30 -5 -144 -14 -254 -20 -788 -40 -739 -23 -844 -289 -45 -113 -74 -171 -119 -233 -75 -103 -114 -173 -147 -263 -63 -168 -142 -267 -229 -289 -343 -88 -604 -109 -946 -76 -74 7 -174 9 -245 5 -66 -3 -298 -8 -515 -10 l-395 -4 -199 30 c-429 64 -686 75 -1071 49 -223 -16 -256 -29 -390 -152 -88 -80 -179 -147 -301 -221 -60 -36 -143 -94 -184 -129 -41 -35 -118 -98 -171 -140 -225 -178 -271 -285 -179 -417 85 -120 132 -146 372 -209 142 -37 443 -148 552 -204 72 -37 170 -70 291 -98 66 -15 209 -51 318 -79 219 -56 392 -91 567 -116 63 -9 178 -28 255 -42 248 -44 426 -73 611 -98 100 -14 221 -34 270 -45 118 -28 641 -90 764 -91 36 0 88 -4 115 -9 75 -14 441 -35 600 -34 77 0 192 0 255 -1 293 0 478 5 628 18 250 23 254 26 416 336 111 212 273 423 358 467 39 20 249 38 363 30 478 -30 1529 -46 1741 -26 71 7 201 13 289 14 l160 1 65 -32 c83 -41 310 -181 420 -259 77 -55 137 -91 272 -168 98 -55 246 -192 333 -307 96 -128 190 -210 302 -268 48 -24 86 -26 216 -10 76 9 121 8 252 -6 90 -10 283 -19 443 -22 l283 -5 45 17 c99 38 123 137 108 436 l-9 184 -28 57 c-77 157 -198 237 -457 302 -277 70 -322 92 -458 218 -95 89 -190 162 -345 262 -64 42 -161 108 -214 146 -57 42 -171 108 -277 162 -250 125 -289 160 -223 202 52 34 923 61 1172 37 210 -20 1138 -30 1985 -22 274 3 382 1 475 -11 136 -17 373 -21 580 -10 144 8 192 6 525 -22 373 -32 651 -64 815 -97 57 -11 184 -24 295 -29 107 -6 240 -15 295 -20 214 -21 231 -22 272 -11 103 28 110 72 48 313 -55 212 -62 250 -75 391 -6 62 -18 152 -26 201 -36 207 1 231 274 181 312 -57 309 -54 342 -410 6 -66 20 -167 31 -225 11 -57 24 -174 30 -260 18 -284 45 -310 232 -231 224 96 557 85 1227 -39 58 -11 213 -29 345 -40 275 -24 360 -34 465 -55 41 -8 161 -26 265 -40 105 -14 228 -32 275 -40 291 -50 341 -27 359 168 6 56 19 145 30 197 10 52 24 136 30 185 6 50 18 126 26 170 9 44 23 145 31 225 8 80 24 186 36 235 l20 90 2 310 c1 277 -7 506 -19 525 -2 4 -9 87 -15 186 -6 98 -15 206 -20 239 -6 33 -14 143 -20 245 -22 398 -15 395 -810 354 -81 -4 -166 -2 -240 7 l-115 13 -135 -17 c-159 -20 -266 -22 -299 -4 -90 46 -288 685 -321 1036 -6 63 -27 196 -46 295 -26 137 -37 223 -44 366 -5 102 -11 192 -14 200 -3 8 -12 89 -21 179 -39 406 -76 470 -324 555 -126 44 -203 51 -356 31z"
       id="path4642" />
    <path
       fill="#6ffb44"
       stroke="none"
       d="M27071 8876 c214 -55 245 -96 269 -358 6 -67 17 -177 25 -243 8 -66 19 -192 24 -280 6 -90 19 -202 31 -255 12 -52 34 -191 50 -308 38 -276 60 -365 181 -727 82 -245 101 -315 106 -380 10 -135 35 -152 191 -136 175 18 476 31 552 22 41 -4 228 -3 415 2 l340 10 37 -17 c55 -26 66 -61 83 -257 8 -96 20 -226 25 -289 6 -63 17 -196 25 -295 8 -99 19 -225 24 -280 16 -179 6 -566 -18 -670 -11 -50 -25 -151 -30 -225 -5 -74 -19 -178 -29 -230 -11 -52 -23 -138 -27 -190 -12 -163 -60 -370 -95 -404 l-29 -30 -85 -4 c-64 -3 -109 1 -178 16 -141 32 -264 51 -395 62 -65 5 -134 14 -153 20 -19 5 -89 15 -155 20 -66 6 -151 15 -190 20 -38 6 -126 15 -195 19 -118 9 -168 17 -482 77 -400 76 -729 81 -922 14 -106 -36 -139 -16 -150 91 -4 35 -18 125 -31 199 -14 74 -29 194 -35 265 -35 456 -36 459 -162 475 -108 14 -339 60 -433 85 -141 39 -186 31 -221 -37 -50 -97 -13 -498 81 -867 32 -126 32 -162 1 -198 l-24 -28 -58 1 c-62 1 -214 15 -429 39 -71 8 -188 19 -258 25 -71 6 -190 22 -265 36 -99 17 -189 26 -322 30 -131 4 -217 12 -295 27 l-110 22 -255 -5 c-419 -7 -594 -6 -815 8 -171 11 -295 11 -664 1 -360 -9 -496 -9 -655 1 -128 8 -275 10 -406 5 -189 -6 -249 -3 -475 21 -214 23 -397 22 -1065 -8 -151 -6 -347 -11 -436 -9 -170 3 -226 -5 -262 -39 -51 -48 -17 -89 105 -126 48 -14 144 -55 213 -91 69 -35 156 -78 195 -95 120 -52 321 -166 412 -235 49 -36 131 -90 183 -121 152 -89 202 -126 335 -246 163 -148 244 -191 445 -236 387 -87 500 -262 442 -679 -19 -132 -63 -143 -522 -121 -151 7 -361 16 -465 19 l-191 6 -51 33 c-58 37 -107 89 -172 180 -85 120 -306 307 -446 379 -89 45 -184 106 -300 191 -81 60 -337 211 -405 239 -74 30 -197 28 -550 -12 -98 -11 -170 -12 -335 -5 -115 5 -370 10 -566 10 -260 0 -398 4 -515 17 -211 22 -662 20 -711 -4 -20 -9 -49 -40 -76 -82 -25 -36 -75 -102 -111 -146 -78 -92 -139 -192 -218 -355 -98 -200 -151 -229 -424 -230 -61 0 -133 -4 -160 -9 -114 -21 -1028 -11 -1209 13 -16 3 -84 9 -150 15 -66 7 -145 14 -175 17 -144 13 -438 58 -550 84 -69 15 -169 33 -224 39 -111 13 -289 49 -417 86 -48 14 -131 29 -185 35 -227 25 -422 51 -469 65 -57 16 -231 54 -383 85 -117 23 -419 118 -567 178 -55 22 -183 67 -285 100 -428 139 -532 183 -595 253 -73 81 -22 196 133 306 37 26 101 76 142 111 41 35 120 91 174 124 94 56 212 144 351 259 72 60 108 71 300 93 159 18 573 22 670 6 33 -6 125 -15 205 -20 80 -6 195 -19 255 -30 l110 -19 355 3 c195 2 439 7 542 11 152 6 216 4 341 -10 l154 -18 184 11 c142 9 214 19 309 42 126 31 260 50 363 50 104 0 119 15 182 185 58 154 96 231 174 348 39 60 102 170 140 245 106 212 133 228 411 242 215 11 397 27 583 51 l159 21 135 -23 136 -22 174 18 c128 13 209 16 306 11 73 -3 199 -1 282 5 83 6 260 12 395 13 135 1 333 10 440 19 107 9 272 21 365 27 94 6 208 15 255 21 47 5 213 14 370 20 157 6 336 13 399 16 73 3 151 -1 221 -11 104 -16 802 -33 1120 -28 405 7 1022 157 1061 259 45 120 14 650 -52 885 -73 257 -105 283 -315 243 -44 -8 -128 -21 -187 -30 -64 -9 -133 -25 -170 -41 -34 -14 -100 -42 -147 -61 -190 -77 -198 -82 -335 -213 l-130 -125 -175 -87 c-96 -48 -204 -98 -240 -112 -36 -13 -100 -38 -144 -56 -165 -66 -292 -64 -586 10 -107 27 -213 52 -235 54 -289 37 -664 136 -834 219 -97 48 -288 152 -326 177 -22 15 -71 43 -110 63 -79 39 -170 128 -294 285 -46 58 -90 102 -118 119 l-45 26 -81 -7 c-45 -3 -122 -17 -172 -31 -111 -31 -189 -48 -325 -70 -66 -11 -142 -32 -204 -57 -55 -21 -142 -48 -195 -59 -53 -11 -127 -30 -166 -43 -38 -13 -118 -32 -177 -41 -59 -9 -147 -29 -195 -46 -198 -67 -265 -10 -313 266 -12 66 -32 169 -46 229 -27 117 -30 176 -26 440 l2 169 33 31 c62 58 168 87 357 96 91 5 199 14 240 20 45 8 125 10 200 8 166 -7 229 1 471 61 120 30 258 57 334 66 72 8 183 24 247 36 182 35 213 19 261 -141 65 -212 134 -315 299 -441 68 -52 159 -130 204 -175 133 -133 295 -214 564 -283 63 -16 147 -41 185 -55 88 -32 85 -32 235 5 l125 32 96 -7 c126 -8 183 4 364 74 83 32 169 64 193 71 102 30 168 133 248 388 98 310 121 365 167 396 42 27 179 34 562 28 486 -7 1399 5 1715 22 125 7 193 -7 222 -45 22 -30 58 -208 58 -286 0 -84 19 -186 51 -282 29 -85 62 -250 94 -460 29 -195 55 -207 326 -157 74 13 209 31 299 39 394 36 498 127 454 399 -13 75 -13 109 -4 182 7 60 7 107 1 140 -5 28 -15 88 -21 135 -6 47 -22 121 -34 165 -66 225 -43 247 306 281 90 8 228 29 308 46 119 25 182 32 355 38 116 5 242 14 280 20 45 7 131 9 240 5 l170 -7 85 21 c139 35 213 36 410 7 492 -71 490 -72 528 185 36 249 54 390 63 508 19 236 54 275 274 305 151 21 221 19 326 -8z"
       id="path4644" />
    <path
       fill="#bde4e4"
       stroke="none"
       d="M45595 7357 c-288 -16 -309 -44 -303 -395 l3 -197 23 -42 c32 -61 67 -76 161 -69 42 3 153 8 246 12 l170 6 125 -25 c219 -44 226 -36 279 303 67 428 83 407 -299 412 -146 1 -328 -1 -405 -5z"
       id="path4646" />
    <path
       fill="#a9e392"
       stroke="none"
       d="M46125 7260 c46 -7 66 -16 84 -37 l24 -27 -7 -71 c-3 -38 -14 -126 -25 -195 l-20 -125 -32 -29 -32 -28 -66 6 c-187 17 -338 18 -436 2 -195 -31 -210 -13 -210 250 l0 182 20 22 c11 12 31 27 45 32 58 23 540 37 655 18z"
       id="path4648" />
    <path
       fill="#bde4e4"
       stroke="none"
       d="M6258 7241 c-156 -40 -255 -174 -283 -380 -13 -95 -12 -570 1 -696 6 -66 15 -154 19 -195 32 -371 116 -617 244 -711 138 -102 265 -150 511 -194 l155 -28 64 17 c82 21 149 64 203 129 23 29 66 77 94 109 93 102 175 221 226 328 28 58 72 139 99 180 123 193 184 354 260 688 112 497 77 577 -296 670 -263 66 -531 93 -715 71 l-105 -12 -146 22 c-175 25 -242 26 -331 2z"
       id="path4650" />
    <path
       fill="#1f0a58"
       stroke="none"
       d="M6647 7136 c80 -11 126 -12 205 -5 78 7 134 6 241 -6 77 -8 161 -15 188 -15 96 0 362 -82 412 -128 57 -51 65 -138 30 -322 -12 -63 -29 -164 -38 -225 -37 -265 -97 -428 -243 -660 -38 -60 -86 -143 -107 -183 -21 -40 -72 -112 -114 -159 -42 -46 -100 -115 -129 -151 -88 -111 -122 -122 -305 -102 -387 41 -506 148 -624 563 l-38 132 0 540 0 540 23 66 c48 140 157 165 499 115z"
       id="path4652" />
    <path
       fill="#bde4e4"
       stroke="none"
       d="M9308 6884 c-42 -7 -118 -27 -170 -43 -51 -16 -168 -53 -261 -81 -326 -98 -352 -123 -311 -300 24 -105 30 -440 10 -587 -9 -67 -16 -148 -16 -180 -1 -188 -59 -336 -317 -798 -124 -223 -365 -482 -564 -607 -43 -27 -336 -147 -398 -162 -175 -45 -479 -8 -736 89 -140 53 -177 86 -236 209 -34 72 -59 96 -99 96 -38 0 -176 -82 -260 -155 -41 -36 -111 -91 -155 -122 -44 -32 -106 -83 -139 -114 l-58 -57 5 -44 c20 -161 114 -353 238 -483 52 -55 117 -128 143 -162 26 -33 84 -92 129 -129 117 -96 163 -141 303 -296 147 -161 163 -171 369 -218 364 -83 447 -73 812 100 299 141 386 195 523 325 47 44 105 96 130 115 186 143 319 293 387 437 25 54 64 124 86 158 23 33 70 125 104 205 104 240 78 234 669 168 203 -23 218 25 165 520 -37 333 -44 471 -46 822 -2 190 -7 379 -13 420 -35 240 -45 389 -39 589 8 306 -12 329 -255 285z"
       id="path4654" />
    <path
       fill="#a9e392"
       stroke="none"
       d="M9372 6756 c48 -11 59 -49 69 -250 8 -164 21 -311 48 -571 5 -49 9 -198 9 -330 0 -139 6 -320 16 -430 31 -367 38 -471 43 -595 l5 -125 -18 -23 c-34 -41 -83 -44 -347 -22 -133 11 -262 25 -287 31 -86 20 -115 -6 -131 -117 -13 -94 -107 -320 -173 -419 -30 -44 -76 -120 -102 -169 -63 -114 -167 -233 -286 -326 -51 -40 -127 -105 -168 -144 -185 -176 -643 -424 -825 -447 -207 -27 -485 31 -631 131 -59 42 -417 397 -583 579 -140 154 -190 232 -237 369 -55 159 -48 179 126 332 202 177 259 185 359 47 94 -130 236 -192 571 -253 170 -30 339 -36 420 -15 153 41 446 172 513 230 29 24 102 81 162 127 152 113 247 227 402 482 25 43 68 109 95 149 27 40 66 112 87 160 21 48 55 120 75 159 44 89 92 229 106 314 21 132 34 592 20 729 -19 190 -9 218 97 260 110 43 504 152 528 145 6 -1 22 -5 37 -8z"
       id="path4656" />
    <path
       fill="#bde4e4"
       stroke="none"
       d="M45955 5733 c-56 -8 -230 -56 -306 -85 -138 -52 -164 -103 -136 -265 9 -48 23 -151 32 -228 9 -77 25 -189 35 -250 l19 -110 -4 -360 c-4 -335 5 -547 31 -722 15 -103 61 -111 429 -73 245 25 305 28 365 20 171 -24 204 27 164 254 -14 77 -38 224 -55 326 -16 102 -48 271 -70 375 -59 284 -68 346 -79 510 -9 133 -18 227 -50 478 -10 76 -29 113 -66 127 -24 10 -247 11 -309 3z"
       id="path4658" />
    <path
       fill="#6ffb44"
       stroke="none"
       d="M46187 5598 c27 -28 33 -70 53 -383 8 -136 21 -223 65 -440 30 -148 59 -310 66 -360 6 -49 29 -159 50 -243 86 -343 74 -379 -129 -393 -64 -4 -194 -17 -289 -28 -314 -36 -303 -62 -304 714 0 269 -4 395 -14 460 -8 50 -26 167 -41 260 -44 283 -38 332 49 374 142 68 441 92 494 39z"
       id="path4660" />
    <path
       fill="#bde4e4"
       stroke="none"
       d="M36495 4789 c-27 -4 -142 -12 -255 -18 l-205 -9 -145 -37 c-80 -20 -211 -49 -293 -65 -148 -29 -268 -66 -429 -134 -48 -20 -133 -46 -190 -57 -57 -11 -126 -24 -155 -30 -121 -24 -145 -112 -103 -374 17 -102 20 -163 18 -328 -3 -251 18 -845 31 -912 19 -93 53 -787 55 -1145 l3 -275 22 -43 c17 -34 33 -49 69 -64 l47 -21 210 7 c253 8 494 29 630 56 216 41 340 47 910 40 328 -4 364 27 316 263 -26 130 -41 295 -41 454 0 67 -9 184 -19 260 -11 76 -27 244 -36 373 -30 442 -35 495 -54 595 -11 56 -23 169 -26 255 -4 85 -15 218 -26 295 -28 206 -49 470 -49 635 0 168 -10 212 -55 257 l-33 33 -73 -1 c-41 -1 -96 -5 -124 -10z"
       id="path4662" />
    <path
       fill="#14d385"
       stroke="none"
       d="M36632 4642 c16 -15 23 -41 29 -104 22 -210 42 -396 59 -541 11 -86 24 -235 30 -331 6 -96 19 -222 30 -281 21 -114 31 -226 55 -605 8 -129 24 -305 35 -390 11 -84 27 -295 35 -468 20 -415 33 -392 -225 -391 -85 1 -186 -3 -224 -9 -44 -7 -151 -9 -285 -5 l-216 6 -105 -21 c-271 -55 -787 -96 -852 -69 -68 28 -68 29 -88 597 -18 486 -30 715 -41 770 -6 30 -14 177 -19 325 -5 149 -14 428 -21 620 -24 622 -38 572 184 624 48 11 138 38 200 60 184 64 341 111 481 141 72 16 181 40 241 54 94 22 136 26 285 27 96 1 202 5 235 9 92 12 153 6 177 -18z"
       id="path4664" />
    <path
       fill="#bde4e4"
       stroke="none"
       d="M43370 4545 c-8 -2 -62 -8 -120 -15 -333 -36 -331 -34 -329 -284 0 -86 -2 -159 -5 -164 -7 -12 -21 -596 -17 -757 1 -87 -3 -184 -13 -255 -8 -63 -20 -207 -26 -320 -11 -214 -24 -376 -41 -520 -5 -47 -10 -247 -10 -445 0 -198 0 -451 -2 -561 l-2 -202 20 -22 c28 -31 53 -39 175 -56 58 -8 141 -21 185 -29 44 -8 112 -17 150 -21 133 -12 385 -54 502 -83 262 -66 424 -89 662 -97 246 -7 254 -5 288 59 l17 32 -4 345 c-6 430 -6 503 5 770 8 226 7 249 -45 660 -10 85 -24 223 -30 305 -6 97 -21 197 -41 285 -16 74 -39 214 -49 310 -10 96 -26 218 -34 270 -17 109 -36 380 -36 523 0 187 -14 197 -287 197 -103 0 -206 5 -229 10 -178 41 -613 83 -684 65z"
       id="path4666" />
    <path
       fill="#47b2e3"
       stroke="none"
       d="M43778 4425 c198 -34 309 -48 429 -53 l162 -8 25 -23 c33 -31 43 -86 56 -292 5 -91 21 -226 35 -300 13 -74 31 -201 40 -284 9 -82 29 -217 45 -298 17 -81 34 -210 40 -285 25 -337 32 -414 45 -527 23 -197 27 -342 15 -485 -7 -74 -14 -308 -16 -520 -4 -503 -4 -501 -151 -517 -186 -20 -336 -5 -532 53 -150 44 -271 67 -521 99 -404 53 -482 74 -516 142 l-19 38 2 235 c1 252 26 770 43 891 22 168 45 584 61 1129 6 201 14 412 19 470 4 58 8 187 9 287 1 247 -2 243 172 273 169 30 256 26 557 -25z"
       id="path4668" />
    <path
       fill="#bde4e4"
       stroke="none"
       d="M41014 4232 c-118 -64 -175 -103 -249 -172 -33 -31 -103 -89 -156 -128 -53 -39 -113 -90 -134 -113 l-37 -42 4 -66 c3 -41 23 -119 52 -206 26 -77 53 -184 62 -239 8 -54 28 -149 44 -210 16 -61 34 -165 40 -231 6 -66 17 -169 25 -230 7 -60 17 -175 20 -255 4 -80 11 -181 16 -225 5 -44 13 -187 19 -319 12 -309 20 -324 175 -334 109 -6 387 75 621 181 55 25 133 59 175 76 180 74 180 72 -26 649 -14 40 -36 126 -49 191 -15 78 -37 149 -65 210 -74 164 -200 665 -240 956 -7 44 -27 143 -45 220 -19 77 -39 171 -44 209 -21 138 -65 154 -208 78z"
       id="path4670" />
    <path
       fill="#eb6a06"
       stroke="none"
       d="M41085 4108 c18 -16 34 -49 51 -108 24 -78 39 -151 108 -515 50 -262 142 -593 209 -752 15 -34 36 -106 48 -160 12 -54 38 -144 59 -200 114 -302 151 -484 110 -536 -40 -50 -233 -137 -416 -186 -60 -16 -140 -41 -177 -55 -91 -35 -174 -36 -213 -3 l-27 24 -18 199 c-11 109 -25 336 -33 504 -8 168 -17 312 -20 320 -3 8 -15 92 -26 185 -12 94 -32 211 -45 260 -13 50 -26 115 -30 145 -11 101 -27 162 -60 239 -96 225 -76 308 110 445 40 31 103 82 139 114 109 99 180 123 231 80z"
       id="path4672" />
    <path
       fill="#bde4e4"
       stroke="none"
       d="M46326 2700 c-266 -30 -402 -71 -484 -144 -63 -57 -65 -73 -59 -370 5 -251 15 -352 51 -532 8 -44 20 -135 26 -204 27 -327 63 -531 98 -563 43 -39 186 -67 344 -67 35 0 113 -11 173 -25 203 -46 369 -46 425 1 41 35 45 73 21 198 -16 79 -21 146 -21 259 0 149 -11 359 -31 567 -5 58 -14 168 -20 245 -5 77 -16 185 -25 240 -8 55 -19 149 -24 209 -11 115 -26 158 -63 178 -27 15 -297 20 -411 8z"
       id="path4674" />
    <path
       fill="#a9e392"
       stroke="none"
       d="M46616 2578 c54 -29 76 -188 104 -753 6 -121 20 -292 30 -380 18 -154 33 -347 34 -448 2 -99 -83 -120 -306 -77 -66 13 -146 20 -223 21 -225 1 -234 12 -271 364 -8 83 -26 215 -39 295 -108 657 -91 893 68 946 160 53 529 73 603 32z"
       id="path4676" />
    <path
       fill="#bde4e4"
       stroke="none"
       d="M24055 2580 c-93 -4 -208 -14 -255 -23 -47 -9 -137 -21 -200 -27 -63 -6 -122 -13 -130 -15 -64 -19 -228 -37 -403 -45 -362 -16 -382 -34 -382 -345 0 -240 91 -534 200 -651 72 -76 252 -89 423 -30 57 19 139 42 183 51 45 9 106 25 137 36 30 10 108 28 171 39 64 11 158 29 209 40 51 11 153 27 227 35 291 32 568 201 615 374 64 238 -15 415 -225 506 -159 68 -184 71 -570 55z"
       id="path4678" />
    <path
       fill="#25566e"
       stroke="none"
       d="M24425 2490 c155 -22 261 -77 296 -153 22 -49 27 -243 8 -312 -34 -121 -224 -229 -458 -260 -68 -9 -184 -32 -258 -51 -74 -19 -180 -39 -235 -45 -56 -5 -134 -19 -172 -29 -39 -10 -98 -24 -131 -30 -33 -6 -96 -23 -140 -36 -172 -54 -327 -54 -381 0 -94 95 -183 562 -133 705 20 56 136 86 389 101 74 5 173 17 220 28 47 11 126 23 175 27 50 3 138 15 197 26 184 35 483 49 623 29z"
       id="path4680" />
    <path
       fill="#bde4e4"
       stroke="none"
       d="M5704 2255 c-44 -45 -117 -184 -149 -280 -10 -31 -22 -128 -31 -255 -8 -113 -19 -233 -25 -268 -27 -152 29 -198 271 -222 211 -20 306 -31 345 -40 237 -55 347 72 415 479 45 269 7 382 -138 411 -176 36 -265 70 -462 175 -67 36 -94 45 -134 45 l-49 0 -43 -45z"
       id="path4682" />
    <path
       fill="#14ead0"
       stroke="none"
       d="M5973 2135 c45 -19 141 -55 212 -81 264 -94 264 -95 204 -415 -62 -334 -108 -367 -444 -323 -191 24 -250 41 -280 76 -29 34 -28 17 -15 314 l9 221 27 84 c20 64 35 93 64 121 l38 38 52 0 c36 0 75 -10 133 -35z"
       id="path4684" />
    <path
       fill="#bde4e4"
       stroke="none"
       d="M8575 1854 c-38 -7 -120 -13 -181 -13 -76 -1 -135 -7 -189 -21 -168 -43 -256 -54 -581 -74 l-211 -13 -36 -22 c-55 -34 -79 -94 -85 -212 l-5 -98 26 -53 c36 -71 70 -92 239 -143 79 -24 156 -48 172 -54 73 -29 280 -53 526 -62 626 -23 609 -22 744 -5 81 11 178 16 265 14 l136 -3 35 21 c83 48 100 150 54 329 -14 55 -32 135 -39 179 -19 105 -38 135 -105 168 -135 66 -561 101 -765 62z"
       id="path4686" />
    <path
       fill="#eb6a06"
       stroke="none"
       d="M9128 1749 c85 -12 129 -29 158 -61 31 -34 33 -39 45 -124 6 -44 20 -117 30 -162 36 -150 17 -174 -145 -183 -61 -4 -181 -14 -266 -24 -126 -14 -190 -16 -340 -9 -102 4 -268 9 -370 9 -337 4 -754 105 -810 198 -63 102 -8 224 103 233 443 36 493 43 635 79 71 19 120 25 201 25 58 0 138 5 176 11 177 28 415 31 583 8z"
       id="path4688" />
    <path
       fill="#bde4e4"
       stroke="none"
       d="M17375 1815 c-71 -7 -193 -15 -270 -18 -334 -14 -513 -92 -555 -242 -64 -230 251 -547 519 -521 36 4 140 10 231 14 210 10 554 90 681 159 151 81 118 243 -96 460 -172 175 -188 179 -510 148z"
       id="path4690" />
    <path
       fill="#47b2e3"
       stroke="none"
       d="M17642 1706 c182 -54 362 -305 288 -399 -43 -54 -378 -146 -555 -152 -60 -3 -162 -7 -225 -11 -221 -12 -371 61 -450 219 -81 161 -18 276 177 324 112 27 690 42 765 19z"
       id="path4692" />
    <path
       fill="#bde4e4"
       stroke="none"
       d="M11225 1491 c-98 -25 -137 -93 -137 -238 0 -320 310 -420 686 -220 178 95 178 259 -1 359 -106 60 -456 123 -548 99z"
       id="path4694" />
    <path
       fill="#a9e392"
       stroke="none"
       d="M11506 1355 c324 -78 337 -215 28 -296 -186 -48 -333 35 -334 189 0 125 95 159 306 107z"
       id="path4696" />
  </g>
</svg>
