<?xml version="1.0" encoding="UTF-8" standalone="no"?>
<!-- Generator: Adobe Illustrator 24.0.1, SVG Export Plug-In . SVG Version: 6.00 Build 0)  -->

<svg
   xmlns:dc="http://purl.org/dc/elements/1.1/"
   xmlns:cc="http://creativecommons.org/ns#"
   xmlns:rdf="http://www.w3.org/1999/02/22-rdf-syntax-ns#"
   xmlns:svg="http://www.w3.org/2000/svg"
   xmlns="http://www.w3.org/2000/svg"
   xmlns:sodipodi="http://sodipodi.sourceforge.net/DTD/sodipodi-0.dtd"
   xmlns:inkscape="http://www.inkscape.org/namespaces/inkscape"
   version="1.1"
   id="svg893"
   inkscape:version="0.91 r13725"
   sodipodi:docname="2.svg"
   x="0px"
   y="0px"
   viewBox="0 0 498.2 498.2"
   style="enable-background:new 0 0 498.2 498.2;"
   xml:space="preserve"><metadata
     id="metadata8"><rdf:RDF><cc:Work
         rdf:about=""><dc:format>image/svg+xml</dc:format><dc:type
           rdf:resource="http://purl.org/dc/dcmitype/StillImage" /><dc:title></dc:title></cc:Work></rdf:RDF></metadata><defs
     id="defs6"><filter
       y="-0.2"
       height="1.4"
       inkscape:label="Torn Edges"
       inkscape:menu="Distort"
       inkscape:menu-tooltip="Displace the outside of shapes and pictures without altering their content"
       style="color-interpolation-filters:sRGB;"
       id="filter4409"
       width="1.4"
       x="-0.2"><feMorphology
         radius="7"
         operator="dilate"
         result="result8"
         in="SourceGraphic"
         id="feMorphology4411" /><feComposite
         in2="result8"
         result="result10"
         in="SourceGraphic"
         operator="arithmetic"
         k1="0.5"
         k3="0.5"
         id="feComposite4413" /><feTurbulence
         result="result11"
         type="fractalNoise"
         numOctaves="3"
         baseFrequency="0.07"
         id="feTurbulence4415" /><feDisplacementMap
         result="result12"
         in2="result11"
         in="result10"
         xChannelSelector="R"
         scale="10"
         id="feDisplacementMap4417" /><feComposite
         operator="arithmetic"
         result="fbSourceGraphic"
         in="SourceGraphic"
         in2="result12"
         k1="0.25"
         k2="0.25"
         k3="0.75"
         id="feComposite4419" /><feColorMatrix
         result="fbSourceGraphicAlpha"
         in="fbSourceGraphic"
         values="0 0 0 -1 0 0 0 0 -1 0 0 0 0 -1 0 0 0 0 1 0"
         id="feColorMatrix4421" /><feTurbulence
         id="feTurbulence4423"
         baseFrequency="0.05"
         numOctaves="5"
         type="fractalNoise"
         result="result91"
         in="fbSourceGraphic" /><feDisplacementMap
         id="feDisplacementMap4425"
         in2="result91"
         scale="25"
         result="result5"
         xChannelSelector="R"
         in="fbSourceGraphic" /><feComposite
         id="feComposite4427"
         in2="result5"
         in="fbSourceGraphic"
         operator="atop" /></filter></defs><sodipodi:namedview
     bordercolor="#666666"
     borderopacity="1"
     gridtolerance="10"
     guidetolerance="10"
     id="namedview895"
     inkscape:current-layer="svg893"
     inkscape:cx="284.50677"
     inkscape:cy="250.70803"
     inkscape:pageopacity="1"
     inkscape:pageshadow="2"
     inkscape:window-height="1033"
     inkscape:window-maximized="1"
     inkscape:window-width="1920"
     inkscape:window-x="-4"
     inkscape:window-y="-4"
     inkscape:zoom="1.2072495"
     objecttolerance="10"
     pagecolor="#ffffff"
     showgrid="false" /><g
     id="g891"
     transform="matrix(-0.048,0,0,0.048,498.24,0)"><path
       id="path885"
       d="M 0,10380 0,5190 0,0 l 5190,0 5190,0 0,5190 0,5190 -5190,0 -5190,0 z m 4235.2,-216 c 161.5,0.4 498.3,-3.5 634.8,-8 85,-3 220,-9 300,-13 80,-4 233,-4 340,0 285,12 620,11 740,-2 220,-25 690,-37 920,-23 147,8 392,8 685,0 168,-5 221,-3 265,8 30,9 67,13 82,10 26,-5 232,9 278,19 14,3 66,6 115,7 83,1 136,-4 315,-33 36,-5 166,-19 290,-29 124,-11 254,-22 290,-26 36,-3 76,-6 90,-6 451,1 437,2 442,-38 2,-14 6,-29 10,-35 3,-5 6,-73 7,-150 2,-77 4,-201 6,-275 14,-459 13,-477 -33,-482 -9,-1 -183,-2 -387,-3 -203,-1 -487,-7 -630,-14 -143,-6 -361,-14 -485,-17 -405,-8 -696,-24 -765,-42 -22,-6 -92,-13 -155,-16 -119,-7 -344,-17 -370,-17 -153,0 -426,-2 -460,-4 -25,-1 -133,-7 -240,-13 -107,-6 -341,-9 -520,-6 -694,10 -871,8 -925,-10 -53.4,-18.7 -115.7,-28.7 -180,-46 -22,-6 -62,-13 -89,-16 -80,-8.6 -187.8,-44.9 -289,-64 -53,-12 -122,-34 -153,-51 -64,-33.8 -75.1,-20.4 -151,-59 -31,-17 -78,-37 -105,-45 -26,-7 -58,-21 -70,-29 -20.8,-16.7 -36.2,-6.9 -79,-35 -104,-50.8 -211.1,-101 -322,-186 -38,-20 -84,-57 -105,-81 -105.6,-78.4 -280,-229.4 -386,-349 -85.2,-99.8 -175.2,-280.4 -252,-402 -30.8,-48 -21.6,-56.6 -54,-135 -79.9,-138.9 -119.4,-713.3 -81,-914 6,-21 13,-66 17,-98 68.5,-358.2 277.3,-779 651.4,-954.6 C 3769.7,5245.1 4180,5161 4476,5289 c 331.5,88.8 538.8,329.9 588,634 79.5,155 -36.2,505.2 -182,641 -18,26 -41,50 -50,53 -99.1,152.6 -445.6,166.4 -590.2,15.1 -27.7,-17.9 -45.4,-184.4 -55.8,-252.1 78.5,-105.6 226.1,-139.9 247.4,-244.8 34.6,-58.1 65.9,-50.7 5.6,-112.2 -18,-26 -77,-68 -110,-78 -13,-5 -30,-16 -37,-26 -53.1,-40.1 -142.6,-43.5 -223,-33 -41.1,-10.6 -125.4,47.1 -184,47 -38.8,-10.3 -70.7,43 -113,43 -11,-4 -23,-2 -27,5 -15.3,17 -145.3,71.1 -170,99 -11,12 -33,29 -50,37 -359.5,310.8 -442.2,412.4 -395,763 6,19 15,58 21,85 91.9,277.4 333.7,678.7 598,844 37.3,33.1 95.9,59.5 140,94 547.2,421.6 1009.4,480.1 1656,488 l 120,-21 c 202,-36 222,-41 350,-89 222,-82 339,-137 450,-212 39,-26 84,-53 100,-61 17,-7 63,-40 104,-73 40,-33 103,-82 139,-108 37,-26 78,-60 93,-75 56,-59 196,-188 221,-205 15,-9 43,-41 63,-70 19,-28 55,-77 79,-107 24,-30 72,-109 106,-175 35,-66 75,-142 90,-170 245,-455 300,-604 372,-1015 l 22,-125 0,-345 c -1,-190 -4,-370 -7,-400 -34.8,-274.9 -18.2,-203.4 -96,-514 -10,-23 -21,-52 -24,-66 -29,-134 -43,-184 -68,-242 -16,-36 -29,-72 -29,-79 -8.7,-14.6 12.9,4 -108,-233 -10,-12 -27,-43 -37,-71 -19,-50 -87,-158 -130,-205 -19,-21 -41,-53 -90,-129 -10,-16 -73,-97 -147,-189 -34,-43 -166,-186 -218,-237 -6,-5 -50,-49 -98,-96 -48,-47 -123,-116 -167,-152 -44,-37 -94,-80 -110,-97 -46.2,-24.4 39.6,4.5 -396,-279 -117.7,-76.9 -305.8,-167.6 -544,-315 -33,-20 -107,-59 -165,-87 -58,-28 -116,-57 -130,-64 -17,-12.6 -0.3,9.9 -110,-40 -21.5,-14.9 5.7,0.8 -172,-82 -29,-16 -73,-35 -98,-43 -25,-8 -63,-25 -85,-37 -28.7,-17.2 10.5,7.1 -99,-38 -513.3,-147.8 -613.1,-258.9 -1847,-440 -47.5,-35.7 -858.4,-54.3 -1052,-70 -149,-13.4 -98.3,-18.4 -498,-6 -31.3,-3 -16,-13 -318,34 -77.3,7.9 -220.1,33.5 -354,50 -54.3,-0.4 -24.1,-10.7 -142,31 -28,14 -72,30 -98,37 -71,18 -88,70 -90,274 -2,368 7,1469 14,1590 8,144 3,227 -20,375 -6,38 -12,353 -15,755 -11,1686 -12,1745 -29,1920 -16,157 -21,249 -31,505 -2,52 -7,169 -11,260 -15,326 -21,2818 -7,2832 7,6 519,13 552,8 29,-5 596,12 643,20 26,4 59,5 72,2 14,-2 44,0 68,6 23,6 98,14 167,17 69,4 129,10 135,13 5,3 82,7 170,8 295,4 858,39 1090,68 83,10 258,17 569,20 247,3 450,7 452,8 1,1.3 35.4,1.9 89.2,2 z m 4845,-1506.1 c 180.3,-1.2 547.8,-10.4 649.8,-17.9 80,-6 192,-13 250,-16 146,-8 138,-1 143,-147 2,-67 9,-142 15,-167 10,-39 27,-317 23,-375 -1,-11 -1,-81 0,-155 1,-74 2,-164 2,-200 0,-36 -3,-229 -7,-430 -10,-497 -9,-848 3,-889 6,-19 8,-38 5,-43 -3,-5 -7,-106 -10,-225 -2,-119 -9,-232 -15,-250 -6,-19 -8,-40 -5,-48 5,-15 7,-112 6,-385 -1,-96 2,-305 5,-465 4,-159 7,-297 7,-305 1,-79 -12,-391 -16,-399 -14,-22 -26,-122 -31,-250 -3,-75 -9,-149 -14,-166 -5,-16 -15,-131 -21,-255 -7,-124 -14,-229 -17,-233 -3,-5 -7,-59 -9,-120 -2,-62 -6,-125 -9,-142 -4,-29 -19,-344 -17,-375 1,-8 4,-127 7,-265 3,-137 8,-270 9,-295 2,-25 8,-95 14,-156 5,-62 7,-154 5,-205 -2,-52 3,-154 11,-228 11,-91 12,-139 5,-152 -5,-10 -10,-51 -10,-91 -1,-40 -5,-80 -9,-89 -5,-9 -11,-72 -13,-140 -3,-68 -7,-131 -10,-139 -10,-25 -17,-110 -16,-190 0,-50 -5,-86 -15,-105 -20,-38 -20,-69 0,-100 39,-59 -14,-104 -116,-98 -36,2 -135,6 -220,8 -85,2 -191,9 -235,15 -44,6 -132,9 -195,7 -63,-3 -176,-7 -250,-9 -74,-3 -160,-8 -190,-12 -30,-4 -71,-7 -90,-7 -19,0 -69,-4 -110,-9 -89,-12 -239,-22 -294,-21 -22,0 -58,-4 -80,-10 -49,-13 -274,-20 -676,-20 -273,-1 -358,2 -560,16 -70,6 -151,8 -227,6 l -55,0 c -13,1 -212,-2 -443,-5 -499,-6 -416,-6 -560,-1 -66,3 -194,7 -284,11 -91,3 -172,9 -180,13 -17,10 -262,8 -277,-2 -16,-10 -262,-18 -484,-17 -314,3 -318,3 -525,-5 -382,-13 -539,-13 -670,2 -71,8 -172,17 -224,19 -52,3 -102,9 -110,13 -37,19 -704,3 -875,-20 -44,-6 -103,-13 -131,-15 -27,-2 -75,-8 -105,-15 -30,-6 -79,-11 -109,-10 -30,0 -60,-4 -67,-10 -7,-5 -54,-10 -106,-10 -51,0 -99,-4 -106,-8 -8,-4 -32,-4 -55,2 -23,5 -73,10 -112,11 -38,1 -99,5 -135,9 -71,8 -203,15 -405,21 -382,13 -369,8 -364,151 1,22 -1,124 -3,227 -5,190 -1,221 24,201 7,-6 38,-13 68,-16 30,-3 134,-15 230,-26 96,-11 225,-23 285,-26 254,-13 284,-15 310,-25 18,-7 39,-7 59,-1 17,5 85,12 151,16 66,3 145,8 175,10 30,2 157,8 283,13 125,6 243,16 262,22 19,6 39,9 44,6 5,-4 31,-2 58,4 41,8 195,25 338,36 69,5 197,25 286,45 48,10 99,19 115,19 16,0 61,7 100,15 89,18 203,37 228,36 10,0 73,13 140,30 66,16 153,36 191,45 39,8 93,22 120,29 28,8 70,19 95,24 90,21 227,60 300,86 41,14 89,30 105,34 17,4 45,15 62,25 30,15 103,42 378,141 118,42 186,70 265,107 144,68 543,269 578,292 21,13 71,40 111,60 41,20 104,56 141,81 37,25 72,45 78,45 6,0 32,17 59,38 77,59 111,82 123,82 12,0 100,57 146,94 18,14 34,26 38,26 3,0 27,15 53,33 27,19 55,37 63,40 51,22 378,269 505,382 61,54 133,115 161,136 29,21 108,98 175,171 119,128 146,160 246,293 267,357 243,319 349,540 88,184 145,347 233,665 26,95 58,290 65,400 3,47 10,132 16,190 6,58 12,161 15,230 3,69 10,224 16,345 l 11,220 -26,205 c -45,352 -115,621 -240,929 -14,36 -26,71 -26,78 0,8 -18,51 -39,96 -22,45 -54,114 -72,152 -85,183 -229,423 -283,474 -14,14 -26,29 -26,34 0,11 -23,35 -198,212 -71,72 -150,146 -176,165 -26,19 -68,52 -93,72 -26,20 -74,51 -107,69 -34,17 -68,37 -76,44 -8,7 -46,30 -85,50 -38,21 -78,45 -88,53 l -18,16 18,6 c 10,4 95,8 188,8 384,4 658,14 790,28 244,25 793,60 1140,71 94,3 172,7 174,9 1.8,1.8 41.1,2.3 101.2,1.9 z"
       inkscape:connector-curvature="0" /></g><g
     id="g4138"
     transform="matrix(0.0583489,0,0,-0.0583489,12.1437,419.23986)" /></svg>