<?xml version="1.0" encoding="UTF-8" standalone="no"?>
<svg
   xmlns:dc="http://purl.org/dc/elements/1.1/"
   xmlns:cc="http://creativecommons.org/ns#"
   xmlns:rdf="http://www.w3.org/1999/02/22-rdf-syntax-ns#"
   xmlns:svg="http://www.w3.org/2000/svg"
   xmlns="http://www.w3.org/2000/svg"
   xmlns:sodipodi="http://sodipodi.sourceforge.net/DTD/sodipodi-0.dtd"
   xmlns:inkscape="http://www.inkscape.org/namespaces/inkscape"
   version="1.0"
   width="498.240000pt"
   height="498.240000pt"
   viewBox="0 0 498.240000 498.240000"
   preserveAspectRatio="xMidYMid meet"
   id="svg1056"
   sodipodi:docname="A.svg"
   inkscape:version="0.91 r13725">
  <defs
     id="defs1060" />
  <sodipodi:namedview
     pagecolor="#ffffff"
     bordercolor="#666666"
     borderopacity="1"
     objecttolerance="10"
     gridtolerance="10"
     guidetolerance="10"
     inkscape:pageopacity="0"
     inkscape:pageshadow="2"
     inkscape:window-width="1920"
     inkscape:window-height="1033"
     id="namedview1058"
     showgrid="false"
     inkscape:zoom="0.85365434"
     inkscape:cx="346.54062"
     inkscape:cy="312.44191"
     inkscape:window-x="-4"
     inkscape:window-y="-4"
     inkscape:window-maximized="1"
     inkscape:current-layer="svg1056" />
  <metadata
     id="metadata1040">
Created by potrace 1.12, written by Peter Selinger 2001-2015
<rdf:RDF>
  <cc:Work
     rdf:about="">
    <dc:format>image/svg+xml</dc:format>
    <dc:type
       rdf:resource="http://purl.org/dc/dcmitype/StillImage" />
    <dc:title></dc:title>
  </cc:Work>
</rdf:RDF>
</metadata>
  <g
     transform="matrix(-0.048,0,0,0.048,498.24023,2.325e-4)"
     id="g1054"
     style="fill:#000000;stroke:none">
    <path
       style="fill:#000000;stroke:none;stroke-width:0.064"
       d="m 0,0 0,332.16016 0,332.16015 332.16016,0 332.16015,0 0,-332.16015 L 664.32031,0 332.16016,0 0,0 Z m 549.21094,13.521484 c 7.78371,0.0956 17.77184,0.992828 31.58984,2.798828 8.128,1.088005 28.92688,2.432407 42.04688,2.816407 l 15.16796,0.382812 1.79297,1.34375 c 3.264,2.432 3.39108,3.264219 3.45508,21.824219 0,9.408 0.25617,19.457433 0.57617,22.273438 0.32,2.816 0.76894,10.238218 0.96094,16.574218 0.192,6.272 0.63899,12.608078 0.95899,14.080078 0.896,4.096 1.92054,12.736536 2.56054,22.144536 0.32,4.736 1.08802,10.94376 1.66407,13.75976 1.536,7.232 1.79081,57.85655 0.38281,66.56055 -0.64,3.712 -0.89453,9.79125 -0.89453,17.2793 0.448,56.192 0.32028,72.70532 -0.51172,79.36132 -0.448,3.84 -0.89694,12.92816 -0.96094,20.16016 0,7.232 -0.38403,20.28669 -0.83203,29.05469 -0.64,13.568 -0.57664,16.51153 0.19141,19.51953 1.472,5.824 1.6009,41.66398 0.1289,51.58398 -0.96,6.592 -1.02462,10.43391 -0.64062,26.75391 0.384,19.328 0.32022,20.92711 -2.17578,36.28711 -0.57605,3.52 -1.02435,11.51936 -1.15235,18.94336 -0.256,16.64 -0.89551,18.30426 -7.10351,19.07226 -1.408,0.192 -8.38324,1.21624 -15.61524,2.24024 -7.232,1.088 -17.60101,2.49567 -23.04101,3.26367 -5.44,0.768 -14.9751,2.4963 -21.11915,3.9043 -16.704,3.84 -22.27223,4.86393 -34.24023,6.33593 -5.952,0.704 -12.48039,1.59993 -14.40039,1.91993 -32.128,5.312 -82.94314,6.84753 -117.11914,3.51953 -5.12,-0.512 -12.16164,-1.0873 -15.68164,-1.2793 -3.52,-0.192 -8.83184,-0.51262 -11.83984,-0.64062 -3.00805,-0.19205 -10.30432,-0.51113 -16.32032,-0.70313 -5.952,-0.192 -12.28612,-0.44817 -14.07812,-0.57617 -1.728,-0.128 -6.08156,-0.38463 -9.60156,-0.64063 -3.52005,-0.192 -9.98244,-0.63898 -14.39844,-0.95898 -4.416,-0.32 -11.00871,-0.76894 -14.72071,-0.96094 -3.712,-0.192 -9.02384,-0.63898 -11.83984,-0.95898 -2.816,-0.32 -12.60772,-0.89725 -21.75977,-1.28125 -9.152,-0.384 -17.66485,-0.83099 -18.88085,-0.95899 -1.216,-0.128 -4.54338,-0.38462 -7.35938,-0.64062 -2.816,-0.256 -5.95301,-0.51263 -7.04101,-0.64063 -1.02405,-0.064 -8.256,-1.02333 -16,-2.11133 -7.74405,-1.088 -19.26361,-2.3035 -25.59961,-2.6875 -6.336,-0.384 -15.23185,-1.21696 -19.83985,-1.79296 -5.824,-0.768 -11.8397,-1.02254 -20.0957,-0.89454 -17.856,0.256 -18.62413,-0.2565 -19.32813,-13.3125 -0.256,-4.416 -0.76834,-12.15929 -1.15234,-17.27929 -0.32,-5.12 -0.83144,-13.31224 -1.02344,-18.24024 -0.192,-4.928 -0.44862,-10.56047 -0.64062,-12.48047 -0.576,-7.488 -1.47192,-21.82368 -1.91992,-31.67968 -0.192,-4.224 -0.51263,-8.96055 -0.64063,-10.56055 -0.128,-1.6 -0.44667,-6.33655 -0.63867,-10.56055 -0.192,-4.224 -0.44863,-9.27922 -0.64063,-11.19922 -0.768,-9.024 -0.95929,-11.58493 -1.27929,-16.96093 -0.256,-3.2 -0.76925,-9.21546 -1.28125,-13.43946 -0.512,-4.224 -1.0233,-9.85646 -1.2793,-12.48046 -0.192,-2.62405 -0.96006,-9.40707 -1.66406,-15.03907 -0.704,-5.632 -1.72824,-14.01654 -2.24024,-18.56054 -0.512,-4.608 -1.47178,-12.3513 -2.17578,-17.2793 -6.4,-45.76 -8.95976,-93.44024 -5.75976,-106.24024 2.048,-8.256 8.06468,-25.60021 10.30468,-29.82421 3.328,-6.208 9.27919,-10.55922 26.36719,-19.19922 12.224,-6.208 12.86428,-6.40102 23.48828,-7.04102 5.12,-0.256 12.03138,-0.89661 15.35938,-1.47266 5.248,-0.832 17.08808,-1.15143 38.08008,-1.02343 21.248,0.128 77.43934,-0.12681 78.52734,-0.38281 0.832,-0.12805 11.96953,-0.38418 24.76953,-0.57618 12.8,-0.128 25.60002,-0.64139 28.41602,-1.02539 3.2,-0.448 8.06296,-0.57481 12.54296,-0.38281 7.04005,0.384 21.31171,-0.51328 33.34376,-2.11328 2.624,-0.32 8.25646,-0.63867 12.48046,-0.63867 4.224,0 11.456,-0.32063 16,-0.64063 4.608,-0.32 11.20071,-0.76698 14.72071,-0.95898 3.52,-0.192 8.70353,-0.64094 11.51953,-0.96094 2.816,-0.384 7.80722,-0.64062 11.19922,-0.64062 3.328,-4e-5 9.85639,-0.31913 14.40039,-0.70313 12.8,-1.088 23.93623,0.6397 26.24023,4.0957 2.816,4.352 3.52049,91.84014 0.89649,119.74414 -0.32,3.84 -0.44786,9.28016 -0.25586,12.16016 0.768,10.688 0.76786,18.43097 0.25586,60.54297 -0.64,52.032 -1.08747,70.01711 -1.85547,78.78516 -0.32,3.648 -0.57663,9.02279 -0.64063,11.96679 0,5.568 -0.70517,7.80883 -3.20117,10.04883 l -1.40625,1.2793 -19.96875,-0.0625 c -19.136,-0.128 -42.17622,-0.89774 -61.82422,-2.17774 -5.12,-0.32 -16.06431,-0.76739 -24.32031,-1.02344 -8.256,-0.192 -16.0633,-0.44817 -17.2793,-0.57617 -1.216,-0.128 -7.8727,-0.38267 -14.7207,-0.63867 -18.368,-0.576 -31.87161,-1.47286 -41.59961,-2.88086 -4.736,-0.64 -12.35294,-1.66423 -16.96094,-2.24023 -17.536,-2.24 -20.03097,-3.32861 -28.54297,-12.22461 -11.776,-12.288 -16.7037,-21.82397 -20.0957,-39.16797 l -1.59961,-8.0625 0.0625,-25.60156 c 0.192,-47.616 1.66549,-55.93575 11.52149,-65.34375 6.592,-6.336 20.47965,-11.00714 38.84765,-13.11914 3.392,-0.384 10.55864,-1.66396 15.80664,-2.75196 l 9.60156,-2.04882 20.16016,0.0645 c 38.784,0.128 46.84797,3.00829 55.16797,19.90429 l 1.98242,4.03126 0.51367,11.00781 c 0.512,10.56 0.76807,13.95375 1.66407,22.59375 0.448,4.416 0.38309,12.79818 -0.12891,15.74218 -0.96,5.44005 -2.36808,6.08071 -14.08008,6.72071 -19.392,1.088 -19.71225,0.96011 -22.65625,-9.08789 -2.368,-8.256 -4.7352,-9.79192 -14.7832,-9.91992 -11.712,-0.192 -12.86516,2.0485 -14.78516,29.3125 -1.728,25.28 3.64853,29.56762 38.14453,30.01562 15.616,0.256 25.40766,0.95891 38.84766,2.87891 6.784,0.96 11.45653,0.70533 14.14453,-0.63867 3.84,-1.98405 8.76824,-5.95277 10.24024,-8.38477 l 1.34375,-2.24023 0.1289,-19.19922 c 0.064,-10.56 0.25527,-20.0971 0.44727,-21.1211 0.192,-1.088 0.51112,-5.63178 0.70312,-10.17578 0.256,-4.48 0.51263,-8.38267 0.64063,-8.63867 0.576,-0.896 1.08729,-13.69614 1.27929,-31.74414 0.128,-10.56 0.44863,-19.90478 0.64063,-20.80078 0.192,-0.896 0.44772,-6.20785 0.51172,-11.83985 l 0.1289,-10.24023 -1.5371,-3.19922 c -3.39205,-6.848 -5.31099,-7.23169 -32.95899,-7.67969 -22.464,-0.32 -38.59294,-0.8322 -40.96094,-1.4082 -1.984,-0.448 -84.92815,-1.08848 -116.16015,-0.89648 l -27.83985,0.1289 -2.17578,1.08789 c -1.216,0.576 -2.81553,1.91891 -3.51953,2.87891 l -1.34375,1.79297 -0.38477,32.44726 c -0.448,32.32 -0.9596,52.7996 -1.5996,61.1836 -1.152,14.4 -1.60018,88.32037 -0.57618,89.98437 0.128,0.256 0.44863,7.61677 0.64063,16.38477 0.704,26.112 0.19169,25.53515 23.67969,25.53515 8.448,0 17.66446,-0.19126 20.48046,-0.44726 7.48805,-0.64 38.39969,-0.83186 47.67969,-0.25586 23.232,1.408 36.5431,2.43184 47.8711,3.83984 6.912,0.896 17.21565,1.72838 22.84765,1.98438 5.632,0.192 14.017,0.70389 18.625,1.08789 6.336,0.512 9.85671,0.51109 14.72071,-0.12891 14.72,-1.792 50.68653,-1.1512 64.89453,1.2168 2.304,0.384 8.19309,0.70312 13.12109,0.70312 4.928,0 11.83892,0.44894 15.29492,0.96094 11.2,1.664 15.04125,0.95942 17.28125,-3.39258 1.216,-2.368 1.21527,-2.11231 0.44727,-32.32031 -0.384,-17.088 -0.384,-27.96698 0,-32.95898 0.384,-4.16 0.76803,-21.4413 0.83203,-38.5293 0.128,-17.088 0.38462,-35.39067 0.64062,-40.63867 0.192,-5.312 0.51113,-16.064 0.70313,-24 0.192,-7.936 0.44862,-17.72972 0.64062,-21.76172 0.192,-4.032 0.44863,-15.99855 0.64063,-26.5586 0.192,-10.56 0.51067,-20.48007 0.63867,-22.08007 0.128,-1.6 0.44863,-7.80822 0.64063,-13.82422 0.192,-6.016 0.44862,-11.58447 0.64062,-12.48047 0.448,-2.752 1.79105,-35.776 2.62305,-64 0.704,-24.896005 -0.19269,-26.111782 -18.30469,-26.175782 -4.416,0 -12.1593,-0.447437 -17.2793,-1.023437 -9.792,-1.024 -29.82345,-0.897188 -45.43945,0.382812 -4.032,0.32 -11.96761,0.89725 -17.59961,1.28125 -5.632,0.384 -14.14486,1.215922 -18.88086,1.919922 -4.736,0.704 -13.37522,1.854594 -19.19922,2.558594 -5.824,0.704 -13.88792,1.665731 -17.91992,2.177731 -8.448,1.088 -18.49733,1.91967 -39.36133,3.26367 -8.064,0.51205 -18.43106,1.21561 -23.03906,1.59961 -8.32,0.704 -13.12039,0.95961 -30.40039,1.59961 -5.12,0.192 -10.30353,0.51308 -11.51953,0.70508 -5.504,0.768 -14.39977,1.3427 -21.75977,1.4707 -4.416,0.064 -17.6654,0.38508 -29.4414,0.70508 -11.776,0.384 -27.77553,0.76699 -35.51953,0.95899 -7.744,0.192 -17.79239,0.76775 -22.40039,1.34375 -22.65605,2.624 -30.84738,3.39239 -39.35938,3.64844 -7.936,0.32 -20.03177,1.66506 -37.75977,4.28906 -8.25598,1.216 -10.048913,4.03184 -12.544918,19.83984 -1.984,12.48 -0.895484,66.81483 1.728516,84.79883 0.32,2.432 0.896797,7.80784 1.216797,11.83984 0.768,9.984 4.991315,51.90463 5.695315,56.64063 0.32,2.112 0.76739,6.27125 1.02344,9.2793 0.192,3.008 0.76924,8.00117 1.28124,11.20117 0.44805,3.136 1.0233,7.74423 1.2793,10.24023 0.768,9.024 1.08722,11.1353 3.19922,25.2793 1.984,13.312 2.75309,19.96753 5.12109,43.51953 3.264,31.744 3.71094,40.06431 3.71094,64.32031 l 0,17.2793 -1.72656,6.40039 c -6.08,22.656 -19.200824,35.64761 -42.048829,41.59961 -35.456,9.28 -45.374812,11.00876 -48.382812,8.38476 L 24,530.04883 23.552734,512.19141 c -0.512,-19.84 -2.561031,-57.85471 -3.457031,-65.47071 -0.192,-1.6 -0.511125,-14.8494 -0.703125,-29.4414 -0.128,-14.592 -0.383719,-37.24824 -0.511719,-50.24024 -0.192,-13.248 -0.70525,-28.86353 -1.28125,-35.51953 -0.896,-10.944 -1.344031,-47.74369 -0.832031,-71.67969 0.064,-4.032 -0.382984,-15.16862 -0.958984,-24.64062 -1.216,-18.816 -1.536375,-42.04741 -1.984375,-144.191408 l -0.25586,-62.912109 1.535157,-1.791015 c 2.176,-2.624005 2.496323,-2.625313 36.736328,-2.945313 28.224,-0.256 35.840801,-0.576234 52.800776,-2.240234 3.52005,-0.384 12.47985,-0.959297 19.83985,-1.279297 34.496,-1.6 40.51247,-1.920406 52.48047,-2.816406 7.04,-0.576005 15.42259,-1.342563 18.55859,-1.726563 12.288,-1.536 106.62509,-2.112031 141.12109,-0.832031 7.16805,0.256 18.04649,0.06323 27.64649,-0.384766 16,-0.832 17.7925,-0.832703 45.3125,1.279297 11.008,0.896 46.40078,1.088766 60.80078,0.384766 8.256,-0.384 15.616,-0.320594 24,0.191406 8.64,0.576 14.14291,0.576906 18.87891,0.128906 3.712,-0.32 9.91976,-0.833386 13.75976,-1.025391 3.904,-0.256 9.08949,-0.703437 11.52149,-1.023437 2.256,-0.272 4.70731,-0.436328 7.44531,-0.486328 1.02675,-0.01875 2.09312,-0.02147 3.20508,-0.0078 z M 53.285156,233.38477 c -1.181765,-0.0424 -2.38064,0.12715 -3.55664,0.53515 -5.568,1.92 -6.40008,4.80081 -6.080078,21.63281 0.256,16.192 1.022593,17.53579 10.558593,18.17579 6.336,0.448 9.409905,-0.6403 10.753907,-3.9043 1.088,-2.496 0.766781,-20.67133 -0.449219,-26.11133 -1.3,-5.98 -6.105578,-10.1443 -11.226563,-10.32812 z m 4.960938,87.18359 c -2.4285,-0.012 -4.861516,0.39911 -6.853516,1.28711 -5.184,2.368 -5.569234,4.6723 -4.865234,27.9043 l 0.511718,16.64062 1.28125,2.24023 c 2.752003,4.80003 8.000094,5.95171 18.496094,4.09571 9.024,-1.536 10.623047,-2.81677 10.623047,-8.38477 0,-3.2 -1.534594,-13.18372 -2.558594,-16.51172 -0.32,-1.088 -0.704031,-2.81584 -0.832031,-3.83984 -1.472,-9.792 -3.841719,-17.9197 -5.761719,-20.0957 -1.96,-2.12 -5.993515,-3.31594 -10.041015,-3.33594 z m 16.78125,89.84375 c -2.43544,0.0403 -5.468375,0.55128 -9.234375,1.36328 -17.408,3.712 -19.136969,6.46447 -17.792969,28.48047 1.088,18.304 2.047031,22.14445 6.207031,24.06445 l 2.240235,1.08789 9.345703,-1.53711 c 17.216,-2.88 17.85414,-3.83925 18.49414,-28.03125 0.5,-19.7 -0.561767,-25.57148 -9.259765,-25.42773 z M 638.42383,551.11133 c 1.88,-0.04 3.07936,0.40794 3.94336,1.33594 2.24,2.432 3.45773,23.6165 2.17773,37.3125 -0.448,4.224 -1.0257,11.96729 -1.3457,17.27929 -1.792,30.016 -2.36717,33.47363 -5.95117,35.26563 -2.368,1.216 -21.56821,0.95878 -33.40821,-0.44922 -5.952,-0.704 -32.51278,-0.0641 -44.80078,1.08789 -1.728,0.128 -10.36676,0.83356 -19.13476,1.60156 -8.832,0.704 -16.25613,1.47011 -16.57618,1.66211 -1.024,0.64 -59.07181,0.76891 -67.00781,0.12891 -9.408,-0.768 -15.04008,-0.83113 -62.08008,-0.70313 -25.28,0.064 -40.12753,-0.12803 -51.51953,-0.83203 -11.84,-0.704 -18.17631,-0.76831 -24.32031,-0.32031 -8.576,0.576 -72.83301,1.6627 -95.04101,1.4707 -7.04005,0 -18.75136,-0.63825 -26.94336,-1.40625 -25.984,-2.432 -71.42382,-0.51292 -83.00782,3.45508 -2.752,0.96 -25.855731,1.02445 -36.927731,0.0644 C 69.824469,647.48845 56.96,646.78439 48,646.40039 c -26.816,-1.088 -24.319891,2.17506 -25.087891,-32.96094 -0.896,-41.216 -0.767176,-41.66314 18.048829,-45.11914 4.032,-0.768 10.750156,-2.24117 14.910156,-3.20117 6.656,-1.664 11.584906,-2.36798 24.128906,-3.58398 7.296,-0.704 14.143215,-1.66235 27.19922,-3.90235 l 13.4414,-2.30469 22.08008,-0.25585 c 36.032,-0.384 45.82292,-0.25688 55.29492,0.70312 4.99205,0.512 12.48108,1.15175 16.70508,1.34375 10.56,0.512 19.64714,1.40886 29.11914,2.88086 7.488,1.088 17.34502,2.04886 31.04102,2.88086 3.2,0.192 6.784,0.51112 8,0.70312 1.216,0.128 6.97483,0.57649 12.79883,0.89649 11.072,0.64 12.35293,0.76823 32.96093,2.24023 16.64005,1.152 23.55107,1.47192 39.03907,1.91992 7.04,0.19205 15.10392,0.51068 17.91992,0.63868 2.816,0.192 9.4727,0.44862 14.7207,0.64062 10.048,0.384 26.23914,1.27978 37.11914,2.17578 3.52,0.32 15.42364,0.57663 26.43164,0.64063 20.352,0.128 23.80946,-0.12872 50.68946,-3.13672 6.144,-0.704 16.83168,-1.85655 23.67968,-2.56055 20.928,-2.112 34.81583,-3.77437 39.42383,-4.73437 2.432,-0.512 8.76763,-1.53669 14.01563,-2.30469 13.376,-1.92 32.2567,-5.44083 38.7207,-7.29688 3.584,-1.024 6.14344,-1.55179 8.02344,-1.59179 z"
       transform="matrix(15.625,0,0,-15.625,0,10380)"
       id="path1042"
       inkscape:connector-curvature="0" />
  </g>
</svg>
