<?xml version="1.0" encoding="UTF-8" standalone="no"?>
<svg
   xmlns:dc="http://purl.org/dc/elements/1.1/"
   xmlns:cc="http://creativecommons.org/ns#"
   xmlns:rdf="http://www.w3.org/1999/02/22-rdf-syntax-ns#"
   xmlns:svg="http://www.w3.org/2000/svg"
   xmlns="http://www.w3.org/2000/svg"
   xmlns:sodipodi="http://sodipodi.sourceforge.net/DTD/sodipodi-0.dtd"
   xmlns:inkscape="http://www.inkscape.org/namespaces/inkscape"
   version="1.0"
   width="498.240000pt"
   height="498.240000pt"
   viewBox="0 0 498.240000 498.240000"
   preserveAspectRatio="xMidYMid meet"
   id="svg1225"
   sodipodi:docname="D.svg"
   inkscape:version="0.91 r13725">
  <defs
     id="defs1229" />
  <sodipodi:namedview
     pagecolor="#ffffff"
     bordercolor="#666666"
     borderopacity="1"
     objecttolerance="10"
     gridtolerance="10"
     guidetolerance="10"
     inkscape:pageopacity="0"
     inkscape:pageshadow="2"
     inkscape:window-width="1920"
     inkscape:window-height="1033"
     id="namedview1227"
     showgrid="false"
     inkscape:zoom="1.2072495"
     inkscape:cx="160.11814"
     inkscape:cy="340.37554"
     inkscape:window-x="-4"
     inkscape:window-y="-4"
     inkscape:window-maximized="1"
     inkscape:current-layer="svg1225" />
  <metadata
     id="metadata1201">
Created by potrace 1.12, written by Peter Selinger 2001-2015
<rdf:RDF>
  <cc:Work
     rdf:about="">
    <dc:format>image/svg+xml</dc:format>
    <dc:type
       rdf:resource="http://purl.org/dc/dcmitype/StillImage" />
    <dc:title></dc:title>
  </cc:Work>
</rdf:RDF>
</metadata>
  <g
     transform="matrix(0,0.048,0.048,0,2.325e-4,0)"
     id="g1223"
     style="fill:#000000;stroke:none">
    <path
       style="fill:#000000;stroke:none;stroke-width:0.064"
       d="m 0,0 0,332.16016 0,332.16015 332.16016,0 332.16015,0 0,-332.16015 L 664.32031,0 332.16016,0 0,0 Z m 375.03906,14.847656 c 1.216,-0.064 7.29741,0.192172 13.44141,0.576172 10.048,0.64 16.25608,0.704313 22.08008,0.320313 1.024,-0.064 2.68648,0.255125 3.64648,0.703125 1.408,0.704 5.88933,0.833672 23.36133,0.513672 32.704,-0.576009 36.09541,-0.576141 48.19141,0.255859 6.144,0.448 29.50384,1.02375 51.83984,1.34375 22.336,0.256 48.44792,0.89575 57.91992,1.34375 9.536,0.448 23.2333,0.704625 30.5293,0.640625 l 13.18359,-0.19336 0.70313,2.431641 c 0.832,3.264 1.98437,22.465109 1.98437,33.537109 0,5.376009 0.32049,9.727532 0.89649,11.519532 0.448,1.6 0.7038,3.712781 0.51171,4.800781 -0.448,2.24 -0.44754,2.751297 0.0645,17.279297 0.384,11.327998 1.40764,20.863658 2.43164,22.847658 0.96,1.792 1.92009,20.15971 2.49609,46.5918 0.32,16.32 0.7033,24.83254 1.2793,26.56054 0.704,2.304 0.57614,10.3672 -0.25586,14.7832 -0.256,1.28009 -1.3433,46.33602 -1.2793,52.41602 0,1.728 0.12786,7.48878 0.25586,12.80078 0.32,15.168 -0.57561,41.08878 -1.59961,44.80078 -0.704,2.432 -0.96139,8.44636 -1.02539,24.31836 -0.064,11.648 -0.31867,21.63299 -0.63867,22.20899 -0.96,1.856 -4.73606,2.49606 -9.66406,1.66406 -3.328,-0.576 -5.76055,-0.576 -10.56055,0 -3.456,0.448 -8.25595,0.76803 -10.75195,0.83203 -2.432,0 -6.33663,0.25572 -8.64063,0.51172 -16.768,2.176 -20.79961,2.81616 -25.59961,4.16016 -3.008,0.896 -6.91157,1.72792 -8.76757,1.91992 -1.792,0.256 -4.92902,1.02451 -7.04102,1.72851 l -3.71094,1.34375 -20.80078,0.19141 c -14.912,0.128 -21.31075,0.44744 -22.71875,1.02344 -2.688,1.088 -24.8325,0.83273 -29.3125,-0.44727 -1.856,-0.512 -5.75958,-1.34347 -8.76758,-1.85547 -3.008,-0.512 -6.84862,-1.34347 -8.64062,-1.85547 -1.728,-0.512 -4.48008,-1.08925 -6.08008,-1.28125 -7.424,-1.024 -11.52039,-2.43218 -14.40039,-4.99218 -1.536,-1.344 -4.47889,-3.07094 -6.46289,-3.71094 -2.048,-0.704 -4.9918,-2.11272 -6.5918,-3.13672 -1.6,-1.024 -5.95206,-3.32864 -9.66406,-5.05664 -3.712,-1.728 -8.44855,-4.41517 -10.56055,-5.95117 -2.112,-1.6 -6.84854,-4.86488 -10.56054,-7.29688 -8.128,-5.376 -16.0003,-13.05553 -19.9043,-19.51953 -1.6,-2.624 -4.73461,-7.80753 -6.97461,-11.51953 -2.304,-3.712 -7.10395,-10.88 -10.75195,-16 -3.648,-5.12 -7.68049,-11.32777 -8.89649,-13.75977 -2.88,-5.76 -11.58497,-18.23952 -17.79297,-25.59961 -2.688,-3.2 -5.88797,-7.55296 -7.16797,-9.79296 -1.216,-2.24 -3.32742,-5.37507 -4.60742,-7.03907 -1.344,-1.664 -5.24712,-6.91243 -8.70312,-11.64843 -8.512,-11.584 -19.52167,-24.25546 -32.51367,-37.43946 -20.992,-21.248 -28.60743,-30.20792 -28.60743,-33.91992 0,-3.136 4.54341,-9.53644 8.19141,-11.64844 4.736,-2.688 14.84945,-9.72818 18.68945,-12.99218 1.92,-1.6 5.24738,-4.28868 7.35938,-5.88868 22.4,-17.216 48.44878,-55.358542 52.80078,-77.310542 0.704,-3.648009 2.04691,-8.961797 2.87891,-11.841797 0.896,-2.816 1.59961,-6.079969 1.59961,-7.167969 0,-3.008 0.57609,-4.03125 2.49609,-4.03125 0.896,-0.064 2.81661,-0.511438 4.22461,-1.023438 2.24,-0.896 9.79098,-1.792828 16.95898,-2.048828 z m -111.54297,0.189453 c 3.96431,-0.0091 7.84508,-0.0079 11.55664,0.0039 17.8155,0.05662 31.7468,0.358984 32.4668,0.958984 0.64,0.512 2.11258,3.072812 3.39258,5.632812 l 2.24023,4.734376 -0.44922,4.544921 c -0.704,7.872 -6.27164,18.49657 -18.43164,35.392579 -5.44,7.552 -27.13528,28.159812 -36.86328,35.007812 -11.776,8.32 -23.42514,15.61486 -34.36914,21.63086 -4.864,2.688 -15.23135,6.59311 -25.02344,9.53711 -4.928,1.472 -11.90278,3.64728 -15.55078,4.86328 -7.104,2.368 -12.86395,3.71156 -18.75195,4.35156 -1.984,0.256 -5.31333,0.70539 -7.36133,1.02539 -2.048,0.384 -16.5114,0.63868 -32.1914,0.63868 -36.672036,-8e-5 -46.208644,-0.95915 -53.056644,-5.11915 -1.6,-1.024 -5.695438,-2.88015 -9.023438,-4.16015 -3.328,-1.28 -6.336703,-2.56041 -6.720703,-2.81641 -0.32,-0.32 -3.39075,-1.66336 -6.71875,-2.94336 -6.4,-2.56 -11.200578,-5.56756 -19.392578,-12.35156 -7.232,-5.952 -7.040125,-5.18561 -3.328125,-14.84961 1.152,-3.007991 2.304547,-6.976031 2.560547,-8.832031 0.256,-1.792 0.894703,-3.902968 1.470703,-4.542968 l 1.08789,-1.279297 14.720704,-0.576172 c 35.904,-1.536 81.856374,-0.06492 105.984374,3.455078 11.968,1.728 20.15963,-9.792109 22.01563,-30.912109 0.768,-8.32 -1.72716,-12.736032 -9.53516,-16.832032 l -3.77734,-1.919921 -4.86329,0.384765 c -5.888,0.576 -78.72023,0.639406 -114.24023,0.191406 L 15.744141,39.871094 14.976562,38.65625 c -0.576,-0.832 -0.639859,-2.176016 -0.255859,-4.416016 0.32,-1.792 0.576172,-4.417125 0.576172,-5.953125 0.064,-3.264 -3.776875,-2.814312 24.703125,-3.070312 27.648,-0.256 54.783531,-1.217726 59.519531,-2.177735 1.791999,-0.32 8.705329,-0.894843 15.361329,-1.214843 6.72,-0.384 17.98389,-0.95975 25.08789,-1.34375 7.168,-0.384 13.18345,-0.577219 13.43945,-0.449219 0.448,0.256 9.47211,-0.319328 30.91211,-2.111328 3.712,-0.32 9.34447,-0.89575 12.48047,-1.34375 7.07,-0.91 38.94517,-1.475228 66.69531,-1.539063 z M 24.128906,167.23242 c 5.824,0 8.702422,0.25649 9.982422,0.89649 0.96,0.448 3.840391,1.02284 6.400391,1.21484 2.496,0.192 7.040828,0.57694 10.048828,0.96094 3.008,0.32 9.344078,0.89484 14.080078,1.21484 8.256,0.576 16.895055,1.47164 23.039063,2.43164 8.96,1.408 -0.06402,11.45667 -12.416016,13.88867 -2.496,0.448 -5.567203,1.28097 -6.783203,1.79297 -1.216,0.512 -3.521094,1.15025 -5.121094,1.40625 -1.6,0.256 -6.208234,1.40855 -10.240234,2.56055 -7.168,1.984 -10.04675,2.62517 -14.71875,3.20117 -1.216,0.128 -6.655703,0.83161 -12.095703,1.59961 -5.376008,0.768 -10.049141,1.15203 -10.369141,0.83203 -0.64,-0.64 -1.087266,-28.09594 -0.447266,-30.33594 l 0.447266,-1.5996 8.193359,-0.0645 z m 130.083984,16.45899 c 1.50938,-0.005 2.97995,0.18045 4.25195,0.56445 1.024,0.32 3.90394,0.89575 6.33594,1.34375 2.496,0.448 5.4383,1.15161 6.6543,1.59961 l 2.11328,0.70508 -3.39258,3.71093 c -2.048,2.24 -4.54394,4.22419 -6.33594,4.99219 -1.6,0.704 -4.15976,2.04827 -5.75976,3.07227 -1.6,0.96 -7.03925,3.13678 -12.03125,4.80078 -7.296,2.432 -9.79314,3.58384 -12.03321,5.50391 -3.2,2.752 -3.90385,2.75182 -8.25585,-0.57618 -4.672,-3.52 -6.97546,-8.19226 -5.43946,-11.07226 0.704,-1.28 12.03094,-6.97592 19.71094,-9.91992 2.24,-0.896 5.44102,-2.24072 7.04102,-3.13672 2,-1.04 4.625,-1.57914 7.14062,-1.58789 z m 80.90625,27.10156 c 4.736,-0.024 8.304,0.40673 10,1.30273 14.656,7.872 30.0162,20.99213 41.4082,35.32813 6.656,8.384 13.82536,19.32848 16.19336,24.89648 2.048,4.608 4.86369,11.26333 7.67969,18.11133 1.408,3.264 3.90436,7.87218 5.56836,10.24024 1.664,2.368 4.22286,6.07985 5.63086,8.25585 6.848,10.56 12.03267,17.02354 21.88867,27.51954 4.096,4.288 7.87172,8.64006 8.51172,9.66406 1.536,2.56 19.13692,20.80095 20.54492,21.37695 0.64,0.256 3.19977,2.0468 5.75977,3.9668 6.72,5.12 9.53508,6.40094 19.45508,8.96094 4.928,1.28 10.75218,3.2006 12.99218,4.2246 6.336,2.94406 14.65605,6.07955 21.24805,7.93555 3.328,0.96 8.12855,2.68875 10.56055,3.96875 2.496,1.216 7.3589,3.32788 10.8789,4.67188 3.52,1.344 9.02416,3.45437 12.16016,4.73437 6.72,2.624 12.67291,3.84013 16.12891,3.32813 1.92,-0.32 3.77634,0.12868 9.15234,2.30468 5.504,2.24 7.48691,2.75241 10.87891,2.81641 7.232,0 17.47176,-1.02378 21.75976,-2.17578 l 4.16016,-1.15234 0,-2.81641 0,-2.75195 2.24023,-0.44727 c 1.216,-0.256 4.864,-0.8328 8,-1.2168 8.512,-1.024 16.9593,-2.55896 25.2793,-4.54296 2.688,-0.64006 8.83208,-1.34511 14.08008,-1.53711 9.664,-0.448 41.79272,-3.07261 51.13672,-4.22461 3.072,-0.384 6.464,-1.21443 8,-1.98243 3.072,-1.6 9.40795,-1.98462 10.75195,-0.64062 1.28,1.28 0.83137,14.07969 -0.64063,15.67969 l -1.02343,1.15234 -10.62305,-0.32031 c -6.016,-0.192 -11.52078,-0.12814 -12.80078,0.25586 -1.216,0.32 -6.52785,0.89725 -11.83985,1.28125 -10.432,0.704 -18.11205,1.53564 -22.91211,2.43164 -1.664,0.32 -3.20012,0.57467 -3.32812,0.63867 -0.192,0 -1.85689,0.38553 -3.71289,0.76953 -1.792,0.384 -6.91017,0.89484 -11.32617,1.21484 -5.888,0.38406 -9.92133,1.025 -15.36133,2.625 -4.032,1.08806 -8.95891,2.49627 -10.87891,3.07227 -1.92,0.512 -5.12101,1.79195 -7.04101,2.75195 -1.92,0.896 -4.54377,1.98319 -5.75977,2.36719 -1.216,0.384 -5.56761,2.17525 -9.59961,4.03125 -10.688,4.8 -15.68061,5.95247 -20.22461,4.48047 -1.024,-0.384 -4.73586,-0.76698 -8.25586,-0.95898 -3.52,-0.192 -9.28078,-0.64094 -12.80078,-0.96094 -3.52,-0.384 -13.18345,-0.83144 -21.43945,-1.02344 -8.256,-0.192 -17.02308,-0.44862 -19.45508,-0.64062 -3.52,-0.128 -5.37603,0.12775 -8.83203,1.34375 -5.952,2.176 -15.10382,2.30431 -20.67188,0.32031 -2.304,-0.832 -5.31168,-1.34375 -7.67968,-1.34375 -2.112,0 -8.06405,-0.31958 -13.24805,-0.76758 l -9.3457,-0.70508 -3.45508,1.66406 c -5.12,2.496 -5.24906,2.94384 -4.28906,17.0879 0.384,6.528 1.08865,12.22432 1.47265,12.73632 0.704,0.896 2.55999,7.29692 3.58399,12.54492 0.64,3.13606 2.11301,6.46432 7.04101,16.32032 1.344,2.624 2.75122,5.95137 3.19922,7.35937 0.448,1.408 1.0233,2.81522 1.2793,3.19922 0.32,0.32 1.79258,4.09631 3.39258,8.32031 1.6,4.224 4.35202,10.68839 6.08008,14.40039 1.728,3.712 3.64906,8.32024 4.28906,10.24024 0.64,1.92 2.68697,6.52823 4.54297,10.24023 4.48,8.704 4.41659,11.96716 -0.19141,9.53516 -2.24,-1.216 -10.11216,-10.30453 -12.16016,-14.14453 -3.328,-6.08 -10.75207,-5.31135 -14.08007,1.47265 -1.472,2.88 -3.00765,14.84841 -2.43165,18.81641 0.12806,1.024 0.38418,3.83903 0.57618,6.20703 0.576,6.336 0.38264,6.08081 15.80664,21.63281 7.872,7.936 15.74511,16.12824 17.53711,18.24024 1.728,2.112 5.82343,6.84659 9.02343,10.55859 3.2,3.712 6.59229,7.93621 7.48829,9.40821 1.024,1.6 3.32867,3.7134 5.88867,5.4414 4.608,2.944 8.63867,8.44799 8.63867,11.58399 0,2.176 -3.39155,3.3275 -7.93555,2.6875 -7.36,-1.024 -18.43151,-0.83234 -23.10351,0.51172 -4.672,1.28 -6.97624,1.28059 -18.24024,-0.19141 -2.624,-0.32 -6.84775,-0.57663 -9.34375,-0.64063 l -4.48047,0 -2.11132,-2.17578 c -2.048,-2.112 -4.09591,-8.19245 -5.50391,-16.06445 -0.256,-1.408 -1.15283,-4.992 -2.04883,-8 -1.472,-5.12 -1.98458,-8.31883 -3.39258,-20.79883 -0.832,-7.872 -1.85459,-13.76101 -2.55859,-15.04101 -0.384,-0.704 -1.08956,-3.64735 -1.60156,-6.52735 -1.28,-7.104 -1.15139,-6.59175 -3.77539,-17.34375 -5.376,-21.76 -5.24888,-28.41576 0.70312,-37.75976 6.208,-9.728 9.79217,-19.32857 8.57617,-22.97657 -0.384,-1.216 -0.95929,-4.79954 -1.27929,-7.93554 -0.256,-3.136 -0.8313,-6.39997 -1.2793,-7.16797 -3.712,-6.912 -7.87291,-18.68865 -8.12891,-22.72071 -0.064,-2.368 -0.57589,-5.12007 -1.08789,-6.08007 -0.512,-0.96 -1.34392,-2.62444 -1.91992,-3.64844 -3.328,-6.464 -5.44067,-11.13514 -5.88867,-13.11914 -1.536,-7.616 -7.87067,-12.60909 -16.63867,-13.12109 -12.672,-0.70406 -23.48914,-1.7906 -26.36914,-2.5586 -1.792,-0.512 -4.09514,-0.96094 -5.11914,-0.96094 -3.264,0 -4.09679,-1.2152 -4.80079,-6.7832 -0.32,-2.752 -0.76698,-6.14428 -0.95898,-7.48828 -0.384,-3.008 0.38416,-3.96909 4.16016,-5.12109 1.664,-0.512 5.43881,-1.98368 8.38281,-3.26368 3.328,-1.408 7.29623,-2.55936 10.24023,-2.94336 2.688,-0.32 6.27155,-1.08806 7.93555,-1.66406 1.984,-0.64 4.28839,-0.95958 6.40039,-0.76758 3.392,0.32 3.77541,0.51082 16.19141,8.38282 2.624,1.664 6.8497,4.0974 9.3457,5.4414 l 4.60742,2.36719 12.28711,0 12.28906,0 3.39258,-2.36719 c 1.92,-1.28 4.2236,-2.68872 5.1836,-3.13672 4.608,-2.048 1.02395,-8.31929 -5.24805,-9.27929 -8.384,-1.344 -35.3287,-21.50494 -54.7207,-40.96094 -7.04,-7.104 -13.50349,-13.0565 -14.27149,-13.3125 -0.768,-0.256 -2.68906,-2.17466 -4.28906,-4.22266 -1.6,-2.112 -3.32739,-4.03306 -3.77539,-4.28906 -0.512,-0.256 -2.55942,-2.94317 -4.60742,-5.95117 -1.984,-3.008 -4.60777,-6.592 -5.75977,-8 -6.4,-7.68 -8.12959,-9.92109 -10.43359,-13.12109 -4.8,-6.84806 -22.14235,-23.67891 -35.90235,-34.87891 -3.008,-2.432 -7.42542,-6.27322 -9.85742,-8.44922 -9.536,-8.768 -18.36772,-14.46419 -32.51172,-20.99219 -9.792,-4.544 -11.26411,-5.5669 -14.91211,-10.8789 l -2.30273,-3.39258 0.95898,-1.85547 c 2.176,-4.352 12.47963,-9.3435 22.01563,-10.6875 6.368,-0.928 12.27181,-1.40764 17.00781,-1.43164 z M 61.503906,233.71289 c 6.8,-0.016 13.409047,0.1758 15.873047,0.5918 7.168,1.088 17.983762,3.13437 25.343747,4.73437 3.904,0.832 8.51224,1.72838 10.24024,1.98438 1.792,0.256 3.51984,0.51262 3.83984,0.64062 8.192,1.92 14.84792,3.45571 17.91992,4.09571 5.824,1.216 14.27161,3.45715 25.59961,6.78515 5.632,1.664 12.09639,3.5182 14.40039,4.1582 18.56,5.18405 38.46396,15.42424 50.75196,26.24024 2.624,2.24 7.29564,6.27248 10.43164,8.89648 9.6,8.064 20.67222,19.64902 29.82422,31.04102 4.736,5.952 10.17525,12.73506 12.03125,15.03906 1.856,2.304 5.31214,7.04055 7.74414,10.56055 2.368,3.52 5.63242,8.12823 7.23242,10.24023 4.672,6.08 3.64733,7.35938 -5.88867,7.35938 -8.384,0 -13.31158,1.79158 -24.76758,8.76758 -2.496,1.472 -5.37563,7.2317 -6.01563,12.0957 -0.32,2.048 -1.15192,5.75986 -1.91992,8.25586 -1.408,4.864 -2.3042,16.70472 -1.4082,19.13672 0.32,0.768 0.89529,5.43918 1.27929,10.36718 1.02405,12.35205 1.40807,13.12158 9.66407,22.01758 2.88,3.072 16.44747,6.97583 25.85547,7.42383 13.888,0.64 14.20828,0.83078 15.48828,7.55078 0.512,2.496 1.59964,7.10469 2.43164,10.30469 0.896,3.136 2.30517,8.76847 3.20117,12.48047 4.544,19.136 4.54417,19.20008 0.57617,22.08008 -1.472,1.024 -4.03281,2.94415 -5.63281,4.16015 -7.296,5.504 -6.71922,5.24774 -11.19922,4.92774 -4.736,-0.384 -20.67278,-2.04777 -28.80078,-3.00782 -6.08,-0.768 -25.08706,-2.49685 -31.03906,-2.88085 -10.56,-0.704 -14.01585,-1.02438 -19.83985,-1.98438 -1.024,-0.128 -4.48164,-0.57453 -7.68164,-0.89453 -3.136,-0.32 -6.7825,-0.76939 -8.0625,-1.02539 -1.28,-0.192 -4.03208,-0.44817 -6.08008,-0.57617 -2.112,-0.192 -4.48095,-0.44813 -5.37695,-0.57618 -0.896,-0.192 -3.19914,-0.51112 -5.11914,-0.70312 -15.616,-1.664 -35.96748,-5.31186 -46.27148,-8.25586 -26.88,-7.744 -33.40888,-10.49675 -47.296879,-19.96875 -2.688,-1.856 -6.847297,-4.41572 -9.279297,-5.75977 -2.368,-1.344 -6.016453,-3.96821 -8.064453,-5.82421 -5.568,-5.056 -7.871437,-3.71091 -9.023437,5.12109 -0.256,1.664 -0.705391,3.77583 -1.025391,4.67188 -1.472,3.776 -0.896328,5.50374 3.263672,9.34374 l 3.96875,3.64844 -0.447266,1.79102 c -0.256,0.96 -0.70539,5.95226 -1.02539,11.07226 -0.64,9.856 -2.175672,20.67274 -3.263672,23.55274 -0.384,0.96 -0.83098,4.60695 -0.958985,8.12695 l -0.320312,6.40039 2.111328,3.51953 c 2.432,4.032 8.639969,9.08861 15.167969,12.22461 2.368,1.088 6.52775,3.13497 9.34375,4.54297 2.816,1.408 6.848937,3.07289 8.960937,3.71289 2.111996,0.64 7.744466,2.30489 12.480466,3.71289 4.736,1.408 11.39075,3.1988 14.71875,3.9668 3.328,0.768 9.98471,2.36753 14.72071,3.51953 4.736,1.152 11.07207,2.30409 14.08007,2.49609 3.008,0.256 7.03899,0.70539 8.95899,1.02539 8.384,1.40805 14.33625,1.98424 22.65625,2.24024 8.128,0.256 11.00795,0.57473 18.75195,2.30273 1.472,0.32 4.92919,0.57618 7.61719,0.57618 4.48,0 9.5357,0.641 20.0957,2.625 1.92,0.384 6.91181,1.08715 11.00781,1.53515 4.16005,0.448 7.74446,1.0248 8.06446,1.2168 0.704,0.384 17.40797,1.85442 23.16797,1.98242 17.088,0.384 39.42304,2.68952 42.62304,4.35352 5.056,2.624 14.46491,15.99965 16.12891,22.84765 3.2,13.12 4.35091,22.91081 2.87891,24.38281 -0.384,0.38405 -6.20669,0.8968 -13.05469,1.2168 -7.04,0.32 -13.24794,0.89575 -14.33594,1.34375 -2.048,0.832 -18.112,1.85717 -48,3.20117 l -17.91992,0.76758 -24.96094,-1.47265 c -14.464,-0.832 -27.20039,-1.27944 -30.40039,-1.02344 -3.2,0.256 -12.35194,-0.12803 -22.33594,-0.83203 l -16.89648,-1.2168 -14.46289,1.91992 c -12.48,1.6 -14.91252,1.79189 -17.72852,1.08789 -1.792,-0.384 -4.41576,-0.57436 -5.75976,-0.31836 -8.448,1.344 -20.735549,2.17411 -23.935549,1.66211 -3.072,-0.512 -22.849016,-1.66228 -39.041016,-2.23828 -8.448,-0.32 -20.926859,-1.40942 -21.630859,-1.85742 -1.856,-1.152 -2.11186,-35.83869 -0.25586,-42.30274 0.704,-2.56 0.574922,-4.92823 -0.705078,-10.24023 -3.264,-13.504 -4.352266,-24.44839 -3.072266,-30.40039 0.448005,-1.92 0.895891,-4.47931 1.087891,-5.69531 0.128,-1.152 0.448172,-2.36946 0.576172,-2.68946 0.192,-0.32 0.513078,-1.91998 0.705078,-3.58398 0.128,-1.664 0.446672,-3.5197 0.638672,-4.0957 1.6,-5.376 0.961609,-19.26386 -1.150391,-24.25586 -1.344,-3.072 -2.049031,-25.02327 -3.457031,-112.44727 -0.128,-10.688 -0.576031,-20.73639 -0.832031,-22.40039 -0.384,-1.92 -0.383547,-4.4158 0.06445,-6.5918 0.448,-2.368 0.383547,-10.30493 -0.06445,-24.96093 -1.024,-30.784 -1.344063,-42.24 -1.664063,-56 -0.128,-6.72 -0.446671,-15.16691 -0.638671,-18.87891 -0.384005,-5.696 -0.256422,-7.23223 0.767578,-10.24023 0.704,-1.984 1.21589,-4.09678 1.08789,-4.80078 -0.96,-6.46405 -1.600937,-23.552 -0.960937,-24 1.344,-0.76805 17.729,-3.90419 26.625,-4.99219 3.232,-0.416 10.223437,-0.6383 17.023437,-0.6543 z M 411.46484,462.85156 c 0.48,0.009 1.0303,0.053 1.6543,0.125 1.792,0.192 6.52855,0.63944 10.56055,1.02344 4.032,0.384 8.51192,0.95975 9.91992,1.34375 1.408,0.32 6.7852,0.76744 12.0332,1.02344 l 9.40625,0.38476 0.32032,1.34375 c 0.128,0.768 0.38462,2.36799 0.64062,3.58399 0.192,1.216 1.34305,4.67167 2.62305,7.67969 1.28,3.008 2.81703,6.91307 3.45703,8.70507 2.24,6.4 8.89661,19.19924 12.22461,23.61524 1.856,2.432 4.67103,6.20831 6.20703,8.32031 14.208,19.072 37.56742,33.79208 60.60742,38.08008 1.408,0.256 5.69666,1.08747 9.47266,1.85547 6.72,1.344 27.64726,2.04789 32.44726,1.08789 0.896,-0.192 4.6083,-0.63944 8.32032,-1.02344 3.712,-0.384 7.61662,-0.9593 8.64062,-1.2793 1.088,-0.32 3.20078,-0.76893 4.80078,-0.96093 4.352,-0.704 15.03941,-4.92761 24.19141,-9.59961 4.48,-2.304 9.02287,-4.28757 10.04687,-4.35157 l 1.92188,-0.1289 -0.19336,3.07226 c -0.128,2.304 0.064,3.13658 0.83203,3.39258 0.896,0.384 1.02448,1.79063 0.89648,11.39063 -0.128,7.616 0.12713,11.7134 0.70313,13.4414 0.512,1.664 0.64031,3.64808 0.32031,6.08008 -0.256,1.984 -0.70298,5.44014 -0.95898,7.74414 -0.256,2.304 -0.8328,6.01586 -1.2168,8.25586 -1.152,6.08 -2.04855,14.78383 -2.56055,23.42383 -0.192,4.224 -0.63898,8.06417 -0.95898,8.57617 -0.32,0.512 -0.51172,2.81559 -0.51172,5.18359 0.128,5.632 -0.64078,6.72025 -4.80078,6.65625 -15.936,-0.448 -25.91878,-0.8962 -31.55078,-1.4082 -6.464,-0.704 -34.7531,0.0645 -37.1211,0.89649 -0.512,0.192 -6.39914,0.76684 -13.11914,1.21484 -6.656,0.512 -15.61734,1.21561 -19.77734,1.59961 -10.88,1.024 -11.64688,0.64028 -18.04688,-8.51172 -3.712,-5.312 -8.32031,-11.13542 -16.32031,-20.60742 -2.368,-2.816 -5.82369,-7.0402 -7.67969,-9.4082 -1.92,-2.36802 -5.69571,-6.84793 -8.51171,-9.91993 -11.712,-13.12 -19.45652,-25.47281 -33.72852,-53.63281 -11.84,-23.424 -14.52758,-28.5425 -16.76758,-32.0625 -0.896,-1.472 -2.04853,-3.64878 -2.56055,-4.80078 -0.512,-1.216 -3.26453,-6.33658 -6.14453,-11.39258 -2.88,-5.12 -5.82334,-11.26376 -6.52734,-13.75976 -0.768,-2.496 -2.36753,-6.46404 -3.51953,-8.83204 -2.912,-5.824 -3.03188,-7.48204 0.32812,-7.41992 z m 107.58399,5.90821 c 3,0.056 6.26379,0.52076 9.59179,1.38476 2.24003,0.576 7.87052,3.07236 12.47852,5.56836 17.28,9.28 23.80816,12.54303 28.16016,14.20703 l 4.48047,1.72852 11.20117,0.51172 c 7.488,0.32 12.15812,0.83265 14.07812,1.47265 1.6,0.576 4.79997,1.34254 7.16797,1.72657 l 4.22461,0.76953 3.00781,-1.34571 c 1.728,-0.768 5.50435,-3.71197 9.15235,-7.16797 14.976,-14.272 22.91236,-17.34326 21.56836,-8.44726 -0.576,3.776 -0.576,14.39939 0,19.77539 0.832,7.424 -1.408,9.53642 -16,15.23242 -11.712,4.544 -21.56885,8.7042 -22.46485,9.4082 -1.664,1.344 -12.35204,4.54349 -21.24804,6.27149 -3.84,0.768 -12.03062,0.83291 -15.80665,0.12891 -1.408,-0.25603 -3.52032,-0.19305 -4.73632,0.12695 -5.376,1.408 -31.10522,-5.56781 -40.44922,-11.00781 -1.216,-0.704 -3.39128,-1.53638 -4.86328,-1.98438 -9.984,-2.624 -24.70465,-22.78389 -29.88868,-41.08789 -2.112,-7.36 -1.98348,-7.42317 9.72852,-5.95117 l 8.76758,1.08789 3.83984,-1.34375 c 2.272,-0.768 5.00977,-1.12045 8.00977,-1.06445 z m -428.14258,33.6914 c 0.9525,-0.0194 2.741641,0.62055 6.181641,2.06055 9.087999,3.904 22.143409,8.06373 40.191409,12.92773 1.792,0.448 5.376,1.21561 8,1.59961 2.624,0.448 7.10392,1.28188 9.91992,1.92188 7.552,1.728 17.66548,3.2622 27.52148,4.1582 2.112,0.256 5.75896,0.64139 8.12696,1.02539 2.368,0.32 6.08076,0.57617 8.38476,0.57617 4.352,0 6.65563,1.02396 6.01563,2.75196 -0.512,1.344 -20.48032,7.48828 -24.32032,7.48828 -0.96,0 -4.86462,1.02228 -8.64062,2.23828 l -6.91016,2.24023 -5.76172,-0.63867 c -8.896,-0.96 -28.35068,-5.50417 -37.05468,-8.57617 -3.136,-1.152 -8.64016,-3.00816 -12.16016,-4.16016 -7.424,-2.496 -20.737265,-8.83164 -21.697265,-10.43164 -0.576,-0.896 0.384797,-11.58484 1.216797,-14.46484 0.144,-0.456 0.414828,-0.70517 0.986328,-0.7168 z"
       transform="matrix(15.625,0,0,-15.625,0,10380)"
       id="path1203"
       inkscape:connector-curvature="0" />
  </g>
</svg>
