<?xml version="1.0" standalone="no"?>
<!DOCTYPE svg PUBLIC "-//W3C//DTD SVG 20010904//EN"
 "http://www.w3.org/TR/2001/REC-SVG-20010904/DTD/svg10.dtd">
<svg version="1.0" xmlns="http://www.w3.org/2000/svg"
 width="498.240000pt" height="498.240000pt" viewBox="0 0 498.240000 498.240000"
 preserveAspectRatio="xMidYMid meet">
<metadata>
Created by potrace 1.12, written by Peter Selinger 2001-2015
</metadata>
<g transform="translate(0.000000,498.240000) scale(0.048000,-0.048000)"
fill="#000000" stroke="none">
<path fill="#000000" stroke="none" d="M0 5190 l0 -5190 5190 0 5190 0 0 5190
0 5190 -5190 0 -5190 0 0 -5190z"/>
<path fill="#ffffff" stroke="none" d="M4870 10156 c85 -3 220 -9 300 -13 80
-4 233 -4 340 0 285 12 620 11 740 -2 220 -25 690 -37 920 -23 147 8 392 8
685 0 168 -5 221 -3 265 8 30 9 67 13 82 10 26 -5 232 9 278 19 14 3 66 6 115
7 83 1 136 -4 315 -33 36 -5 166 -19 290 -29 124 -11 254 -22 290 -26 36 -3
76 -6 90 -6 451 1 437 2 442 -38 2 -14 6 -29 10 -35 3 -5 6 -73 7 -150 2 -77
4 -201 6 -275 14 -459 13 -477 -33 -482 -9 -1 -183 -2 -387 -3 -203 -1 -487
-7 -630 -14 -143 -6 -361 -14 -485 -17 -405 -8 -696 -24 -765 -42 -22 -6 -92
-13 -155 -16 -119 -7 -344 -17 -370 -17 -153 0 -426 -2 -460 -4 -25 -1 -133
-7 -240 -13 -107 -6 -341 -9 -520 -6 -694 10 -871 8 -925 -10 -27 -9 -70 -21
-95 -26 -25 -5 -63 -13 -85 -20 -22 -6 -62 -13 -89 -16 -26 -2 -80 -13 -120
-24 -39 -11 -115 -29 -169 -40 -53 -12 -122 -34 -153 -51 -31 -16 -65 -29 -75
-29 -11 0 -45 -14 -76 -30 -31 -17 -78 -37 -105 -45 -26 -7 -58 -21 -70 -29
-12 -9 -30 -16 -39 -16 -9 0 -27 -8 -40 -19 -13 -10 -35 -22 -49 -26 -14 -4
-32 -13 -40 -20 -8 -7 -31 -16 -50 -20 -19 -4 -53 -24 -76 -45 -22 -20 -70
-54 -107 -75 -38 -20 -84 -57 -105 -81 -20 -24 -40 -44 -45 -44 -16 0 -92 -58
-157 -119 -35 -33 -68 -61 -72 -61 -4 0 -14 -13 -23 -30 -17 -33 -61 -80 -89
-95 -10 -5 -33 -35 -50 -66 -17 -31 -46 -78 -65 -105 -19 -27 -52 -82 -73
-122 -22 -41 -51 -90 -64 -109 -13 -20 -24 -41 -24 -48 0 -7 -14 -46 -30 -87
-37 -90 -53 -167 -89 -408 -11 -75 -5 -457 8 -506 6 -21 13 -66 17 -98 7 -73
35 -163 80 -267 19 -42 34 -86 34 -97 0 -10 11 -35 24 -54 22 -33 75 -123 121
-206 45 -81 206 -229 304 -279 25 -13 73 -41 106 -63 55 -36 122 -71 325 -167
121 -58 305 -89 430 -73 126 16 227 38 276 59 26 12 55 21 66 21 84 0 408 244
408 308 0 6 11 23 24 39 24 29 76 180 76 221 0 13 6 33 14 45 62 99 -3 433
-106 546 -24 26 -58 68 -76 95 -18 26 -41 50 -50 53 -10 2 -25 17 -34 33 -27
47 -53 57 -270 97 -44 8 -215 -53 -266 -95 -37 -30 -45 -56 -65 -195 l-11 -77
79 -75 c50 -48 86 -75 101 -75 23 0 64 -53 64 -83 0 -9 11 -28 25 -43 29 -31
29 -29 12 -46 -7 -7 -20 -23 -28 -35 -18 -26 -77 -68 -110 -78 -13 -5 -30 -16
-37 -26 -7 -11 -25 -19 -40 -19 -15 0 -38 -7 -51 -16 -20 -14 -28 -15 -61 -4
-21 7 -53 10 -71 6 -24 -4 -46 1 -88 21 -34 16 -71 26 -96 26 -30 -1 -47 5
-67 24 -18 17 -32 23 -46 19 -11 -4 -23 -2 -27 5 -4 6 -40 26 -79 44 -39 18
-80 42 -91 55 -11 12 -33 29 -50 37 -16 9 -105 91 -196 183 -176 179 -168 166
-198 302 -14 60 -14 233 -1 278 6 19 15 58 21 85 12 64 148 339 205 417 24 33
44 65 44 70 0 33 265 318 296 318 4 0 28 17 53 39 26 21 64 47 87 59 22 11 46
27 53 35 6 8 63 48 126 88 63 41 134 86 158 101 197 127 459 217 752 259 179
26 173 25 415 33 l205 7 120 -21 c202 -36 222 -41 350 -89 222 -82 339 -137
450 -212 39 -26 84 -53 100 -61 17 -7 63 -40 104 -73 40 -33 103 -82 139 -108
37 -26 78 -60 93 -75 56 -59 196 -188 221 -205 15 -9 43 -41 63 -70 19 -28 55
-77 79 -107 24 -30 72 -109 106 -175 35 -66 75 -142 90 -170 245 -455 300
-604 372 -1015 l22 -125 0 -345 c-1 -190 -4 -370 -7 -400 -19 -184 -30 -254
-52 -332 -14 -48 -25 -99 -25 -114 0 -15 -9 -46 -19 -68 -10 -23 -21 -52 -24
-66 -29 -134 -43 -184 -68 -242 -16 -36 -29 -72 -29 -79 0 -7 -20 -55 -45
-106 -25 -50 -45 -95 -45 -99 0 -4 -8 -17 -18 -28 -10 -12 -27 -43 -37 -71
-19 -50 -87 -158 -130 -205 -19 -21 -41 -53 -90 -129 -10 -16 -73 -97 -147
-189 -34 -43 -166 -186 -218 -237 -6 -5 -50 -49 -98 -96 -48 -47 -123 -116
-167 -152 -44 -37 -94 -80 -110 -97 -17 -16 -34 -30 -39 -30 -4 0 -34 -21 -66
-47 -32 -27 -75 -59 -95 -73 -19 -14 -61 -44 -91 -67 -31 -24 -62 -43 -69 -43
-7 0 -23 -8 -36 -19 -21 -16 -191 -114 -334 -191 -52 -28 -107 -60 -210 -124
-33 -20 -107 -59 -165 -87 -58 -28 -116 -57 -130 -64 -14 -7 -41 -15 -61 -19
-21 -4 -42 -13 -49 -21 -6 -8 -36 -23 -66 -34 -29 -11 -77 -33 -106 -48 -29
-16 -73 -35 -98 -43 -25 -8 -63 -25 -85 -37 -22 -13 -49 -23 -60 -23 -11 0
-29 -7 -39 -15 -11 -8 -35 -15 -55 -15 -19 0 -54 -11 -78 -26 -24 -14 -48 -22
-53 -19 -9 5 -219 -64 -262 -86 -10 -5 -27 -9 -39 -9 -19 0 -68 -18 -111 -41
-10 -5 -27 -9 -37 -9 -11 0 -30 -4 -43 -9 -13 -5 -50 -14 -83 -21 -33 -6 -87
-20 -120 -32 -67 -23 -115 -35 -190 -48 -27 -4 -90 -16 -140 -26 -49 -9 -106
-16 -126 -15 -20 1 -65 -5 -100 -14 -35 -8 -87 -15 -115 -15 -28 0 -65 -7 -83
-16 -18 -9 -53 -18 -79 -20 -102 -8 -119 -11 -133 -19 -8 -5 -50 -10 -94 -11
-47 0 -102 -8 -134 -19 -56 -18 -218 -26 -451 -23 -181 3 -340 -4 -373 -17
-15 -7 -81 -10 -308 -15 -42 -1 -96 4 -119 10 -32 9 -49 9 -71 -1 -22 -8 -40
-9 -72 -1 -23 6 -85 14 -137 17 -52 4 -101 12 -109 18 -8 7 -46 13 -85 13 -85
2 -181 17 -218 34 -21 10 -34 10 -51 3 -15 -7 -29 -8 -38 -2 -8 5 -23 9 -33 9
-11 0 -42 11 -71 24 -28 14 -72 30 -98 37 -71 18 -88 70 -90 274 -2 368 7
1469 14 1590 8 144 3 227 -20 375 -6 38 -12 353 -15 755 -11 1686 -12 1745
-29 1920 -16 157 -21 249 -31 505 -2 52 -7 169 -11 260 -15 326 -21 2818 -7
2832 7 6 519 13 552 8 29 -5 596 12 643 20 26 4 59 5 72 2 14 -2 44 0 68 6 23
6 98 14 167 17 69 4 129 10 135 13 5 3 82 7 170 8 295 4 858 39 1090 68 83 10
258 17 569 20 247 3 450 7 452 8 4 5 542 0 724 -6z"/>
<path fill="#ffffff" stroke="none" d="M9730 8640 c80 -6 192 -13 250 -16 146
-8 138 -1 143 -147 2 -67 9 -142 15 -167 10 -39 27 -317 23 -375 -1 -11 -1
-81 0 -155 1 -74 2 -164 2 -200 0 -36 -3 -229 -7 -430 -10 -497 -9 -848 3
-889 6 -19 8 -38 5 -43 -3 -5 -7 -106 -10 -225 -2 -119 -9 -232 -15 -250 -6
-19 -8 -40 -5 -48 5 -15 7 -112 6 -385 -1 -96 2 -305 5 -465 4 -159 7 -297 7
-305 1 -79 -12 -391 -16 -399 -14 -22 -26 -122 -31 -250 -3 -75 -9 -149 -14
-166 -5 -16 -15 -131 -21 -255 -7 -124 -14 -229 -17 -233 -3 -5 -7 -59 -9
-120 -2 -62 -6 -125 -9 -142 -4 -29 -19 -344 -17 -375 1 -8 4 -127 7 -265 3
-137 8 -270 9 -295 2 -25 8 -95 14 -156 5 -62 7 -154 5 -205 -2 -52 3 -154 11
-228 11 -91 12 -139 5 -152 -5 -10 -10 -51 -10 -91 -1 -40 -5 -80 -9 -89 -5
-9 -11 -72 -13 -140 -3 -68 -7 -131 -10 -139 -10 -25 -17 -110 -16 -190 0 -50
-5 -86 -15 -105 -20 -38 -20 -69 0 -100 39 -59 -14 -104 -116 -98 -36 2 -135
6 -220 8 -85 2 -191 9 -235 15 -44 6 -132 9 -195 7 -63 -3 -176 -7 -250 -9
-74 -3 -160 -8 -190 -12 -30 -4 -71 -7 -90 -7 -19 0 -69 -4 -110 -9 -89 -12
-239 -22 -294 -21 -22 0 -58 -4 -80 -10 -49 -13 -274 -20 -676 -20 -273 -1
-358 2 -560 16 -70 6 -151 8 -227 6 -18 0 -43 0 -55 0 -13 1 -212 -2 -443 -5
-499 -6 -416 -6 -560 -1 -66 3 -194 7 -284 11 -91 3 -172 9 -180 13 -17 10
-262 8 -277 -2 -16 -10 -262 -18 -484 -17 -314 3 -318 3 -525 -5 -382 -13
-539 -13 -670 2 -71 8 -172 17 -224 19 -52 3 -102 9 -110 13 -37 19 -704 3
-875 -20 -44 -6 -103 -13 -131 -15 -27 -2 -75 -8 -105 -15 -30 -6 -79 -11
-109 -10 -30 0 -60 -4 -67 -10 -7 -5 -54 -10 -106 -10 -51 0 -99 -4 -106 -8
-8 -4 -32 -4 -55 2 -23 5 -73 10 -112 11 -38 1 -99 5 -135 9 -71 8 -203 15
-405 21 -382 13 -369 8 -364 151 1 22 -1 124 -3 227 -5 190 -1 221 24 201 7
-6 38 -13 68 -16 30 -3 134 -15 230 -26 96 -11 225 -23 285 -26 254 -13 284
-15 310 -25 18 -7 39 -7 59 -1 17 5 85 12 151 16 66 3 145 8 175 10 30 2 157
8 283 13 125 6 243 16 262 22 19 6 39 9 44 6 5 -4 31 -2 58 4 41 8 195 25 338
36 69 5 197 25 286 45 48 10 99 19 115 19 16 0 61 7 100 15 89 18 203 37 228
36 10 0 73 13 140 30 66 16 153 36 191 45 39 8 93 22 120 29 28 8 70 19 95 24
90 21 227 60 300 86 41 14 89 30 105 34 17 4 45 15 62 25 30 15 103 42 378
141 118 42 186 70 265 107 144 68 543 269 578 292 21 13 71 40 111 60 41 20
104 56 141 81 37 25 72 45 78 45 6 0 32 17 59 38 77 59 111 82 123 82 12 0
100 57 146 94 18 14 34 26 38 26 3 0 27 15 53 33 27 19 55 37 63 40 51 22 378
269 505 382 61 54 133 115 161 136 29 21 108 98 175 171 119 128 146 160 246
293 267 357 243 319 349 540 88 184 145 347 233 665 26 95 58 290 65 400 3 47
10 132 16 190 6 58 12 161 15 230 3 69 10 224 16 345 l11 220 -26 205 c-45
352 -115 621 -240 929 -14 36 -26 71 -26 78 0 8 -18 51 -39 96 -22 45 -54 114
-72 152 -85 183 -229 423 -283 474 -14 14 -26 29 -26 34 0 11 -23 35 -198 212
-71 72 -150 146 -176 165 -26 19 -68 52 -93 72 -26 20 -74 51 -107 69 -34 17
-68 37 -76 44 -8 7 -46 30 -85 50 -38 21 -78 45 -88 53 l-18 16 18 6 c10 4 95
8 188 8 384 4 658 14 790 28 244 25 793 60 1140 71 94 3 172 7 174 9 7 7 615
-6 751 -16z"/>
</g>
</svg>
