<?xml version="1.0" encoding="UTF-8" standalone="no"?>
<svg
   xmlns:dc="http://purl.org/dc/elements/1.1/"
   xmlns:cc="http://creativecommons.org/ns#"
   xmlns:rdf="http://www.w3.org/1999/02/22-rdf-syntax-ns#"
   xmlns:svg="http://www.w3.org/2000/svg"
   xmlns="http://www.w3.org/2000/svg"
   xmlns:sodipodi="http://sodipodi.sourceforge.net/DTD/sodipodi-0.dtd"
   xmlns:inkscape="http://www.inkscape.org/namespaces/inkscape"
   version="1.0"
   width="498.240000pt"
   height="498.240000pt"
   viewBox="0 0 498.240000 498.240000"
   preserveAspectRatio="xMidYMid meet"
   id="svg893"
   sodipodi:docname="0-3.svg"
   inkscape:version="0.92.4 (5da689c313, 2019-01-14)">
  <defs
     id="defs897" />
  <sodipodi:namedview
     pagecolor="#ffffff"
     bordercolor="#666666"
     borderopacity="1"
     objecttolerance="10"
     gridtolerance="10"
     guidetolerance="10"
     inkscape:pageopacity="1"
     inkscape:pageshadow="2"
     inkscape:window-width="1630"
     inkscape:window-height="1005"
     id="namedview895"
     showgrid="false"
     inkscape:zoom="1.2072495"
     inkscape:cx="332.15999"
     inkscape:cy="332.15999"
     inkscape:window-x="0"
     inkscape:window-y="1"
     inkscape:window-maximized="1"
     inkscape:current-layer="svg893" />
  <metadata
     id="metadata883">
Created by potrace 1.12, written by Peter Selinger 2001-2015
<rdf:RDF>
  <cc:Work
     rdf:about="">
    <dc:format>image/svg+xml</dc:format>
    <dc:type
       rdf:resource="http://purl.org/dc/dcmitype/StillImage" />
    <dc:title></dc:title>
  </cc:Work>
</rdf:RDF>
</metadata>
  <g
     transform="translate(0.000000,498.240000) scale(0.048000,-0.048000)"
     fill="#000000"
     stroke="none"
     id="g891">
    <path
       style="fill:#000000;stroke:none;stroke-width:0.064"
       d="M 0 0 L 0 332.16016 L 0 664.32031 L 332.16016 664.32031 L 664.32031 664.32031 L 664.32031 332.16016 L 664.32031 0 L 332.16016 0 L 0 0 z M 271.05469 13.822266 C 281.39269 13.795266 302.94369 14.047937 311.67969 14.335938 C 317.11969 14.527938 325.76086 14.911969 330.88086 15.167969 C 336.00086 15.423969 345.79262 15.423969 352.64062 15.167969 C 370.88063 14.399969 392.32 14.464875 400 15.296875 C 414.08 16.896875 444.16086 17.663578 458.88086 16.767578 C 468.28886 16.255578 483.9687 16.255578 502.7207 16.767578 C 513.4727 17.087578 516.86369 16.959859 519.67969 16.255859 C 521.59969 15.679859 523.96773 15.423234 524.92773 15.615234 C 526.59173 15.935234 539.7767 15.040391 542.7207 14.400391 C 543.6167 14.208391 546.94408 14.015172 550.08008 13.951172 C 555.39208 13.887172 558.78423 14.208453 570.24023 16.064453 C 572.54423 16.384453 580.86478 17.279922 588.80078 17.919922 C 596.73678 18.623922 605.05537 19.327984 607.35938 19.583984 C 609.66338 19.775984 612.22314 19.96875 613.11914 19.96875 C 641.98314 19.90475 641.0882 19.840391 641.4082 22.400391 C 641.5362 23.296391 641.79283 24.256625 642.04883 24.640625 C 642.24083 24.960625 642.43209 29.312234 642.49609 34.240234 C 642.62409 39.168234 642.75286 47.103844 642.88086 51.839844 C 643.77686 81.215844 643.71158 82.3675 640.76758 82.6875 C 640.19158 82.7515 629.056 82.816859 616 82.880859 C 603.008 82.944859 584.83169 83.327391 575.67969 83.775391 C 566.52769 84.159391 552.57663 84.671281 544.64062 84.863281 C 518.72062 85.375281 500.09569 86.400734 495.67969 87.552734 C 494.27169 87.936734 489.79177 88.384172 485.75977 88.576172 C 478.14377 89.024172 463.74408 89.664062 462.08008 89.664062 C 452.28808 89.664062 434.81663 89.791922 432.64062 89.919922 C 431.04062 89.983922 424.1273 90.367953 417.2793 90.751953 C 410.4313 91.135953 395.456 91.328719 384 91.136719 C 339.584 90.496719 328.25678 90.623391 324.80078 91.775391 C 323.07278 92.351391 320.3207 93.119453 318.7207 93.439453 C 317.1207 93.759453 314.6873 94.272703 313.2793 94.720703 C 311.8713 95.104703 309.31198 95.552141 307.58398 95.744141 C 305.91998 95.872141 302.4643 96.575297 299.9043 97.279297 C 297.4083 97.983297 292.54389 99.135844 289.08789 99.839844 C 285.69589 100.60784 281.28088 102.01552 279.29688 103.10352 C 277.31287 104.12752 275.13609 104.96094 274.49609 104.96094 C 273.79209 104.96094 271.61681 105.85686 269.63281 106.88086 C 267.64881 107.96886 264.64011 109.24777 262.91211 109.75977 C 261.24811 110.20777 259.19964 111.10323 258.43164 111.61523 C 257.66364 112.19123 256.51155 112.64062 255.93555 112.64062 C 255.35955 112.64062 254.20895 113.15147 253.37695 113.85547 C 252.54495 114.49547 251.13623 115.26353 250.24023 115.51953 C 249.34423 115.77553 248.19169 116.35278 247.67969 116.80078 C 247.16769 117.24878 245.69647 117.82408 244.48047 118.08008 C 243.26447 118.33608 241.08723 119.61694 239.61523 120.96094 C 238.20723 122.24094 235.13558 124.41577 232.76758 125.75977 C 230.33558 127.03977 227.39283 129.40736 226.04883 130.94336 C 224.76883 132.47936 223.48797 133.75977 223.16797 133.75977 C 222.14397 133.75977 217.27914 137.47295 213.11914 141.37695 C 210.87914 143.48895 208.76772 145.2793 208.51172 145.2793 C 208.25572 145.2793 207.61506 146.11122 207.03906 147.19922 C 205.95106 149.31122 203.13575 152.3193 201.34375 153.2793 C 200.70375 153.5993 199.23253 155.51991 198.14453 157.50391 C 197.05653 159.48791 195.20038 162.49661 193.98438 164.22461 C 192.76837 165.95261 190.6565 169.47125 189.3125 172.03125 C 187.9045 174.65525 186.0488 177.79181 185.2168 179.00781 C 184.3848 180.28781 183.67969 181.63208 183.67969 182.08008 C 183.67969 182.52808 182.78377 185.02444 181.75977 187.64844 C 179.39177 193.40844 178.36845 198.33577 176.06445 213.75977 C 175.36045 218.55977 175.74417 243.00853 176.57617 246.14453 C 176.96017 247.48853 177.40806 250.36802 177.66406 252.41602 C 178.11206 257.08802 179.9032 262.84791 182.7832 269.50391 C 183.9992 272.19191 184.96094 275.00889 184.96094 275.71289 C 184.96094 276.35289 185.66409 277.95197 186.49609 279.16797 C 187.90409 281.27997 191.29623 287.03956 194.24023 292.35156 C 197.12023 297.53556 207.42331 307.00703 213.69531 310.20703 C 215.29531 311.03903 218.36847 312.83223 220.48047 314.24023 C 224.00047 316.54423 228.2873 318.78373 241.2793 324.92773 C 249.0233 328.63973 260.80078 330.62361 268.80078 329.59961 C 276.86478 328.57561 283.32884 327.16822 286.46484 325.82422 C 288.12884 325.05622 289.9835 324.48047 290.6875 324.48047 C 296.0635 324.48047 316.80078 308.86358 316.80078 304.76758 C 316.80078 304.38358 317.50394 303.29548 318.33594 302.27148 C 319.87194 300.41548 323.19922 290.75291 323.19922 288.12891 C 323.19922 287.29691 323.5837 286.01605 324.0957 285.24805 C 328.0637 278.91205 323.9045 257.53669 317.3125 250.30469 C 315.7765 248.64069 313.59927 245.95261 312.44727 244.22461 C 311.29527 242.56061 309.82405 241.02403 309.24805 240.83203 C 308.60805 240.70403 307.64827 239.7447 307.07227 238.7207 C 305.34427 235.7127 303.68097 235.07172 289.79297 232.51172 C 286.97697 231.99972 276.03158 235.9038 272.76758 238.5918 C 270.39958 240.5118 269.88742 242.17627 268.60742 251.07227 L 267.9043 256 L 272.96094 260.80078 C 276.16094 263.87278 278.46383 265.59961 279.42383 265.59961 C 280.89583 265.59961 283.51953 268.99211 283.51953 270.91211 C 283.51953 271.48811 284.22314 272.70406 285.11914 273.66406 C 286.97514 275.64806 286.97667 275.51942 285.88867 276.60742 C 285.44067 277.05542 284.6077 278.07966 284.0957 278.84766 C 282.9437 280.51166 279.16864 283.19984 277.05664 283.83984 C 276.22464 284.15984 275.1355 284.86391 274.6875 285.50391 C 274.2395 286.20791 273.08891 286.7207 272.12891 286.7207 C 271.16891 286.7207 269.69528 287.16814 268.86328 287.74414 C 267.58328 288.64014 267.07294 288.704 264.96094 288 C 263.61694 287.552 261.56802 287.35923 260.41602 287.61523 C 258.88002 287.87123 257.4712 287.55148 254.7832 286.27148 C 252.6072 285.24748 250.24063 284.60742 248.64062 284.60742 C 246.72062 284.67142 245.63156 284.28827 244.35156 283.07227 C 243.19956 281.98427 242.3042 281.59947 241.4082 281.85547 C 240.7042 282.11147 239.93569 281.98316 239.67969 281.53516 C 239.42369 281.15116 237.11905 279.8727 234.62305 278.7207 C 232.12705 277.5687 229.50478 276.03122 228.80078 275.19922 C 228.09678 274.43122 226.68761 273.34403 225.59961 272.83203 C 224.57561 272.25603 218.88064 267.00714 213.05664 261.11914 C 201.79264 249.66314 202.30477 250.49697 200.38477 241.79297 C 199.48877 237.95297 199.48831 226.88 200.32031 224 C 200.70431 222.784 201.28006 220.28855 201.66406 218.56055 C 202.43206 214.46455 211.1352 196.86309 214.7832 191.87109 C 216.3192 189.75909 217.59961 187.71258 217.59961 187.39258 C 217.59961 185.28058 234.56092 167.03906 236.54492 167.03906 C 236.80092 167.03906 238.33555 165.95292 239.93555 164.54492 C 241.59955 163.20092 244.03191 161.53558 245.50391 160.76758 C 246.91191 160.06358 248.44848 159.03934 248.89648 158.52734 C 249.28048 158.01534 252.92894 155.45648 256.96094 152.89648 C 260.99294 150.27248 265.53627 147.39164 267.07227 146.43164 C 279.68027 138.30364 296.44722 132.54347 315.19922 129.85547 C 326.65522 128.19147 326.27177 128.25614 341.75977 127.74414 L 354.88086 127.29688 L 362.56055 128.64062 C 375.48855 130.94463 376.76894 131.26394 384.96094 134.33594 C 399.16894 139.58394 406.65577 143.1043 413.75977 147.9043 C 416.25577 149.5683 419.13616 151.29659 420.16016 151.80859 C 421.24816 152.25659 424.19241 154.36847 426.81641 156.48047 C 429.37641 158.59247 433.40889 161.72858 435.71289 163.39258 C 438.08089 165.05658 440.70406 167.23141 441.66406 168.19141 C 445.24806 171.96741 454.20859 180.2245 455.80859 181.3125 C 456.76859 181.8885 458.55984 183.93697 459.83984 185.79297 C 461.05584 187.58497 463.36048 190.72062 464.89648 192.64062 C 466.43248 194.56063 469.50369 199.61584 471.67969 203.83984 C 473.91969 208.06384 476.47945 212.9287 477.43945 214.7207 C 493.11945 243.8407 496.64005 253.37569 501.24805 279.67969 L 502.65625 287.67969 L 502.65625 309.75977 C 502.59225 321.91977 502.39903 333.43937 502.20703 335.35938 C 500.99103 347.13538 500.28886 351.61542 498.88086 356.60742 C 497.98486 359.67942 497.2793 362.9443 497.2793 363.9043 C 497.2793 364.8643 496.70445 366.84786 496.06445 368.25586 C 495.42445 369.72786 494.71934 371.58447 494.52734 372.48047 C 492.67134 381.05647 491.77578 384.25675 490.17578 387.96875 C 489.15178 390.27275 488.32031 392.57544 488.32031 393.02344 C 488.32031 393.47144 487.03945 396.54459 485.43945 399.80859 C 483.83945 403.00859 482.56055 405.88853 482.56055 406.14453 C 482.56055 406.40053 482.0482 407.23155 481.4082 407.93555 C 480.7682 408.70355 479.67906 410.68847 479.03906 412.48047 C 477.82306 415.68047 473.4727 422.59161 470.7207 425.59961 C 469.5047 426.94361 468.09694 428.99147 464.96094 433.85547 C 464.32094 434.87947 460.28873 440.06317 455.55273 445.95117 C 453.37673 448.70317 444.92761 457.85514 441.59961 461.11914 C 441.21561 461.43914 438.40013 464.25567 435.32812 467.26367 C 432.25612 470.27167 427.45663 474.68819 424.64062 476.99219 C 421.82462 479.36019 418.62361 482.11122 417.59961 483.19922 C 416.51161 484.22322 415.42352 485.11914 415.10352 485.11914 C 414.84752 485.11914 412.92886 486.46491 410.88086 488.12891 C 408.83286 489.85691 406.08078 491.90478 404.80078 492.80078 C 403.58478 493.69678 400.89656 495.61589 398.97656 497.08789 C 396.99256 498.62389 395.00855 499.83984 394.56055 499.83984 C 394.11255 499.83984 393.08786 500.35264 392.25586 501.05664 C 390.91186 502.08064 380.03286 508.3513 370.88086 513.2793 C 367.55286 515.0713 364.03145 517.1208 357.43945 521.2168 C 355.32745 522.4968 350.59286 524.9912 346.88086 526.7832 C 343.16886 528.5752 339.45655 530.43286 338.56055 530.88086 C 337.66455 531.32886 335.93625 531.8397 334.65625 532.0957 C 333.31225 532.3517 331.96753 532.92745 331.51953 533.43945 C 331.13553 533.95145 329.21688 534.91123 327.29688 535.61523 C 325.44087 536.31923 322.36772 537.7275 320.51172 538.6875 C 318.65572 539.7115 315.84023 540.92745 314.24023 541.43945 C 312.64023 541.95145 310.20878 543.04059 308.80078 543.80859 C 307.39278 544.64059 305.66494 545.2793 304.96094 545.2793 C 304.25694 545.2793 303.10484 545.72823 302.46484 546.24023 C 301.76084 546.75223 300.22336 547.19922 298.94336 547.19922 C 297.72736 547.19922 295.48717 547.90328 293.95117 548.86328 C 292.41517 549.75928 290.88055 550.27208 290.56055 550.08008 C 289.98455 549.76008 276.54497 554.17598 273.79297 555.58398 C 273.15297 555.90398 272.06488 556.16016 271.29688 556.16016 C 270.08087 556.16016 266.94341 557.3112 264.19141 558.7832 C 263.55141 559.1032 262.46422 559.35938 261.82422 559.35938 C 261.12022 559.35938 259.90427 559.61555 259.07227 559.93555 C 258.24027 560.25555 255.87177 560.8313 253.75977 561.2793 C 251.64777 561.6633 248.19208 562.56012 246.08008 563.32812 C 241.79208 564.80013 238.71992 565.56839 233.91992 566.40039 C 232.19192 566.65639 228.16094 567.42445 224.96094 568.06445 C 221.82494 568.64045 218.17648 569.08744 216.89648 569.02344 C 215.61648 568.95944 212.73609 569.34392 210.49609 569.91992 C 208.25609 570.43192 204.92872 570.88086 203.13672 570.88086 C 201.34472 570.88086 198.97622 571.3283 197.82422 571.9043 C 196.67222 572.4803 194.43158 573.05559 192.76758 573.18359 C 186.23958 573.69559 185.15186 573.88839 184.25586 574.40039 C 183.74386 574.72039 181.05623 575.03952 178.24023 575.10352 C 175.23223 575.10352 171.71206 575.61631 169.66406 576.32031 C 166.08006 577.47231 155.71278 577.98497 140.80078 577.79297 C 129.21678 577.60097 119.03973 578.04886 116.92773 578.88086 C 115.96773 579.32886 111.7448 579.51984 97.216797 579.83984 C 94.528797 579.90384 91.071609 579.58322 89.599609 579.19922 C 87.551609 578.62322 86.464641 578.62367 85.056641 579.26367 C 83.648641 579.77567 82.495266 579.84013 80.447266 579.32812 C 78.975266 578.94412 75.007688 578.43223 71.679688 578.24023 C 68.351687 577.98423 65.215125 577.47189 64.703125 577.08789 C 64.191125 576.63989 61.759672 576.25586 59.263672 576.25586 C 53.823672 576.12786 47.6805 575.16808 45.3125 574.08008 C 43.9685 573.44008 43.136828 573.44067 42.048828 573.88867 C 41.088828 574.33667 40.191234 574.39963 39.615234 574.01562 C 39.103234 573.69562 38.143906 573.43945 37.503906 573.43945 C 36.799906 573.43945 34.816938 572.7363 32.960938 571.9043 C 31.168937 571.0083 28.3515 569.98316 26.6875 569.53516 C 22.1435 568.38316 21.055734 565.056 20.927734 552 C 20.799734 528.448 21.376219 457.98423 21.824219 450.24023 C 22.336219 441.02423 22.016922 435.71223 20.544922 426.24023 C 20.160922 423.80823 19.775984 403.64792 19.583984 377.91992 C 18.879984 270.01592 18.816516 266.23906 17.728516 255.03906 C 16.704516 244.99106 16.384141 239.1047 15.744141 222.7207 C 15.616141 219.3927 15.295063 211.90408 15.039062 206.08008 C 14.079062 185.21608 13.695797 25.728031 14.591797 24.832031 C 15.039797 24.448031 47.807922 24.000312 49.919922 24.320312 C 51.775922 24.640313 88.064266 23.551063 91.072266 23.039062 C 92.736266 22.783062 94.847687 22.720109 95.679688 22.912109 C 96.575688 23.040109 98.49525 22.911344 100.03125 22.527344 C 101.50325 22.143344 106.3047 21.631453 110.7207 21.439453 C 115.1367 21.183453 118.97537 20.799422 119.35938 20.607422 C 119.67938 20.415422 124.60823 20.159703 130.24023 20.095703 C 149.12023 19.839703 185.152 17.600141 200 15.744141 C 205.312 15.104141 216.51202 14.656844 236.41602 14.464844 C 252.22402 14.272844 265.21575 14.015172 265.34375 13.951172 C 265.40775 13.871172 267.60869 13.831266 271.05469 13.822266 z M 581.13086 110.2168 C 592.67186 110.2918 616.1927 110.87937 622.7207 111.35938 C 627.8407 111.74338 635.0087 112.19277 638.7207 112.38477 C 648.0647 112.89677 647.55109 112.44897 647.87109 121.79297 C 647.99909 126.08097 648.44803 130.88047 648.83203 132.48047 C 649.47203 134.97647 650.56069 152.76847 650.30469 156.48047 C 650.24069 157.18447 650.24069 161.66439 650.30469 166.40039 C 650.36869 171.13639 650.43164 176.89522 650.43164 179.19922 C 650.43164 181.50322 650.24038 193.8567 649.98438 206.7207 C 649.34437 238.5287 649.40778 260.99123 650.17578 263.61523 C 650.55978 264.83123 650.68809 266.04719 650.49609 266.36719 C 650.30409 266.68719 650.04747 273.15158 649.85547 280.76758 C 649.72747 288.38358 649.28048 295.61558 648.89648 296.76758 C 648.51248 297.98358 648.38417 299.32784 648.57617 299.83984 C 648.89617 300.79984 649.02494 307.00847 648.96094 324.48047 C 648.89694 330.62447 649.0873 344.00023 649.2793 354.24023 C 649.5353 364.41623 649.72852 373.24777 649.72852 373.75977 C 649.79252 378.81577 648.95913 398.78487 648.70312 399.29688 C 647.80712 400.70488 647.0407 407.10487 646.7207 415.29688 C 646.5287 420.09688 646.14422 424.83192 645.82422 425.91992 C 645.50422 426.94392 644.86447 434.30423 644.48047 442.24023 C 644.03247 450.17623 643.58458 456.89634 643.39258 457.15234 C 643.20058 457.47234 642.94441 460.92803 642.81641 464.83203 C 642.68841 468.80003 642.43223 472.83192 642.24023 473.91992 C 641.98423 475.77592 641.02434 495.93592 641.15234 497.91992 C 641.21634 498.43192 641.40761 506.04886 641.59961 514.88086 C 641.79161 523.64886 642.11178 532.15977 642.17578 533.75977 C 642.30378 535.35977 642.68827 539.84014 643.07227 543.74414 C 643.39227 547.71214 643.52058 553.59928 643.39258 556.86328 C 643.26458 560.19128 643.5837 566.71908 644.0957 571.45508 C 644.7997 577.27908 644.86402 580.35159 644.41602 581.18359 C 644.09602 581.82359 643.77539 584.44781 643.77539 587.00781 C 643.71139 589.56781 643.45522 592.12712 643.19922 592.70312 C 642.87922 593.27913 642.49519 597.31206 642.36719 601.66406 C 642.17519 606.01606 641.92052 610.04855 641.72852 610.56055 C 641.08852 612.16055 640.63912 617.6007 640.70312 622.7207 C 640.70312 625.9207 640.38414 628.22345 639.74414 629.43945 C 638.46414 631.87145 638.46414 633.85584 639.74414 635.83984 C 642.24014 639.61584 638.84831 642.49533 632.32031 642.11133 C 630.01631 641.98333 623.68023 641.72761 618.24023 641.59961 C 612.80023 641.47161 606.01522 641.02463 603.19922 640.64062 C 600.38322 640.25662 594.7527 640.06341 590.7207 640.19141 C 586.6887 640.38341 579.4567 640.63958 574.7207 640.76758 C 569.9847 640.95958 564.48055 641.27916 562.56055 641.53516 C 560.64055 641.79116 558.01678 641.98438 556.80078 641.98438 C 555.58478 641.98438 552.38377 642.24055 549.75977 642.56055 C 544.06377 643.32855 534.46336 643.9683 530.94336 643.9043 C 529.53536 643.9043 527.23222 644.16092 525.82422 644.54492 C 522.68822 645.37692 508.28855 645.82422 482.56055 645.82422 C 465.08855 645.88822 459.6487 645.69678 446.7207 644.80078 C 442.2407 644.41678 437.05541 644.28802 432.19141 644.41602 L 428.67188 644.41602 C 427.83987 644.35202 415.10431 644.54433 400.32031 644.73633 C 368.38431 645.12033 373.69647 645.12078 364.48047 644.80078 C 360.25647 644.60878 352.06469 644.3517 346.30469 644.0957 C 340.48069 643.9037 335.2952 643.51967 334.7832 643.26367 C 333.6952 642.62367 318.01664 642.75258 317.05664 643.39258 C 316.03264 644.03258 300.28808 644.54447 286.08008 644.48047 C 265.98408 644.28847 265.72847 644.28878 252.48047 644.80078 C 228.03247 645.63278 217.98361 645.63188 209.59961 644.67188 C 205.05561 644.15987 198.59167 643.58308 195.26367 643.45508 C 191.93567 643.26308 188.73661 642.87905 188.22461 642.62305 C 185.85661 641.40705 143.16861 642.4323 132.22461 643.9043 C 129.40861 644.2883 125.63184 644.73528 123.83984 644.86328 C 122.11184 644.99128 119.03914 645.37622 117.11914 645.82422 C 115.19914 646.20822 112.06453 646.52884 110.14453 646.46484 C 108.22453 646.46484 106.30347 646.71952 105.85547 647.10352 C 105.40747 647.42352 102.40027 647.74414 99.072266 647.74414 C 95.808266 647.74414 92.735109 647.99986 92.287109 648.25586 C 91.775109 648.51186 90.239578 648.51291 88.767578 648.12891 C 87.295578 647.80891 84.095609 647.48783 81.599609 647.42383 C 79.167609 647.35983 75.264938 647.10366 72.960938 646.84766 C 68.416937 646.33566 59.967063 645.88791 47.039062 645.50391 C 22.591062 644.67191 23.424141 644.99184 23.744141 635.83984 C 23.808141 634.43184 23.680734 627.9045 23.552734 621.3125 C 23.232734 609.1525 23.487891 607.16727 25.087891 608.44727 C 25.535891 608.83127 27.519453 609.28066 29.439453 609.47266 C 31.359453 609.66466 38.016156 610.43272 44.160156 611.13672 C 50.304156 611.84072 58.560391 612.60878 62.400391 612.80078 C 78.656391 613.63278 80.576234 613.76039 82.240234 614.40039 C 83.392234 614.84839 84.735625 614.84884 86.015625 614.46484 C 87.103625 614.14484 91.455687 613.69545 95.679688 613.43945 C 99.903688 613.24745 104.96086 612.92878 106.88086 612.80078 C 108.80086 612.67278 116.92819 612.28875 124.99219 611.96875 C 132.99219 611.58475 140.54377 610.94455 141.75977 610.56055 C 142.97577 610.17655 144.25617 609.98378 144.57617 610.17578 C 144.89617 610.43178 146.55911 610.30392 148.28711 609.91992 C 150.91111 609.40792 160.76792 608.31923 169.91992 607.61523 C 174.33592 607.29523 182.52861 606.01633 188.22461 604.73633 C 191.29661 604.09633 194.55998 603.51953 195.58398 603.51953 C 196.60798 603.51953 199.48837 603.07255 201.98438 602.56055 C 207.68038 601.40855 214.97617 600.19186 216.57617 600.25586 C 217.21617 600.25586 221.24716 599.42394 225.53516 598.33594 C 229.75916 597.31194 235.32777 596.03108 237.75977 595.45508 C 240.25577 594.94308 243.71145 594.04761 245.43945 593.59961 C 247.23145 593.08761 249.91953 592.38445 251.51953 592.06445 C 257.27953 590.72045 266.0487 588.22455 270.7207 586.56055 C 273.3447 585.66455 276.41545 584.64077 277.43945 584.38477 C 278.52745 584.12877 280.3202 583.4232 281.4082 582.7832 C 283.3282 581.8232 287.99961 580.09577 305.59961 573.75977 C 313.15161 571.07177 317.50455 569.28011 322.56055 566.91211 C 331.77655 562.56011 357.31273 549.69661 359.55273 548.22461 C 360.89673 547.39261 364.09625 545.66477 366.65625 544.38477 C 369.28025 543.10477 373.31169 540.79922 375.67969 539.19922 C 378.04769 537.59922 380.28787 536.32031 380.67188 536.32031 C 381.05588 536.32031 382.71927 535.23267 384.44727 533.88867 C 389.37527 530.11267 391.55231 528.64062 392.32031 528.64062 C 393.08831 528.64062 398.72006 524.99105 401.66406 522.62305 C 402.81606 521.72705 403.8397 520.96094 404.0957 520.96094 C 404.2877 520.96094 405.82428 519.99966 407.48828 518.84766 C 409.21628 517.63166 411.00753 516.47911 411.51953 516.28711 C 414.78353 514.87911 435.71184 499.07184 443.83984 491.83984 C 447.74384 488.38384 452.35253 484.48072 454.14453 483.13672 C 456.00053 481.79272 461.05575 476.86341 465.34375 472.19141 C 472.95975 463.99941 474.68789 461.95145 481.08789 453.43945 C 498.17589 430.59145 496.63983 433.02486 503.42383 418.88086 C 509.05583 407.10486 512.70394 396.67231 518.33594 376.32031 C 519.99994 370.24031 522.04809 357.7607 522.49609 350.7207 C 522.68809 347.7127 523.13553 342.27255 523.51953 338.56055 C 523.90353 334.84855 524.28847 328.25584 524.48047 323.83984 C 524.67247 319.42384 525.11991 309.50377 525.50391 301.75977 L 526.20703 287.67969 L 524.54492 274.56055 C 521.66492 252.03255 517.18359 234.81552 509.18359 215.10352 C 508.28759 212.79952 507.51953 210.55933 507.51953 210.11133 C 507.51953 209.59933 506.36744 206.84875 505.02344 203.96875 C 503.61544 201.08875 501.56802 196.67223 500.41602 194.24023 C 494.97602 182.52823 485.76069 167.1683 482.30469 163.9043 C 481.40869 163.0083 480.64062 162.04852 480.64062 161.72852 C 480.64062 161.02452 479.16875 159.48816 467.96875 148.16016 C 463.42475 143.55216 458.36713 138.81561 456.70312 137.59961 C 455.03912 136.38361 452.35195 134.27219 450.75195 132.99219 C 449.08795 131.71219 446.0163 129.72817 443.9043 128.57617 C 441.7283 127.48817 439.55106 126.20777 439.03906 125.75977 C 438.52706 125.31177 436.09561 123.84055 433.59961 122.56055 C 431.16761 121.21655 428.60875 119.67997 427.96875 119.16797 L 426.81641 118.14453 L 427.96875 117.75977 C 428.60875 117.50377 434.048 117.24805 440 117.24805 C 464.576 116.99205 482.11255 116.35108 490.56055 115.45508 C 506.17655 113.85508 541.31153 111.61611 563.51953 110.91211 C 569.53553 110.72011 574.52825 110.46394 574.65625 110.33594 C 574.76825 110.22394 577.28386 110.1918 581.13086 110.2168 z "
       id="path885"
       transform="matrix(15.625,0,0,-15.625,0,10380)" />
  </g>
</svg>
