<?xml version="1.0" standalone="no"?>
<!DOCTYPE svg PUBLIC "-//W3C//DTD SVG 20010904//EN"
 "http://www.w3.org/TR/2001/REC-SVG-20010904/DTD/svg10.dtd">
<svg version="1.0" xmlns="http://www.w3.org/2000/svg"
 width="498.240000pt" height="498.240000pt" viewBox="0 0 498.240000 498.240000"
 preserveAspectRatio="xMidYMid meet">
<metadata>
Created by potrace 1.12, written by Peter Selinger 2001-2015
</metadata>
<g transform="translate(0.000000,498.240000) scale(0.048000,-0.048000)"
fill="#000000" stroke="none">
<path fill="#000000" stroke="none" d="M0 5190 l0 -5190 5190 0 5190 0 0 5190
0 5190 -5190 0 -5190 0 0 -5190z"/>
<path fill="#ffffff" stroke="none" d="M5029 10158 c108 -8 247 -8 465 -2 410
12 593 9 816 -11 179 -17 392 -19 1150 -12 102 0 273 -1 380 -3 141 -4 252 0
400 13 355 32 421 32 640 3 285 -38 652 -66 867 -67 307 0 292 19 304 -392 21
-666 29 -821 49 -932 21 -119 45 -365 60 -620 9 -166 4 -1760 -8 -2640 l-8
-500 -17 -33 c-10 -18 -53 -72 -95 -120 -43 -48 -109 -125 -148 -172 -39 -47
-123 -136 -185 -198 -63 -62 -181 -182 -263 -265 -287 -292 -510 -509 -585
-569 -149 -118 -189 -154 -422 -381 -96 -95 -222 -217 -280 -272 -57 -55 -131
-129 -165 -165 -63 -68 -340 -338 -435 -425 -31 -27 -87 -93 -126 -145 -74
-99 -372 -403 -418 -428 -43 -22 -71 -9 -83 40 -22 88 -41 693 -52 1638 -5
446 -14 802 -25 970 -22 353 -26 1177 -6 1233 18 53 49 64 206 72 181 9 1414
13 1505 4 41 -3 154 -10 250 -13 320 -13 327 -16 365 -169 45 -180 122 -253
229 -217 85 28 90 75 82 810 -4 322 -11 626 -16 675 -6 50 -14 225 -19 390
l-9 300 -22 57 c-45 120 -175 184 -291 143 -125 -44 -160 -172 -119 -427 43
-266 54 -504 24 -529 -46 -38 -291 211 -694 706 -85 104 -244 281 -352 393
-109 112 -198 207 -198 211 0 7 -369 363 -561 541 -63 58 -157 138 -209 177
-92 69 -129 107 -257 263 -117 143 -373 393 -463 453 -167 112 -182 105 -585
-285 -305 -295 -372 -354 -560 -498 -39 -30 -100 -80 -136 -111 -35 -31 -109
-91 -164 -134 -55 -42 -131 -107 -170 -144 -68 -65 -275 -234 -345 -281 -19
-13 -75 -58 -125 -100 -49 -42 -109 -90 -133 -107 -23 -17 -82 -68 -130 -114
-101 -96 -214 -189 -285 -236 -27 -17 -64 -45 -83 -62 -18 -17 -73 -61 -121
-98 -49 -37 -117 -93 -153 -124 -36 -32 -102 -87 -146 -121 -167 -129 -231
-183 -314 -263 -80 -78 -196 -169 -350 -277 -37 -26 -115 -91 -175 -145 -59
-54 -138 -121 -177 -150 -38 -29 -115 -96 -171 -149 -56 -54 -138 -124 -182
-157 -115 -84 -273 -225 -394 -350 -57 -59 -133 -131 -168 -159 -35 -29 -123
-115 -195 -193 -72 -77 -180 -180 -240 -228 -59 -49 -121 -105 -136 -125 -38
-51 -286 -302 -298 -302 -6 0 -19 6 -29 14 l-20 14 -7 194 c-4 106 -10 452
-12 768 -2 403 -8 635 -19 775 -44 553 -48 713 -52 2095 -2 624 -6 1176 -10
1225 -8 104 7 230 32 257 32 35 88 41 418 40 376 -1 762 12 953 34 76 8 238
19 362 24 574 25 962 49 1093 70 34 6 276 15 537 20 893 19 1154 18 1429 -2z"/>
<path fill="#ffffff" stroke="none" d="M6421 8888 c158 -163 175 -188 165
-242 -7 -38 -89 -123 -193 -201 -34 -25 -183 -166 -330 -313 -282 -281 -395
-385 -502 -466 -36 -26 -95 -75 -131 -106 -75 -67 -345 -291 -640 -530 -112
-91 -208 -169 -214 -175 -6 -5 -31 -28 -56 -49 -25 -22 -101 -92 -170 -157
-69 -64 -206 -183 -305 -263 -99 -81 -223 -183 -275 -227 -52 -44 -138 -115
-191 -158 -235 -190 -500 -416 -734 -625 -170 -152 -193 -174 -300 -276 -140
-134 -352 -317 -430 -371 -33 -23 -82 -61 -110 -84 -27 -22 -81 -64 -120 -92
-38 -29 -100 -83 -136 -120 -57 -59 -140 -135 -243 -223 -16 -14 -53 -45 -81
-70 -28 -25 -75 -65 -105 -90 -29 -25 -79 -67 -109 -93 -67 -58 -270 -217
-390 -305 -374 -274 -452 -300 -480 -157 -47 244 -55 547 -15 597 36 46 171
155 283 230 58 39 128 91 156 116 27 24 92 72 145 107 52 35 133 99 180 142
47 43 121 109 165 147 44 37 197 184 340 325 243 241 417 402 659 615 129 113
185 165 321 295 134 129 213 198 325 281 86 65 182 143 460 380 152 128 286
235 568 453 78 60 183 145 234 190 115 100 230 194 498 407 113 90 237 191
275 225 39 34 178 148 310 254 132 106 332 272 445 370 356 308 493 411 548
411 l35 0 148 -152z"/>
<path fill="#ffffff" stroke="none" d="M7042 8263 c51 -45 174 -166 273 -269
99 -104 252 -263 341 -354 206 -211 334 -364 525 -626 48 -66 129 -164 180
-220 164 -175 407 -457 452 -524 23 -33 21 -63 -3 -85 l-20 -18 -257 11 c-142
7 -483 15 -758 18 -883 12 -833 10 -861 28 -52 35 -56 154 -15 364 52 260 14
500 -87 544 l-46 21 -69 -11 c-95 -15 -137 -44 -178 -127 l-32 -66 17 -242 c9
-133 24 -273 32 -312 21 -94 13 -231 -23 -405 l-28 -135 2 -285 c2 -177 8
-323 17 -385 10 -71 14 -227 16 -540 1 -242 5 -534 9 -650 3 -115 5 -316 4
-445 -1 -129 -1 -433 0 -675 3 -855 2 -993 -12 -1280 l-14 -290 17 -57 c21
-73 59 -111 138 -137 138 -46 183 -39 228 33 12 20 69 75 128 123 286 235 485
430 723 705 224 261 1019 1054 1254 1252 94 79 285 258 425 397 413 410 606
579 661 579 56 0 57 -11 29 -340 -5 -63 -14 -180 -20 -260 -6 -80 -17 -230
-25 -335 -33 -439 -37 -587 -24 -955 6 -195 13 -407 15 -470 2 -63 8 -200 14
-305 l11 -190 -26 -270 c-37 -392 -44 -470 -51 -570 -13 -173 -14 -174 -382
-154 -430 23 -643 15 -1322 -47 -333 -30 -813 -39 -1135 -20 -230 14 -396 16
-805 12 -313 -3 -625 0 -795 7 -339 14 -471 14 -1280 -4 -802 -18 -916 -17
-1145 10 -393 46 -821 38 -1285 -26 -279 -39 -568 -37 -1245 8 -271 18 -254
-27 -245 621 l6 477 -27 133 -27 133 2 455 c3 612 -2 584 123 684 44 36 106
95 137 130 31 35 81 83 111 107 30 23 78 63 105 88 51 46 346 279 460 363 33
25 85 68 117 96 31 29 96 84 144 122 48 39 150 127 226 196 76 70 166 149 200
176 35 28 95 78 133 112 108 96 215 187 270 231 58 47 223 192 245 216 16 17
131 119 285 252 50 42 127 117 173 167 48 51 150 141 240 211 86 67 189 152
227 189 83 78 218 191 295 245 91 64 280 224 358 302 40 40 141 131 225 200
84 70 191 164 240 210 106 100 345 301 444 375 40 29 123 98 185 153 157 139
333 287 533 447 94 74 182 148 196 164 14 16 92 92 173 169 81 77 230 222 332
322 280 276 330 314 406 309 l46 -3 94 -80z"/>
</g>
</svg>
