<?xml version="1.0" encoding="UTF-8" standalone="no"?>
<svg
   xmlns:dc="http://purl.org/dc/elements/1.1/"
   xmlns:cc="http://creativecommons.org/ns#"
   xmlns:rdf="http://www.w3.org/1999/02/22-rdf-syntax-ns#"
   xmlns:svg="http://www.w3.org/2000/svg"
   xmlns="http://www.w3.org/2000/svg"
   xmlns:sodipodi="http://sodipodi.sourceforge.net/DTD/sodipodi-0.dtd"
   xmlns:inkscape="http://www.inkscape.org/namespaces/inkscape"
   version="1.0"
   width="498.240000pt"
   height="498.240000pt"
   viewBox="0 0 498.240000 498.240000"
   preserveAspectRatio="xMidYMid meet"
   id="svg977"
   sodipodi:docname="4-7.svg"
   inkscape:version="0.92.4 (5da689c313, 2019-01-14)">
  <defs
     id="defs981" />
  <sodipodi:namedview
     pagecolor="#ffffff"
     bordercolor="#666666"
     borderopacity="1"
     objecttolerance="10"
     gridtolerance="10"
     guidetolerance="10"
     inkscape:pageopacity="0"
     inkscape:pageshadow="2"
     inkscape:window-width="1630"
     inkscape:window-height="1005"
     id="namedview979"
     showgrid="false"
     inkscape:zoom="1.2072495"
     inkscape:cx="332.15999"
     inkscape:cy="332.15999"
     inkscape:window-x="0"
     inkscape:window-y="1"
     inkscape:window-maximized="1"
     inkscape:current-layer="svg977" />
  <metadata
     id="metadata965">
Created by potrace 1.12, written by Peter Selinger 2001-2015
<rdf:RDF>
  <cc:Work
     rdf:about="">
    <dc:format>image/svg+xml</dc:format>
    <dc:type
       rdf:resource="http://purl.org/dc/dcmitype/StillImage" />
    <dc:title></dc:title>
  </cc:Work>
</rdf:RDF>
</metadata>
  <g
     transform="translate(0.000000,498.240000) scale(0.048000,-0.048000)"
     fill="#000000"
     stroke="none"
     id="g975">
    <path
       style="fill:#000000;stroke:none;stroke-width:0.064"
       d="M 0 0 L 0 332.16016 L 0 664.32031 L 332.16016 664.32031 L 664.32031 664.32031 L 664.32031 332.16016 L 664.32031 0 L 332.16016 0 L 0 0 z M 290.96094 13.207031 C 304.48094 13.231031 313.05547 13.567031 321.85547 14.207031 C 328.76747 14.719031 337.66323 14.719938 351.61523 14.335938 C 377.85523 13.567936 389.56784 13.759062 403.83984 15.039062 C 415.29584 16.127064 428.92745 16.256594 477.43945 15.808594 C 483.96745 15.808594 494.91177 15.872 501.75977 16 C 510.78377 16.256 517.88736 15.999969 527.35938 15.167969 C 550.07938 13.119969 554.30431 13.120562 568.32031 14.976562 C 586.56031 17.408564 610.04859 19.199672 623.80859 19.263672 C 643.45659 19.263672 642.49567 18.047562 643.26367 44.351562 C 644.60767 86.975564 645.12039 96.896 646.40039 104 C 647.74439 111.616 649.28023 127.35969 650.24023 143.67969 C 650.81623 154.30369 650.49652 256.32062 649.72852 312.64062 L 649.2168 344.64062 L 648.12891 346.75195 C 647.48891 347.90395 644.73683 351.35964 642.04883 354.43164 C 639.29683 357.50364 635.07217 362.43145 632.57617 365.43945 C 630.08017 368.44745 624.70433 374.14333 620.73633 378.11133 C 616.70433 382.07933 609.1523 389.76027 603.9043 395.07227 C 585.5363 413.76027 571.26484 427.64828 566.46484 431.48828 C 556.92884 439.04028 554.36708 441.34309 539.45508 455.87109 C 533.31108 461.95109 525.24716 469.7593 521.53516 473.2793 C 517.88716 476.7993 513.15256 481.53584 510.97656 483.83984 C 506.94456 488.19184 489.21672 505.47106 483.13672 511.03906 C 481.15272 512.76706 477.56827 516.99231 475.07227 520.32031 C 470.33627 526.65631 451.26431 546.11289 448.32031 547.71289 C 445.56831 549.12089 443.77581 548.28834 443.00781 545.15234 C 441.59981 539.52034 440.38369 500.80031 439.67969 440.32031 C 439.35969 411.77631 438.78408 388.99223 438.08008 378.24023 C 436.67208 355.64823 436.41531 302.91214 437.69531 299.32812 C 438.84731 295.93612 440.83286 295.2327 450.88086 294.7207 C 462.46486 294.1447 541.37522 293.88884 547.19922 294.46484 C 549.82322 294.65684 557.05522 295.10486 563.19922 295.29688 C 583.67922 296.12888 584.12855 296.31933 586.56055 306.11133 C 589.44055 317.63133 594.3688 322.304 601.2168 320 C 606.6568 318.208 606.97684 315.20016 606.46484 268.16016 C 606.20884 247.55216 605.75945 228.09694 605.43945 224.96094 C 605.05545 221.76094 604.54461 210.56 604.22461 200 L 603.64844 180.80078 L 602.24023 177.15234 C 599.36023 169.47234 591.03923 165.376 583.61523 168 C 575.61523 170.816 573.376 179.00812 576 195.32812 C 578.752 212.35214 579.45516 227.58359 577.53516 229.18359 C 574.59116 231.61559 558.91114 215.68 533.11914 184 C 527.67914 177.344 517.5038 166.01566 510.5918 158.84766 C 503.6158 151.67966 497.91992 145.59975 497.91992 145.34375 C 497.91992 144.89575 474.30364 122.1127 462.01562 110.7207 C 457.98362 107.0087 451.96864 101.88858 448.64062 99.392578 C 442.75262 94.976578 440.38341 92.544547 432.19141 82.560547 C 424.70341 73.408547 408.32055 57.408359 402.56055 53.568359 C 391.87255 46.400359 390.91114 46.848592 365.11914 71.808594 C 345.59914 90.688594 341.3113 94.463684 329.2793 103.67969 C 326.7833 105.59969 322.88017 108.7992 320.57617 110.7832 C 318.33617 112.7672 313.60008 116.60736 310.08008 119.35938 C 306.56008 122.04738 301.69522 126.20817 299.19922 128.57617 C 294.84722 132.73617 281.59914 143.55255 277.11914 146.56055 C 275.90314 147.39255 272.31914 150.27294 269.11914 152.96094 C 265.98314 155.64894 262.14342 158.72059 260.60742 159.80859 C 259.13542 160.89659 255.35911 164.15952 252.28711 167.10352 C 245.82311 173.24752 238.59283 179.19903 234.04883 182.20703 C 232.32083 183.29503 229.95233 185.08778 228.73633 186.17578 C 227.58433 187.26378 224.06419 190.07927 220.99219 192.44727 C 217.85619 194.81527 213.50322 198.40077 211.19922 200.38477 C 208.89522 202.43277 204.67147 205.95291 201.85547 208.12891 C 191.16747 216.38491 187.07177 219.84094 181.75977 224.96094 C 176.63977 229.95294 169.21538 235.7755 159.35938 242.6875 C 156.99136 244.3515 152.00016 248.51275 148.16016 251.96875 C 144.38416 255.42475 139.32803 259.71236 136.83203 261.56836 C 134.40003 263.42436 129.47267 267.71152 125.88867 271.10352 C 122.30467 274.55952 117.05623 279.04034 114.24023 281.15234 C 106.88023 286.52834 96.767438 295.55273 89.023438 303.55273 C 85.375436 307.32873 80.511484 311.93652 78.271484 313.72852 C 76.031484 315.58452 70.400969 321.08808 65.792969 326.08008 C 61.184969 331.00808 54.271641 337.59986 50.431641 340.67188 C 46.655641 343.80788 42.688516 347.39186 41.728516 348.67188 C 39.296516 351.93588 23.42425 368 22.65625 368 C 22.27225 368 21.440781 367.61552 20.800781 367.10352 L 19.519531 366.20703 L 19.072266 353.79297 C 18.816266 347.00897 18.432688 324.86464 18.304688 304.64062 C 18.176686 278.84862 17.791891 263.99906 17.087891 255.03906 C 14.271891 219.64706 14.015766 209.40894 13.759766 120.96094 C 13.631766 81.024934 13.375141 45.696547 13.119141 42.560547 C 12.607141 35.904547 13.567969 27.839328 15.167969 26.111328 C 17.215969 23.871328 20.799922 23.488734 41.919922 23.552734 C 65.983922 23.616734 90.688108 22.784953 102.91211 21.376953 C 107.77611 20.864953 118.14408 20.159844 126.08008 19.839844 C 162.81608 18.239844 187.64725 16.703375 196.03125 15.359375 C 198.20725 14.975375 213.69639 14.400078 230.40039 14.080078 C 258.97639 13.472078 277.44094 13.183031 290.96094 13.207031 z M 399.23242 85.759766 L 401.47266 85.759766 L 410.94336 95.488281 C 421.05536 105.92028 422.14391 107.52056 421.50391 110.97656 C 421.05591 113.40856 415.80834 118.84784 409.15234 123.83984 C 406.97634 125.43984 397.43925 134.46309 388.03125 143.87109 C 369.98325 161.85509 362.7523 168.51131 355.9043 173.69531 C 353.6003 175.35931 349.82353 178.49647 347.51953 180.48047 C 342.71953 184.76847 325.44055 199.10439 306.56055 214.40039 C 299.39255 220.22439 293.24728 225.21561 292.86328 225.59961 C 292.47928 225.91961 290.8793 227.39233 289.2793 228.73633 C 287.6793 230.14433 282.81639 234.6232 278.40039 238.7832 C 273.98439 242.8792 265.21686 250.49523 258.88086 255.61523 C 252.54486 260.79923 244.6073 267.32853 241.2793 270.14453 C 237.9513 272.96053 232.44864 277.50386 229.05664 280.25586 C 214.01664 292.41586 197.05608 306.87986 182.08008 320.25586 C 171.20008 329.98386 169.72886 331.39192 162.88086 337.91992 C 153.92086 346.49592 140.35138 358.20806 135.35938 361.66406 C 133.24736 363.13606 130.11231 365.56706 128.32031 367.03906 C 126.59231 368.44706 123.13664 371.13573 120.64062 372.92773 C 118.20862 374.78373 114.23955 378.23942 111.93555 380.60742 C 108.28755 384.38342 102.97677 389.24886 96.384766 394.88086 C 95.360766 395.77686 92.991219 397.75936 91.199219 399.35938 C 89.407219 400.95938 86.400469 403.51914 84.480469 405.11914 C 82.624469 406.71914 79.423906 409.40827 77.503906 411.07227 C 73.215906 414.78427 60.224922 424.9598 52.544922 430.5918 C 28.608922 448.1278 23.616219 449.79264 21.824219 440.64062 C 18.816219 425.02462 18.303281 405.63164 20.863281 402.43164 C 23.167281 399.48764 31.808562 392.51289 38.976562 387.71289 C 42.688564 385.21689 47.168936 381.88711 48.960938 380.28711 C 50.688938 378.75111 54.848234 375.67945 58.240234 373.43945 C 61.568234 371.19945 66.751766 367.10356 69.759766 364.35156 C 72.767766 361.59956 77.504312 357.37536 80.320312 354.94336 C 83.136314 352.57536 92.928076 343.16853 102.08008 334.14453 C 117.63208 318.72053 128.76786 308.4152 144.25586 294.7832 C 152.51186 287.5512 156.09678 284.2243 164.80078 275.9043 C 173.37678 267.6483 178.43161 263.23192 185.59961 257.91992 C 191.10361 253.75992 197.24706 248.76761 215.03906 233.59961 C 224.76706 225.40761 233.34458 218.55942 251.39258 204.60742 C 256.38458 200.76742 263.10319 195.32727 266.36719 192.44727 C 273.72719 186.04727 281.08823 180.03239 298.24023 166.40039 C 305.47223 160.64039 313.40784 154.176 315.83984 152 C 318.33584 149.824 327.23169 142.52814 335.67969 135.74414 C 344.12769 128.96014 356.92816 118.33645 364.16016 112.06445 C 386.94416 92.352456 395.71242 85.759766 399.23242 85.759766 z M 440.83203 130.15039 C 441.12703 130.14584 441.42452 130.15578 441.72852 130.17578 L 444.67188 130.36719 L 450.6875 135.48828 C 453.9515 138.36828 461.82416 146.11112 468.16016 152.70312 C 474.49616 159.35914 484.28836 169.53536 489.98438 175.35938 C 503.16838 188.86338 511.35998 198.65583 523.58398 215.42383 C 526.65598 219.64783 531.83952 225.91991 535.10352 229.50391 C 545.59952 240.70391 561.15125 258.75106 564.03125 263.03906 C 565.50325 265.15106 565.37584 267.07247 563.83984 268.48047 L 562.56055 269.63281 L 546.11133 268.92773 C 537.02333 268.47973 515.19961 267.96739 497.59961 267.77539 C 441.08761 267.00739 444.28809 267.13638 442.49609 265.98438 C 439.16809 263.74436 438.91116 256.1275 441.53516 242.6875 C 444.86316 226.0475 442.43275 210.68709 435.96875 207.87109 L 433.02344 206.52734 L 428.60742 207.23242 C 422.52742 208.19242 419.8408 210.04736 417.2168 215.35938 L 415.16797 219.58398 L 416.25586 235.07227 C 416.83186 243.58427 417.79269 252.54306 418.30469 255.03906 C 419.64869 261.05506 419.13603 269.82494 416.83203 280.96094 L 415.03906 289.59961 L 415.16797 307.83984 C 415.29597 319.16784 415.67986 328.51247 416.25586 332.48047 C 416.89586 337.02447 417.1513 347.00706 417.2793 367.03906 C 417.3433 382.52706 417.59947 401.21662 417.85547 408.64062 C 418.04747 416.00064 418.17533 428.86314 418.11133 437.11914 C 418.04733 445.37514 418.04733 464.83231 418.11133 480.32031 C 418.30333 535.04031 418.23975 543.87223 417.34375 562.24023 L 416.44727 580.80078 L 417.53516 584.44727 C 418.87916 589.11927 421.31119 591.5528 426.36719 593.2168 C 435.19919 596.1608 438.08094 595.71152 440.96094 591.10352 C 441.72894 589.82352 445.37634 586.30442 449.15234 583.23242 C 467.45634 568.19242 480.19183 555.71133 495.42383 538.11133 C 509.75983 521.40733 560.63969 470.65638 575.67969 457.98438 C 581.69569 452.92836 593.92086 441.47217 602.88086 432.57617 C 629.31286 406.33617 641.66359 395.51953 645.18359 395.51953 C 648.76759 395.51953 648.83106 396.2233 647.03906 417.2793 C 646.71906 421.3113 646.14377 428.79992 645.75977 433.91992 C 645.37577 439.03992 644.67216 448.63936 644.16016 455.35938 C 642.04816 483.45538 641.79105 492.92847 642.62305 516.48047 C 643.00705 528.96047 643.45598 542.52855 643.58398 546.56055 C 643.71198 550.59255 644.09647 559.36008 644.48047 566.08008 L 645.18359 578.24023 L 643.51953 595.51953 C 641.15153 620.60753 640.70386 625.6 640.25586 632 C 639.42386 643.072 639.36059 643.13547 615.80859 641.85547 C 588.28859 640.38347 574.65522 640.89528 531.19922 644.86328 C 509.88722 646.78328 479.16855 647.36053 458.56055 646.14453 C 443.84055 645.24853 433.21506 645.12095 407.03906 645.37695 C 387.00706 645.56895 367.04016 645.37573 356.16016 644.92773 C 334.46416 644.03173 326.01623 644.03159 274.24023 645.18359 C 222.91223 646.33559 215.61694 646.27292 200.96094 644.54492 C 175.80894 641.60092 148.4167 642.11103 118.7207 646.20703 C 100.8647 648.70303 82.367064 648.57531 39.039062 645.69531 C 21.695062 644.54331 22.783375 647.42317 23.359375 605.95117 L 23.744141 575.42383 L 22.015625 566.91211 L 20.287109 558.40039 L 20.416016 529.2793 C 20.608016 490.1113 20.287109 491.90391 28.287109 485.50391 C 31.103109 483.19991 35.072641 479.42359 37.056641 477.18359 C 39.040641 474.94359 42.240156 471.87194 44.160156 470.33594 C 46.080156 468.86394 49.152859 466.30314 50.880859 464.70312 C 54.144859 461.75912 73.024312 446.84866 80.320312 441.47266 C 82.432314 439.87266 85.760594 437.12014 87.808594 435.32812 C 89.792594 433.47212 93.951436 429.95153 97.023438 427.51953 C 100.09544 425.02353 106.62428 419.39256 111.48828 414.97656 C 116.35228 410.49656 122.11111 405.44089 124.28711 403.71289 C 126.52711 401.92089 130.36878 398.72092 132.80078 396.54492 C 139.71278 390.40092 146.56008 384.57577 150.08008 381.75977 C 153.79208 378.75177 164.35177 369.47155 165.75977 367.93555 C 166.78377 366.84755 174.144 360.32059 184 351.80859 C 187.2 349.12059 192.12827 344.31914 195.07227 341.11914 C 198.14427 337.85514 204.67164 332.09523 210.43164 327.61523 C 215.93564 323.32723 222.52894 317.88753 224.96094 315.51953 C 230.27294 310.52753 238.91184 303.29584 243.83984 299.83984 C 249.66384 295.74384 261.75995 285.50372 266.75195 280.51172 C 269.31195 277.95172 275.77634 272.12889 281.15234 267.71289 C 286.52834 263.23289 293.37572 257.21548 296.51172 254.27148 C 303.29572 247.87148 318.59173 235.00748 324.92773 230.27148 C 327.48773 228.41548 332.79958 224.00047 336.76758 220.48047 C 346.81558 211.58447 358.08086 202.11109 370.88086 191.87109 C 376.89686 187.13509 382.52783 182.40095 383.42383 181.37695 C 384.31983 180.35295 389.31209 175.48855 394.49609 170.56055 C 399.68009 165.63255 409.21614 156.35117 415.74414 149.95117 C 432.54414 133.39117 436.40703 130.21859 440.83203 130.15039 z "
       transform="matrix(15.625,0,0,-15.625,0,10380)"
       id="path967" />
  </g>
</svg>
