<?xml version="1.0" encoding="UTF-8" standalone="no"?>
<svg
   xmlns:dc="http://purl.org/dc/elements/1.1/"
   xmlns:cc="http://creativecommons.org/ns#"
   xmlns:rdf="http://www.w3.org/1999/02/22-rdf-syntax-ns#"
   xmlns:svg="http://www.w3.org/2000/svg"
   xmlns="http://www.w3.org/2000/svg"
   xmlns:sodipodi="http://sodipodi.sourceforge.net/DTD/sodipodi-0.dtd"
   xmlns:inkscape="http://www.inkscape.org/namespaces/inkscape"
   version="1.0"
   width="498.240000pt"
   height="498.240000pt"
   viewBox="0 0 498.240000 498.240000"
   preserveAspectRatio="xMidYMid meet"
   id="svg977"
   sodipodi:docname="7.svg"
   inkscape:version="0.91 r13725">
  <defs
     id="defs981" />
  <sodipodi:namedview
     pagecolor="#ffffff"
     bordercolor="#666666"
     borderopacity="1"
     objecttolerance="10"
     gridtolerance="10"
     guidetolerance="10"
     inkscape:pageopacity="0"
     inkscape:pageshadow="2"
     inkscape:window-width="1920"
     inkscape:window-height="1033"
     id="namedview979"
     showgrid="false"
     inkscape:zoom="1.2072495"
     inkscape:cx="332.15999"
     inkscape:cy="332.15999"
     inkscape:window-x="-4"
     inkscape:window-y="-4"
     inkscape:window-maximized="1"
     inkscape:current-layer="svg977" />
  <metadata
     id="metadata965">
Created by potrace 1.12, written by Peter Selinger 2001-2015
<rdf:RDF>
  <cc:Work
     rdf:about="">
    <dc:format>image/svg+xml</dc:format>
    <dc:type
       rdf:resource="http://purl.org/dc/dcmitype/StillImage" />
    <dc:title></dc:title>
  </cc:Work>
</rdf:RDF>
</metadata>
  <g
     transform="matrix(0,-0.048,-0.048,0,498.24,498.24023)"
     id="g975"
     style="fill:#000000;stroke:none">
    <path
       style="fill:#000000;stroke:none;stroke-width:0.064"
       d="m 0,0 0,332.16016 0,332.16015 332.16016,0 332.16015,0 0,-332.16015 L 664.32031,0 332.16016,0 0,0 Z m 290.96094,13.207031 c 13.52,0.024 22.09453,0.36 30.89453,1 6.912,0.512 15.80776,0.512907 29.75976,0.128907 26.24,-0.768002 37.95261,-0.576876 52.22461,0.703124 11.456,1.088002 25.08761,1.217532 73.59961,0.769532 6.528,0 17.47232,0.06341 24.32032,0.191406 9.024,0.256 16.12759,-3.1e-5 25.59961,-0.832031 22.72,-2.048 26.94493,-2.047407 40.96093,-0.191407 18.24,2.432002 41.72828,4.22311 55.48828,4.28711 19.648,0 18.68708,-1.21611 19.45508,25.08789 1.344,42.624002 1.85672,52.544438 3.13672,59.648438 1.344,7.616 2.87984,23.35969 3.83984,39.67969 0.576,10.624 0.25629,112.64093 -0.51171,168.96093 l -0.51172,32 -1.08789,2.11133 c -0.64,1.152 -3.39208,4.60769 -6.08008,7.67969 -2.752,3.072 -6.97666,7.99981 -9.47266,11.00781 -2.496,3.008 -7.87184,8.70388 -11.83984,12.67188 -4.032,3.968 -11.58403,11.64894 -16.83203,16.96094 -18.368,18.688 -32.63946,32.57601 -37.43946,36.41601 -9.536,7.552 -12.09776,9.85481 -27.00976,24.38281 -6.144,6.08 -14.20792,13.88821 -17.91992,17.40821 -3.648,3.52 -8.3826,8.25654 -10.5586,10.56054 -4.032,4.352 -21.75984,21.63122 -27.83984,27.19922 -1.984,1.728 -5.56845,5.95325 -8.06445,9.28125 -4.736,6.336 -23.80796,25.79258 -26.75196,27.39258 -2.752,1.408 -4.5445,0.57545 -5.3125,-2.56055 -1.408,-5.632 -2.62412,-44.35203 -3.32812,-104.83203 -0.32,-28.544 -0.89561,-51.32808 -1.59961,-62.08008 -1.408,-22.592 -1.66477,-75.32809 -0.38477,-78.91211 1.152,-3.392 3.13755,-4.09542 13.18555,-4.60742 11.584,-0.576 90.49436,-0.83186 96.31836,-0.25586 2.624,0.192 9.856,0.64002 16,0.83204 20.48,0.832 20.92933,1.02245 23.36133,10.81445 2.88,11.52 7.80825,16.19267 14.65625,13.88867 5.44,-1.792 5.76004,-4.79984 5.24804,-51.83984 -0.256,-20.608 -0.70539,-40.06322 -1.02539,-43.19922 -0.384,-3.2 -0.89484,-14.40094 -1.21484,-24.96094 l -0.57617,-19.19922 -1.40821,-3.64844 c -2.88,-7.68 -11.201,-11.77634 -18.625,-9.15234 -8,2.816 -10.23923,11.00812 -7.61523,27.32812 2.752,17.02402 3.45516,32.25547 1.53516,33.85547 -2.944,2.432 -18.62402,-13.50359 -44.41602,-45.18359 -5.44,-6.656 -15.61534,-17.98434 -22.52734,-25.15234 -6.976,-7.168 -12.67188,-13.24791 -12.67188,-13.50391 0,-0.448 -23.61628,-23.23105 -35.9043,-34.62305 -4.032,-3.712 -10.04698,-8.83212 -13.375,-11.328122 -5.888,-4.416 -8.25721,-6.848031 -16.44921,-16.832031 -7.488,-9.152 -23.87086,-25.152188 -29.63086,-28.992188 -10.688,-7.168 -11.64941,-6.719767 -37.44141,18.240235 -19.52,18.88 -23.80784,22.65509 -35.83984,31.871096 -2.496,1.92 -6.39913,5.11951 -8.70313,7.10351 -2.24,1.984 -6.97609,5.82416 -10.49609,8.57618 -3.52,2.688 -8.38486,6.84879 -10.88086,9.21679 -4.352,4.16 -17.60008,14.97638 -22.08008,17.98438 -1.216,0.832 -4.8,3.71239 -8,6.40039 -3.136,2.688 -6.97572,5.75965 -8.51172,6.84765 -1.472,1.088 -5.24831,4.35093 -8.32031,7.29493 -6.464,6.144 -13.69428,12.09551 -18.23828,15.10351 -1.728,1.088 -4.0965,2.88075 -5.3125,3.96875 -1.152,1.088 -4.67214,3.90349 -7.74414,6.27149 -3.136,2.368 -7.48897,5.9535 -9.79297,7.9375 -2.304,2.048 -6.52775,5.56814 -9.34375,7.74414 -10.688,8.256 -14.7837,11.71203 -20.0957,16.83203 -5.12,4.992 -12.54439,10.81456 -22.40039,17.72656 -2.36802,1.664 -7.35922,5.82525 -11.19922,9.28125 -3.776,3.456 -8.83213,7.74361 -11.32813,9.59961 -2.432,1.856 -7.35936,6.14316 -10.94336,9.53516 -3.584,3.456 -8.83244,7.93682 -11.64844,10.04882 -7.36,5.376 -17.472792,14.40039 -25.216792,22.40039 -3.648002,3.776 -8.511954,8.38379 -10.751954,10.17579 -2.24,1.856 -7.870515,7.35956 -12.478515,12.35156 -4.608,4.928 -11.521328,11.51978 -15.361328,14.5918 -3.776,3.136 -7.743125,6.71998 -8.703125,8 C 39.296516,351.93588 23.42425,368 22.65625,368 c -0.384,0 -1.215469,-0.38448 -1.855469,-0.89648 l -1.28125,-0.89649 -0.447265,-12.41406 c -0.256,-6.784 -0.639578,-28.92833 -0.767578,-49.15235 -0.128002,-25.792 -0.512797,-40.64156 -1.216797,-49.60156 -2.816,-35.392 -3.072125,-45.63012 -3.328125,-134.07812 -0.128,-39.936006 -0.384625,-75.264393 -0.640625,-78.400393 -0.512,-6.656 0.448828,-14.721219 2.048828,-16.449219 2.048,-2.24 5.631953,-2.622594 26.751953,-2.558594 24.064,0.064 48.768186,-0.767781 60.992188,-2.175781 4.864,-0.512 15.23197,-1.217109 23.16797,-1.537109 36.736,-1.6 61.56717,-3.136469 69.95117,-4.480469 2.176,-0.384 17.66514,-0.959297 34.36914,-1.279297 28.576,-0.608 47.04055,-0.897047 60.56055,-0.873047 z m 108.27148,72.552735 2.24024,0 9.4707,9.728515 c 10.112,10.431999 11.20055,12.032279 10.56055,15.488279 -0.448,2.432 -5.69557,7.87128 -12.35157,12.86328 -2.176,1.6 -11.71309,10.62325 -21.12109,20.03125 -18.048,17.984 -25.27895,24.64022 -32.12695,29.82422 -2.304,1.664 -6.08077,4.80116 -8.38477,6.78516 -4.8,4.288 -22.07898,18.62392 -40.95898,33.91992 -7.168,5.824 -13.31327,10.81522 -13.69727,11.19922 -0.384,0.32 -1.98398,1.79272 -3.58398,3.13672 -1.6,1.408 -6.46291,5.88687 -10.87891,10.04687 -4.416,4.096 -13.18353,11.71203 -19.51953,16.83203 -6.336,5.184 -14.27356,11.7133 -17.60156,14.5293 -3.328,2.816 -8.83066,7.35933 -12.22266,10.11133 -15.04,12.16 -32.00056,26.624 -46.97656,40 -10.88,9.728 -12.35122,11.13606 -19.19922,17.66406 -8.96,8.576 -22.52948,20.28814 -27.52148,23.74414 -2.11202,1.472 -5.24707,3.903 -7.03907,5.375 -1.728,1.408 -5.18367,4.09667 -7.67969,5.88867 -2.432,1.856 -6.40107,5.31169 -8.70507,7.67969 -3.648,3.776 -8.95878,8.64144 -15.550784,14.27344 -1.024,0.896 -3.393547,2.8785 -5.185547,4.47852 -1.792,1.6 -4.79875,4.15976 -6.71875,5.75976 -1.856,1.6 -5.056563,4.28913 -6.976563,5.95313 -4.288,3.712 -17.278984,13.88753 -24.958984,19.51953 -23.936,17.536 -28.928703,19.20084 -30.720703,10.04882 -3.008,-15.616 -3.520938,-35.00898 -0.960938,-38.20898 2.304,-2.944 10.945281,-9.91875 18.113281,-14.71875 3.712002,-2.496 8.192374,-5.82578 9.984376,-7.42578 1.728,-1.536 5.887296,-4.60766 9.279296,-6.84766 3.328,-2.24 8.511532,-6.33589 11.519532,-9.08789 3.008,-2.752 7.744546,-6.9762 10.560546,-9.4082 2.816002,-2.368 12.607764,-11.77483 21.759768,-20.79883 15.552,-15.424 26.68778,-25.72933 42.17578,-39.36133 8.256,-7.232 11.84092,-10.5589 20.54492,-18.8789 8.576,-8.256 13.63083,-12.67238 20.79883,-17.98438 5.504,-4.16 11.64745,-9.15231 29.43945,-24.32031 9.728,-8.192 18.30552,-15.04019 36.35352,-28.99219 4.992,-3.84 11.71061,-9.28015 14.97461,-12.16015 7.36,-6.4 14.72104,-12.41488 31.87304,-26.04688 7.232,-5.76 15.16761,-12.22439 17.59961,-14.40039 2.496,-2.176 11.39185,-9.47186 19.83985,-16.25586 8.448,-6.784 21.24847,-17.40769 28.48047,-23.67969 22.784,-19.711994 31.55226,-26.304684 35.07226,-26.304684 z m 41.59961,44.390624 c 0.295,-0.005 0.59249,0.005 0.89649,0.0254 l 2.94336,0.19141 6.01562,5.12109 c 3.264,2.88 11.13666,10.62284 17.47266,17.21484 6.336,6.65602 16.1282,16.83224 21.82422,22.65626 13.184,13.504 21.3756,23.29645 33.5996,40.06445 3.072,4.224 8.25554,10.49608 11.51954,14.08008 10.496,11.2 26.04773,29.24715 28.92773,33.53515 1.472,2.112 1.34459,4.03341 -0.19141,5.44141 l -1.27929,1.15234 -16.44922,-0.70508 c -9.088,-0.448 -30.91172,-0.96034 -48.51172,-1.15234 -56.512,-0.768 -53.31152,-0.63901 -55.10352,-1.79101 -3.328,-2.24002 -3.58493,-9.85688 -0.96093,-23.29688 3.328,-16.64 0.89759,-32.00041 -5.56641,-34.81641 l -2.94531,-1.34375 -4.41602,0.70508 c -6.08,0.96 -8.76662,2.81494 -11.39062,8.12696 l -2.04883,4.2246 1.08789,15.48829 c 0.576,8.512 1.53683,17.47079 2.04883,19.96679 1.344,6.016 0.83134,14.78588 -1.47266,25.92188 l -1.79297,8.63867 0.12891,18.24023 c 0.128,11.328 0.51189,20.67263 1.08789,24.64063 0.64,4.544 0.89544,14.52659 1.02344,34.55859 0.064,15.488 0.32017,34.17756 0.57617,41.60156 0.192,7.36002 0.31986,20.22252 0.25586,28.47852 -0.064,8.256 -0.064,27.71317 0,43.20117 0.192,54.72 0.12842,63.55192 -0.76758,81.91992 l -0.89648,18.56055 1.08789,3.64649 c 1.344,4.672 3.77603,7.10553 8.83203,8.76953 8.832,2.944 11.71375,2.49472 14.59375,-2.11328 0.768,-1.28 4.4154,-4.7991 8.1914,-7.8711 18.304,-15.04 31.03949,-27.52109 46.27149,-45.12109 14.336,-16.704 65.21586,-67.45495 80.25586,-80.12695 6.016,-5.05602 18.24117,-16.51221 27.20117,-25.40821 26.432,-26.24 38.78273,-37.05664 42.30273,-37.05664 3.584,0 3.64747,0.70377 1.85547,21.75977 -0.32,4.032 -0.89529,11.52062 -1.27929,16.64062 -0.384,5.12 -1.08761,14.71944 -1.59961,21.43946 -2.112,28.096 -2.36911,37.56909 -1.53711,61.12109 0.384,12.48 0.83293,26.04808 0.96093,30.08008 0.128,4.032 0.51249,12.79953 0.89649,19.51953 l 0.70312,12.16015 -1.66406,17.2793 c -2.368,25.088 -2.81567,30.08047 -3.26367,36.48047 -0.832,11.072 -0.89527,11.13547 -24.44727,9.85547 -27.52,-1.472 -41.15337,-0.96019 -84.60937,3.00781 -21.312,1.92 -52.03067,2.49725 -72.63867,1.28125 -14.72,-0.896 -25.34549,-1.02358 -51.52149,-0.76758 -20.032,0.192 -39.9989,-0.001 -50.8789,-0.44922 -21.696,-0.896 -30.14393,-0.89614 -81.91993,0.25586 -51.328,1.152 -58.62329,1.08933 -73.27929,-0.63867 -25.152,-2.944 -52.54424,-2.43389 -82.24024,1.66211 -17.856,2.496 -36.353636,2.36828 -79.681638,-0.51172 -17.344,-1.152 -16.255687,1.72786 -15.679687,-39.74414 l 0.384766,-30.52734 -1.728516,-8.51172 -1.728516,-8.51172 0.128907,-29.12109 c 0.192,-39.168 -0.128907,-37.37539 7.871093,-43.77539 2.816,-2.304 6.785532,-6.08032 8.769532,-8.32032 1.984,-2.24 5.183515,-5.31165 7.103515,-6.84765 1.92,-1.472 4.992703,-4.0328 6.720703,-5.63282 3.264,-2.944 22.143453,-17.85446 29.439453,-23.23046 2.112002,-1.6 5.440282,-4.35252 7.488282,-6.14454 1.984,-1.856 6.142842,-5.37659 9.214844,-7.80859 3.072002,-2.496 9.600842,-8.12697 14.464842,-12.54297 4.864,-4.48 10.62283,-9.53567 12.79883,-11.26367 2.24,-1.792 6.08167,-4.99197 8.51367,-7.16797 6.912,-6.144 13.7593,-11.96915 17.2793,-14.78515 3.712,-3.008 14.27169,-12.28822 15.67969,-13.82422 1.024,-1.088 8.38423,-7.61496 18.24023,-16.12696 3.2,-2.688 8.12827,-7.48945 11.07227,-10.68945 3.072,-3.264 9.59937,-9.02391 15.35937,-13.50391 5.504,-4.288 12.0973,-9.7277 14.5293,-12.0957 5.312,-4.992 13.9509,-12.22369 18.8789,-15.67969 5.824,-4.096 17.92011,-14.33612 22.91211,-19.32812 2.56,-2.56 9.02439,-8.38283 14.40039,-12.79883 5.376,-4.48 12.22338,-10.49741 15.35938,-13.44141 6.784,-6.4 22.08001,-19.264 28.41601,-24 2.56,-1.856 7.87185,-6.27101 11.83985,-9.79101 10.048,-8.896 21.31328,-18.36938 34.11328,-28.60938 6.016,-4.736 11.64697,-9.47014 12.54297,-10.49414 0.896,-1.024 5.88826,-5.8884 11.07226,-10.8164 5.184,-4.928 14.72005,-14.20938 21.24805,-20.60938 16.8,-16.56 20.66289,-19.73258 25.08789,-19.80078 z"
       transform="matrix(15.625,0,0,-15.625,0,10380)"
       id="path967"
       inkscape:connector-curvature="0" />
  </g>
</svg>
