<?xml version="1.0" encoding="UTF-8" standalone="no"?>
<svg
   xmlns:dc="http://purl.org/dc/elements/1.1/"
   xmlns:cc="http://creativecommons.org/ns#"
   xmlns:rdf="http://www.w3.org/1999/02/22-rdf-syntax-ns#"
   xmlns:svg="http://www.w3.org/2000/svg"
   xmlns="http://www.w3.org/2000/svg"
   xmlns:sodipodi="http://sodipodi.sourceforge.net/DTD/sodipodi-0.dtd"
   xmlns:inkscape="http://www.inkscape.org/namespaces/inkscape"
   version="1.0"
   width="498.240000pt"
   height="498.240000pt"
   viewBox="0 0 498.240000 498.240000"
   preserveAspectRatio="xMidYMid meet"
   id="svg1130"
   sodipodi:docname="8-B-alt.svg"
   inkscape:version="0.92.4 (5da689c313, 2019-01-14)">
  <defs
     id="defs1134" />
  <sodipodi:namedview
     pagecolor="#ffffff"
     bordercolor="#666666"
     borderopacity="1"
     objecttolerance="10"
     gridtolerance="10"
     guidetolerance="10"
     inkscape:pageopacity="0"
     inkscape:pageshadow="2"
     inkscape:window-width="1630"
     inkscape:window-height="1005"
     id="namedview1132"
     showgrid="false"
     inkscape:zoom="1.2072495"
     inkscape:cx="332.15999"
     inkscape:cy="332.15999"
     inkscape:window-x="0"
     inkscape:window-y="1"
     inkscape:window-maximized="1"
     inkscape:current-layer="svg1130" />
  <metadata
     id="metadata1120">
Created by potrace 1.12, written by Peter Selinger 2001-2015
<rdf:RDF>
  <cc:Work
     rdf:about="">
    <dc:format>image/svg+xml</dc:format>
    <dc:type
       rdf:resource="http://purl.org/dc/dcmitype/StillImage" />
    <dc:title></dc:title>
  </cc:Work>
</rdf:RDF>
</metadata>
  <g
     transform="translate(0.000000,498.240000) scale(0.048000,-0.048000)"
     fill="#000000"
     stroke="none"
     id="g1128">
    <path
       style="fill:#000000;stroke:none;stroke-width:0.064"
       d="M 0 0 L 0 332.16016 L 0 664.32031 L 332.16016 664.32031 L 664.32031 664.32031 L 664.32031 332.16016 L 664.32031 0 L 332.16016 0 L 0 0 z M 267.96875 12.503906 C 271.27156 12.49686 274.59217 12.498906 277.88477 12.507812 C 299.83539 12.567189 320.52008 12.968359 326.08008 13.568359 C 330.43208 14.016359 338.17639 14.079314 350.40039 13.695312 C 375.42439 12.927312 393.91958 13.119936 408.76758 14.335938 C 428.09558 15.871938 517.63247 15.744531 532.48047 14.144531 C 549.24847 12.352531 549.75922 12.351375 579.19922 15.359375 C 585.72722 16.063375 594.04777 16.767436 597.75977 17.023438 C 601.47177 17.215438 604.67173 17.536062 604.92773 17.664062 C 605.11973 17.792064 612.86408 18.176547 622.08008 18.560547 C 640.57608 19.264547 641.98353 19.584875 643.51953 23.296875 C 644.54353 25.728875 645.05661 49.535484 644.22461 54.271484 C 643.39261 58.687484 645.05639 89.791686 646.40039 95.679688 C 647.04039 98.495688 647.87186 105.66369 648.25586 111.67969 C 649.02386 122.43169 649.34342 124.86314 652.60742 141.11914 L 654.27148 149.43945 L 654.27148 169.91992 L 654.27148 190.40039 L 652.22461 195.51953 C 649.08861 203.19953 648.12869 221.88769 650.30469 231.67969 C 651.07269 235.32769 650.87961 242.81678 649.59961 260.80078 C 649.21561 265.72878 648.76864 282.30361 648.64062 297.59961 C 648.44862 312.89561 648.06369 327.61623 647.67969 330.24023 C 646.59169 338.68823 646.39936 359.80827 647.35938 363.07227 C 649.53538 370.36827 648.63948 457.98491 646.27148 464.12891 C 645.37548 466.56091 644.09655 466.81686 634.56055 466.88086 L 626.24023 466.88086 L 618.88086 469.05664 L 611.58398 471.23242 L 597.43945 470.84766 C 589.69545 470.65566 579.32839 470.01545 574.40039 469.43945 C 564.03239 468.22345 559.23292 468.4792 548.54492 470.7832 C 544.44892 471.6792 539.96855 472.51112 538.56055 472.70312 C 537.15255 472.89514 532.28769 473.60069 527.67969 474.30469 C 517.37569 475.84069 509.43953 476.60714 499.51953 477.11914 C 485.50353 477.75914 481.02314 478.1432 477.11914 478.7832 C 473.85514 479.4232 453.18375 479.10439 449.34375 478.40039 C 448.76775 478.33639 446.91114 478.01622 445.11914 477.82422 C 440.70314 477.18422 438.97514 476.86356 437.11914 476.35156 C 436.22314 476.15956 433.02317 475.83939 429.95117 475.77539 C 426.81517 475.64739 424.00073 475.39272 423.55273 475.13672 C 423.10473 474.81672 423.03936 474.94353 423.35938 475.51953 C 423.74338 476.15953 423.61656 476.22339 422.97656 475.77539 C 422.46456 475.51939 421.50478 475.20072 420.80078 475.13672 C 420.09678 475.13672 417.3447 474.68823 414.7207 474.24023 C 411.3927 473.66423 407.61623 473.59992 402.24023 473.91992 C 398.01623 474.17592 390.78423 474.43209 386.24023 474.49609 C 381.63223 474.56009 377.6008 474.81581 377.2168 475.00781 C 375.8728 475.83981 367.55177 475.64764 349.75977 474.43164 C 342.20777 473.85564 330.49608 473.85623 310.08008 474.24023 C 303.04008 474.36823 290.49623 474.23992 282.24023 473.91992 C 273.98423 473.66392 253.69514 473.3433 237.11914 473.2793 C 220.60714 473.2153 207.03906 473.08894 207.03906 472.96094 C 207.03906 472.89694 205.31122 472.76864 203.19922 472.64062 C 188.92722 471.93662 185.53614 471.16756 183.74414 468.35156 C 182.46414 466.30356 181.82416 455.23106 180.16016 407.03906 C 179.96816 402.30306 179.71153 394.81639 179.51953 390.40039 C 179.26353 385.98439 179.00841 379.19938 178.81641 375.35938 C 178.68841 371.45536 178.43269 366.59247 178.30469 364.48047 C 178.17669 362.36847 177.85606 357.05664 177.66406 352.64062 C 177.40806 348.22462 176.89617 341.43961 176.57617 337.59961 C 176.19217 333.69561 175.80723 328.25545 175.61523 325.43945 C 175.10323 315.64745 174.01681 299.13608 173.63281 294.08008 C 173.12081 287.16808 173.05591 264.6407 173.50391 246.7207 C 174.01591 224.2567 173.95192 224.32039 193.91992 222.40039 C 195.83992 222.20839 200.64047 221.76095 204.48047 221.37695 C 208.38447 220.99295 214.27161 220.60802 217.59961 220.41602 C 222.84761 220.22402 226.24023 219.83953 226.24023 219.51953 C 226.24023 219.39153 227.008 219.26469 232 218.30469 C 235.328 217.66469 241.792 217.5362 272 217.4082 C 275.008 217.4082 279.61623 217.47116 282.24023 217.53516 C 284.86423 217.66316 290.36839 217.53575 294.40039 217.34375 C 298.43239 217.08775 306.23969 216.76864 311.67969 216.64062 C 317.11969 216.44862 323.07278 216.19245 324.80078 216.06445 C 341.88878 214.84845 353.59936 214.52842 359.35938 215.23242 C 368.95938 216.32042 373.95136 216.7688 383.35938 217.2168 C 386.36738 217.4088 392.70345 218.04795 397.43945 218.75195 C 402.17545 219.45595 408.06364 220.22402 410.43164 220.41602 C 415.55164 220.80002 417.59908 221.69541 419.45508 224.19141 L 420.80078 225.98438 L 420.80078 241.47266 C 420.80078 256.96066 420.41672 264.192 419.13672 272 C 418.75272 274.368 418.43164 285.69623 418.43164 298.24023 C 418.43164 323.71223 417.98477 331.7765 416.38477 333.3125 C 414.78477 334.9125 396.92753 335.55239 387.51953 334.40039 C 375.74353 332.86439 371.07169 332.67145 367.67969 333.43945 C 365.95169 333.82345 358.71969 334.46366 351.67969 334.84766 C 321.66369 336.44766 321.91992 336.57528 321.91992 324.86328 C 321.91992 321.15128 321.6008 315.9048 321.2168 313.2168 C 320.6408 309.3768 320.6393 306.43275 321.2793 299.96875 C 322.2393 290.81675 321.53555 279.23188 319.93555 276.67188 C 318.33555 274.04786 317.05644 273.91992 291.64844 273.91992 C 254.52844 273.91992 249.66369 275.0083 247.67969 283.9043 C 247.03969 286.7843 246.72086 329.02447 247.29688 340.48047 C 248.12888 358.59247 249.02314 389.63286 248.70312 391.29688 C 247.03912 400.19288 251.26439 404.80008 262.40039 406.08008 C 264.32039 406.33608 269.37561 407.04014 273.59961 407.74414 L 281.2793 408.96094 L 292.48047 408.25586 C 298.62447 407.87186 304.51161 407.74355 305.59961 407.93555 C 306.62361 408.12755 320.64062 408.44862 336.64062 408.64062 C 365.76064 409.02464 373.37578 409.40722 394.17578 411.19922 C 400.31978 411.77522 407.68009 412.03184 410.49609 411.83984 C 423.87209 411.00784 447.35906 410.87953 463.03906 411.51953 C 481.47106 412.28753 483.00833 412.09666 484.73633 409.47266 C 486.01633 407.48866 486.91136 391.48886 487.35938 362.88086 C 487.55138 350.40086 488.06372 337.53639 488.51172 334.40039 C 489.02372 330.30439 489.27975 310.91216 489.34375 268.16016 C 489.34375 234.88016 489.72733 197.18431 490.11133 184.32031 C 490.81533 159.61631 490.75155 158.4637 487.93555 156.0957 C 485.05555 153.5997 477.0567 151.87225 462.7207 150.65625 C 450.2407 149.56825 445.82439 149.44002 398.40039 148.41602 L 365.11914 147.71289 L 355.19922 149.3125 C 340.28722 151.7445 333.50338 152.19262 303.35938 152.64062 C 294.39936 152.76864 281.02361 153.15116 273.59961 153.53516 C 266.23961 153.85516 255.87255 154.36855 250.56055 154.56055 C 245.31255 154.75255 236.79969 155.19953 231.67969 155.51953 C 226.55969 155.90353 215.04008 156.28802 206.08008 156.41602 C 191.68008 156.67202 175.55152 157.50439 167.10352 158.40039 C 165.56752 158.52839 156.79998 158.84752 147.58398 159.10352 C 119.99998 159.74352 116.99197 161.91984 119.16797 179.83984 C 119.48797 182.46384 119.87245 187.07208 120.06445 190.08008 C 120.19245 193.08808 120.51112 197.24736 120.70312 199.35938 C 121.21514 204.99138 121.47189 223.55231 121.08789 224.32031 C 120.44789 225.34431 120.38494 226.62423 120.96094 226.24023 C 121.53694 225.92023 121.47203 227.58416 120.83203 228.16016 C 120.64003 228.35216 120.70448 230.72066 120.89648 233.47266 C 121.40848 240.83266 121.34314 249.47114 120.70312 253.11914 C 120.38312 254.84714 120.25677 259.32706 120.38477 263.03906 C 120.83277 274.43106 120.576 303.36008 120 310.08008 C 119.424 316.80008 119.29614 328.38416 119.74414 340.16016 L 120 347.19922 L 117.75977 352.64062 L 115.58398 358.08008 L 115.64844 367.35938 C 115.90444 398.97538 116.41573 424.44853 116.92773 430.14453 C 117.82373 441.21653 117.56742 471.61564 116.60742 474.43164 C 114.87942 479.29564 108.67184 480.25653 91.839844 478.14453 C 86.655844 477.50453 71.487609 476.60742 65.599609 476.60742 C 63.871609 476.60742 58.816844 477.11977 54.464844 477.75977 C 45.760844 479.03977 33.728297 478.8485 27.904297 477.3125 C 22.080297 475.7765 22.015453 475.58384 21.439453 451.83984 C 21.247453 443.58384 20.672156 433.92039 20.160156 430.40039 C 19.072156 422.72039 18.944297 407.74483 19.904297 402.04883 C 20.480297 398.78483 20.479391 396.67277 19.775391 392.38477 C 19.263391 388.80077 18.880406 379.13678 18.816406 364.80078 C 18.304406 285.05678 18.048314 275.00855 16.320312 250.56055 C 14.272312 222.59255 13.503906 189.18306 13.503906 127.03906 C 13.439906 93.247064 13.312641 57.088703 13.056641 46.720703 C 12.544641 20.416703 9.9199994 22.72025 40 22.65625 C 70.528 22.52825 90.49663 21.888016 104.64062 20.416016 C 111.36064 19.776016 119.23223 19.136719 122.24023 19.136719 C 133.82423 18.944719 170.30314 16.832875 189.11914 15.296875 C 210.68714 13.504875 212.416 13.376781 240 12.800781 C 248.316 12.620781 258.06032 12.525044 267.96875 12.503906 z M 633.2793 522.6875 L 637.05664 523.77539 C 644.86464 526.07939 645.43903 527.93561 646.20703 553.59961 C 646.78303 572.60761 646.72067 574.33694 645.88867 592.96094 C 644.80067 615.87294 644.41536 620.73694 642.94336 632.96094 C 641.85536 641.60094 641.72828 642.11244 639.48828 643.64844 L 637.75977 644.80078 L 621.75977 644.60742 C 612.99177 644.47942 604.16023 644.09539 602.24023 643.77539 C 596.86423 642.87939 592.51252 643.07202 585.72852 644.41602 C 578.11252 645.95202 567.29623 646.97536 554.24023 647.35938 C 548.80023 647.48738 543.16777 647.74355 541.75977 647.93555 C 529.91977 649.34355 520.12783 649.66344 511.42383 649.02344 C 496.38383 647.93544 482.17592 647.68088 425.91992 647.29688 C 396.73592 647.10486 366.4647 646.84825 358.7207 646.65625 C 340.3527 646.14425 317.18353 646.01594 307.51953 646.33594 C 282.87953 647.16794 205.63192 646.65681 193.91992 645.63281 C 180.09592 644.35281 148.03255 644.60762 138.56055 646.01562 C 134.72055 646.59164 130.36894 647.23183 128.96094 647.42383 C 127.55294 647.55183 123.39169 648.19158 119.67969 648.76758 C 108.67169 650.43158 73.599814 650.11186 59.007812 648.25586 C 56.447812 647.93586 49.920922 647.67969 44.544922 647.67969 C 31.040922 647.67969 25.343547 646.46414 23.935547 643.32812 C 23.359547 641.98412 21.887906 605.50439 21.503906 582.40039 C 21.311906 573.05639 20.864922 563.39294 20.544922 560.96094 C 19.136922 551.48894 19.904531 542.0157 22.144531 540.0957 C 23.872531 538.6877 40.320078 537.66361 62.080078 537.59961 C 82.368078 537.59961 86.272706 537.34394 110.7207 534.33594 C 118.7207 533.37594 126.52823 532.92878 138.24023 532.80078 C 147.20023 532.73678 160.89662 532.28784 168.64062 531.83984 C 182.33664 531.07184 191.80823 531.20002 210.24023 532.41602 C 215.16823 532.73602 224.25639 533.24791 230.40039 533.50391 C 236.54439 533.69591 241.92023 534.07994 242.24023 534.33594 C 242.62423 534.52794 252.67262 534.7207 264.64062 534.7207 C 276.60864 534.7207 290.752 534.97686 296 535.29688 C 303.552 535.74488 307.45623 535.6152 314.24023 534.7832 C 319.16823 534.2072 330.30416 533.63191 340.16016 533.50391 C 358.08016 533.18391 361.15125 532.86378 372.03125 530.17578 C 388.28725 526.20778 406.84808 525.31242 430.08008 527.23242 C 439.23208 528.00042 450.7513 528.25586 473.2793 528.25586 L 504 528.32031 L 515.19922 526.20703 C 530.49522 523.26303 559.10447 521.98398 572.48047 523.58398 C 580.54447 524.54398 606.65514 524.54353 621.11914 523.51953 L 633.2793 522.6875 z "
       transform="matrix(15.625,0,0,-15.625,0,10380)"
       id="path1122" />
  </g>
</svg>
