<?xml version="1.0" standalone="no"?>
<!DOCTYPE svg PUBLIC "-//W3C//DTD SVG 20010904//EN"
 "http://www.w3.org/TR/2001/REC-SVG-20010904/DTD/svg10.dtd">
<svg version="1.0" xmlns="http://www.w3.org/2000/svg"
 width="498.240000pt" height="498.240000pt" viewBox="0 0 498.240000 498.240000"
 preserveAspectRatio="xMidYMid meet">
<metadata>
Created by potrace 1.12, written by Peter Selinger 2001-2015
</metadata>
<g transform="translate(0.000000,498.240000) scale(0.048000,-0.048000)"
fill="#000000" stroke="none">
<path fill="#000000" stroke="none" d="M0 5190 l0 -5190 5190 0 5190 0 0 5190
0 5190 -5190 0 -5190 0 0 -5190z"/>
<path fill="#ffffff" stroke="none" d="M5095 10168 c68 -7 189 -8 380 -2 391
12 680 9 912 -10 302 -24 1701 -22 1933 3 262 28 270 28 730 -19 102 -11 232
-22 290 -26 58 -3 108 -8 112 -10 3 -2 124 -8 268 -14 289 -11 311 -16 335
-74 16 -38 24 -410 11 -484 -13 -69 13 -555 34 -647 10 -44 23 -156 29 -250
12 -168 17 -206 68 -460 l26 -130 0 -320 0 -320 -32 -80 c-49 -120 -64 -412
-30 -565 12 -57 9 -174 -11 -455 -6 -77 -13 -336 -15 -575 -3 -239 -9 -469
-15 -510 -17 -132 -20 -462 -5 -513 34 -114 20 -1483 -17 -1579 -14 -38 -34
-42 -183 -43 l-130 0 -115 -34 -114 -34 -221 6 c-121 3 -283 13 -360 22 -162
19 -237 15 -404 -21 -64 -14 -134 -27 -156 -30 -22 -3 -98 -14 -170 -25 -161
-24 -285 -36 -440 -44 -219 -10 -289 -16 -350 -26 -51 -10 -374 -5 -434 6 -9
1 -38 6 -66 9 -69 10 -96 15 -125 23 -14 3 -64 8 -112 9 -49 2 -93 6 -100 10
-7 5 -8 3 -3 -6 6 -10 4 -11 -6 -4 -8 4 -23 9 -34 10 -11 0 -54 7 -95 14 -52
9 -111 10 -195 5 -66 -4 -179 -8 -250 -9 -72 -1 -135 -5 -141 -8 -21 -13 -151
-10 -429 9 -118 9 -301 9 -620 3 -110 -2 -306 0 -435 5 -129 4 -446 9 -705 10
-258 1 -470 3 -470 5 0 1 -27 3 -60 5 -223 11 -276 23 -304 67 -20 32 -30 205
-56 958 -3 74 -7 191 -10 260 -4 69 -8 175 -11 235 -2 61 -6 137 -8 170 -2 33
-7 116 -10 185 -4 69 -12 175 -17 235 -6 61 -12 146 -15 190 -8 153 -25 411
-31 490 -8 108 -9 460 -2 740 8 351 7 350 319 380 30 3 105 10 165 16 61 6
153 12 205 15 82 3 135 9 135 14 0 2 12 4 90 19 52 10 153 12 625 14 47 0 119
-1 160 -2 41 -2 127 0 190 3 63 4 185 9 270 11 85 3 178 7 205 9 267 19 450
24 540 13 150 -17 228 -24 375 -31 47 -3 146 -13 220 -24 74 -11 166 -23 203
-26 80 -6 112 -20 141 -59 l21 -28 0 -242 c0 -242 -6 -355 -26 -477 -6 -37
-11 -214 -11 -410 0 -398 -7 -524 -32 -548 -25 -25 -304 -35 -451 -17 -184 24
-257 27 -310 15 -27 -6 -140 -16 -250 -22 -469 -25 -465 -27 -465 156 0 58 -5
140 -11 182 -9 60 -9 106 1 207 15 143 4 324 -21 364 -25 41 -45 43 -442 43
-580 0 -656 -17 -687 -156 -10 -45 -15 -705 -6 -884 13 -283 27 -768 22 -794
-26 -139 40 -211 214 -231 30 -4 109 -15 175 -26 l120 -19 175 11 c96 6 188 8
205 5 16 -3 235 -8 485 -11 455 -6 574 -12 899 -40 96 -9 211 -13 255 -10 209
13 576 15 821 5 288 -12 312 -9 339 32 20 31 34 281 41 728 3 195 11 396 18
445 8 64 12 367 13 1035 0 520 6 1109 12 1310 11 386 10 404 -34 441 -45 39
-170 66 -394 85 -195 17 -264 19 -1005 35 l-520 11 -155 -25 c-233 -38 -339
-45 -810 -52 -140 -2 -349 -8 -465 -14 -115 -5 -277 -13 -360 -16 -82 -3 -215
-10 -295 -15 -80 -6 -260 -12 -400 -14 -225 -4 -477 -17 -609 -31 -24 -2 -161
-7 -305 -11 -431 -10 -478 -44 -444 -324 5 -41 11 -113 14 -160 2 -47 7 -112
10 -145 8 -88 12 -378 6 -390 -10 -16 -11 -36 -2 -30 9 5 8 -21 -2 -30 -3 -3
-2 -40 1 -83 8 -115 7 -250 -3 -307 -5 -27 -7 -97 -5 -155 7 -178 3 -630 -6
-735 -9 -105 -11 -286 -4 -470 l4 -110 -35 -85 -34 -85 1 -145 c4 -494 12
-892 20 -981 14 -173 10 -648 -5 -692 -27 -76 -124 -91 -387 -58 -81 10 -318
24 -410 24 -27 0 -106 -8 -174 -18 -136 -20 -324 -17 -415 7 -91 24 -92 27
-101 398 -3 129 -12 280 -20 335 -17 120 -19 354 -4 443 9 51 9 84 -2 151 -8
56 -14 207 -15 431 -8 1246 -12 1403 -39 1785 -32 437 -44 959 -44 1930 -1
528 -3 1093 -7 1255 -8 411 -49 375 421 376 477 2 789 12 1010 35 105 10 228
20 275 20 181 3 751 36 1045 60 337 28 364 30 795 39 462 10 1206 3 1345 -12z"/>
<path fill="#ffffff" stroke="none" d="M8945 2199 c126 -15 534 -15 760 1
l190 13 59 -17 c122 -36 131 -65 143 -466 9 -297 8 -324 -5 -615 -17 -358 -23
-434 -46 -625 -17 -135 -19 -143 -54 -167 l-27 -18 -250 3 c-137 2 -275 8
-305 13 -84 14 -152 11 -258 -10 -119 -24 -288 -40 -492 -46 -85 -2 -173 -6
-195 -9 -185 -22 -338 -27 -474 -17 -235 17 -457 21 -1336 27 -456 3 -929 7
-1050 10 -287 8 -649 10 -800 5 -385 -13 -1592 -5 -1775 11 -216 20 -717 16
-865 -6 -60 -9 -128 -19 -150 -22 -22 -2 -87 -12 -145 -21 -172 -26 -720 -21
-948 8 -40 5 -142 9 -226 9 -211 0 -300 19 -322 68 -9 21 -32 591 -38 952 -3
146 -10 297 -15 335 -22 148 -10 296 25 326 27 22 284 38 624 39 317 0 378 4
760 51 125 15 247 22 430 24 140 1 354 8 475 15 214 12 362 10 650 -9 77 -5
219 -13 315 -17 96 -3 180 -9 185 -13 6 -3 163 -6 350 -6 187 0 408 -4 490 -9
118 -7 179 -5 285 8 77 9 251 18 405 20 280 5 328 10 498 52 254 62 544 76
907 46 143 -12 323 -16 675 -16 l480 -1 175 33 c239 46 686 66 895 41z"/>
</g>
</svg>
