<?xml version="1.0" standalone="no"?>
<!DOCTYPE svg PUBLIC "-//W3C//DTD SVG 20010904//EN"
 "http://www.w3.org/TR/2001/REC-SVG-20010904/DTD/svg10.dtd">
<svg version="1.0" xmlns="http://www.w3.org/2000/svg"
 width="498.240000pt" height="498.240000pt" viewBox="0 0 498.240000 498.240000"
 preserveAspectRatio="xMidYMid meet">
<metadata>
Created by potrace 1.12, written by Peter Selinger 2001-2015
</metadata>
<g transform="translate(0.000000,498.240000) scale(0.048000,-0.048000)"
fill="#000000" stroke="none">
<path fill="#000000" stroke="none" d="M0 5190 l0 -5190 5190 0 5190 0 0 5190
0 5190 -5190 0 -5190 0 0 -5190z"/>
<path fill="#ffffff" stroke="none" d="M5260 10154 c112 -4 282 -1 432 6 250
13 278 13 708 -20 172 -14 725 -17 950 -6 129 6 244 5 375 -3 135 -9 221 -9
295 -2 58 5 155 13 215 16 61 4 142 11 180 16 141 17 331 7 660 -36 127 -17
452 -38 657 -44 l237 -6 28 -21 c51 -38 53 -51 54 -341 0 -147 4 -304 9 -348
5 -44 12 -160 15 -259 3 -98 10 -197 15 -220 14 -64 30 -199 40 -346 5 -74 17
-171 26 -215 24 -113 28 -904 6 -1040 -10 -58 -14 -153 -14 -270 7 -878 5
-1136 -8 -1240 -7 -60 -14 -202 -15 -315 0 -113 -6 -317 -13 -454 -10 -212 -9
-258 3 -305 23 -91 25 -651 2 -806 -15 -103 -16 -163 -10 -418 6 -302 5 -327
-34 -567 -9 -55 -16 -180 -18 -296 -4 -260 -14 -286 -111 -298 -22 -3 -131
-19 -244 -35 -113 -17 -275 -39 -360 -51 -85 -12 -234 -39 -330 -61 -261 -60
-348 -76 -535 -99 -93 -11 -195 -25 -225 -30 -502 -83 -1296 -107 -1830 -55
-80 8 -190 17 -245 20 -55 3 -138 8 -185 10 -47 3 -161 8 -255 11 -93 3 -192
7 -220 9 -27 2 -95 6 -150 10 -55 3 -156 10 -225 15 -69 5 -172 12 -230 15
-58 3 -141 10 -185 15 -44 5 -197 14 -340 20 -143 6 -276 13 -295 15 -19 2
-71 6 -115 10 -44 4 -93 8 -110 10 -16 1 -129 16 -250 33 -121 17 -301 36
-400 42 -99 6 -238 19 -310 28 -91 12 -185 16 -314 14 -279 -4 -291 4 -302
208 -4 69 -12 190 -18 270 -5 80 -13 208 -16 285 -3 77 -7 165 -10 195 -9 117
-23 341 -30 495 -3 66 -8 140 -10 165 -2 25 -7 99 -10 165 -3 66 -7 145 -10
175 -12 141 -15 181 -20 265 -4 50 -12 144 -20 210 -8 66 -16 154 -20 195 -3
41 -15 147 -26 235 -11 88 -27 219 -35 290 -8 72 -23 193 -34 270 -100 715
-140 1460 -90 1660 32 129 126 400 161 466 52 97 145 165 412 300 191 97 201
100 367 110 80 4 188 14 240 23 82 13 267 18 595 16 332 -2 1210 2 1227 6 13
2 187 6 387 9 200 2 400 10 444 16 50 7 126 9 196 6 110 -6 333 8 521 33 41 5
129 10 195 10 66 0 179 5 250 10 72 5 175 12 230 15 55 3 136 10 180 15 44 6
122 10 175 10 52 0 154 5 225 11 200 17 374 -10 410 -64 44 -68 55 -1435 14
-1871 -5 -60 -7 -145 -4 -190 12 -167 12 -288 4 -946 -10 -813 -17 -1094 -29
-1231 -5 -57 -9 -141 -10 -187 0 -87 -11 -122 -50 -157 l-22 -20 -312 1 c-299
2 -659 14 -966 34 -80 5 -251 12 -380 16 -129 3 -251 7 -270 9 -19 2 -123 6
-230 10 -287 9 -498 23 -650 45 -74 10 -193 26 -265 35 -274 35 -313 52 -446
191 -184 192 -261 341 -314 612 l-25 126 1 400 c3 744 26 874 180 1021 103 99
320 172 607 205 53 6 165 26 247 43 l150 32 315 -1 c606 -2 732 -47 862 -311
l31 -63 8 -172 c8 -165 12 -218 26 -353 7 -69 6 -200 -2 -246 -15 -85 -37 -95
-220 -105 -303 -17 -308 -15 -354 142 -37 129 -74 153 -231 155 -183 3 -201
-32 -231 -458 -27 -395 57 -462 596 -469 244 -4 397 -15 607 -45 106 -15 179
-11 221 10 60 31 137 93 160 131 l21 35 2 300 c1 165 4 314 7 330 3 17 8 88
11 159 4 70 8 131 10 135 9 14 17 214 20 496 2 165 7 311 10 325 3 14 7 97 8
185 l2 160 -24 50 c-53 107 -83 113 -515 120 -351 5 -603 13 -640 22 -31 7
-1327 17 -1815 14 l-435 -2 -34 -17 c-19 -9 -44 -30 -55 -45 l-21 -28 -6 -507
c-7 -505 -15 -825 -25 -956 -18 -225 -25 -1380 -9 -1406 2 -4 7 -119 10 -256
11 -408 3 -399 370 -399 132 0 276 3 320 7 117 10 600 13 745 4 363 -22 571
-38 748 -60 108 -14 269 -27 357 -31 88 -3 219 -11 291 -17 99 -8 154 -8 230
2 230 28 792 18 1014 -19 36 -6 128 -11 205 -11 77 0 185 -7 239 -15 175 -26
235 -15 270 53 19 37 19 33 7 505 -6 267 -6 437 0 515 6 65 12 335 13 602 2
267 6 553 10 635 3 83 8 251 11 375 3 124 7 277 10 340 3 63 7 250 10 415 3
165 8 320 10 345 2 25 7 122 10 216 3 94 7 181 10 195 7 43 28 559 41 1000 11
389 -3 408 -286 409 -69 0 -190 7 -270 16 -153 16 -466 14 -710 -6 -63 -5
-187 -14 -275 -20 -88 -6 -221 -19 -295 -30 -74 -11 -209 -29 -300 -40 -91
-11 -217 -26 -280 -34 -132 -17 -289 -30 -615 -51 -126 -8 -288 -19 -360 -25
-130 -11 -205 -15 -475 -25 -80 -3 -161 -8 -180 -11 -86 -12 -225 -21 -340
-23 -69 -1 -276 -6 -460 -11 -184 -6 -434 -12 -555 -15 -121 -3 -278 -12 -350
-21 -354 -41 -482 -53 -615 -57 -124 -5 -313 -26 -590 -67 -129 -19 -157 -63
-196 -310 -31 -195 -14 -1044 27 -1325 5 -38 14 -122 19 -185 12 -156 78 -811
89 -885 5 -33 12 -98 16 -145 3 -47 12 -125 20 -175 7 -49 16 -121 20 -160 12
-141 17 -174 50 -395 31 -208 43 -312 80 -680 51 -496 58 -626 58 -1005 l0
-270 -27 -100 c-95 -354 -300 -557 -657 -650 -554 -145 -709 -172 -756 -131
l-28 24 -7 279 c-8 310 -40 904 -54 1023 -3 25 -8 232 -11 460 -2 228 -6 582
-8 785 -3 207 -11 451 -20 555 -14 171 -21 746 -13 1120 1 63 -6 237 -15 385
-19 294 -24 657 -31 2253 l-4 983 24 28 c34 41 39 41 574 46 441 4 560 9 825
35 55 6 195 15 310 20 539 25 633 30 820 44 110 9 241 21 290 27 192 24 1666
33 2205 13z"/>
<path fill="#ffffff" stroke="none" d="M10037 1748 c35 -38 54 -369 34 -583
-7 -66 -16 -187 -21 -270 -28 -469 -37 -523 -93 -551 -37 -19 -337 -15 -522 7
-93 11 -508 1 -700 -17 -27 -2 -162 -13 -299 -25 -138 -11 -254 -23 -259 -26
-16 -10 -923 -12 -1047 -2 -147 12 -235 13 -970 11 -395 -1 -627 2 -805 13
-185 11 -284 12 -380 5 -134 -9 -1138 -26 -1485 -23 -110 0 -293 10 -421 22
-406 38 -1116 8 -1297 -54 -43 -15 -404 -16 -577 -1 -104 9 -305 20 -445 26
-419 17 -380 -34 -392 515 -14 644 -12 651 282 705 63 12 168 35 233 50 104
26 181 37 377 56 114 11 221 26 425 61 l210 36 345 4 c563 6 716 4 864 -11 78
-8 195 -18 261 -21 165 -8 307 -22 455 -45 117 -17 271 -32 485 -45 50 -3 106
-8 125 -11 19 -2 109 -9 200 -14 173 -10 193 -12 515 -35 260 -18 368 -23 610
-30 110 -3 236 -8 280 -10 44 -3 148 -7 230 -10 157 -6 410 -20 580 -34 55 -5
241 -9 413 -10 318 -2 372 2 792 49 96 11 263 29 370 40 327 33 544 59 616 74
38 8 137 24 219 36 209 30 504 85 605 114 112 32 160 33 187 4z"/>
<path fill="#000000" stroke="none" d="M777 6725 c-87 -30 -100 -75 -95 -338
4 -253 16 -274 165 -284 99 -7 147 10 168 61 17 39 12 323 -7 408 -25 115
-133 187 -231 153z"/>
<path fill="#000000" stroke="none" d="M803 5351 c-81 -37 -87 -73 -76 -436
l8 -260 20 -35 c43 -75 125 -93 289 -64 141 24 166 44 166 131 0 50 -24 206
-40 258 -5 17 -11 44 -13 60 -23 153 -60 280 -90 314 -49 53 -181 69 -264 32z"/>
<path fill="#000000" stroke="none" d="M1028 3946 c-272 -58 -299 -101 -278
-445 17 -286 32 -346 97 -376 l35 -17 146 24 c269 45 279 60 289 438 10 394
-20 434 -289 376z"/>
</g>
</svg>
