<?xml version="1.0" encoding="UTF-8" standalone="no"?>
<svg
   xmlns:dc="http://purl.org/dc/elements/1.1/"
   xmlns:cc="http://creativecommons.org/ns#"
   xmlns:rdf="http://www.w3.org/1999/02/22-rdf-syntax-ns#"
   xmlns:svg="http://www.w3.org/2000/svg"
   xmlns="http://www.w3.org/2000/svg"
   xmlns:sodipodi="http://sodipodi.sourceforge.net/DTD/sodipodi-0.dtd"
   xmlns:inkscape="http://www.inkscape.org/namespaces/inkscape"
   version="1.0"
   width="498.240000pt"
   height="498.240000pt"
   viewBox="0 0 498.240000 498.240000"
   preserveAspectRatio="xMidYMid meet"
   id="svg1056"
   sodipodi:docname="8-B.svg"
   inkscape:version="0.92.4 (5da689c313, 2019-01-14)">
  <defs
     id="defs1060" />
  <sodipodi:namedview
     pagecolor="#ffffff"
     bordercolor="#666666"
     borderopacity="1"
     objecttolerance="10"
     gridtolerance="10"
     guidetolerance="10"
     inkscape:pageopacity="0"
     inkscape:pageshadow="2"
     inkscape:window-width="1630"
     inkscape:window-height="1005"
     id="namedview1058"
     showgrid="false"
     inkscape:zoom="0.85365434"
     inkscape:cx="346.54062"
     inkscape:cy="312.44191"
     inkscape:window-x="0"
     inkscape:window-y="1"
     inkscape:window-maximized="1"
     inkscape:current-layer="svg1056" />
  <metadata
     id="metadata1040">
Created by potrace 1.12, written by Peter Selinger 2001-2015
<rdf:RDF>
  <cc:Work
     rdf:about="">
    <dc:format>image/svg+xml</dc:format>
    <dc:type
       rdf:resource="http://purl.org/dc/dcmitype/StillImage" />
    <dc:title></dc:title>
  </cc:Work>
</rdf:RDF>
</metadata>
  <g
     transform="translate(0.000000,498.240000) scale(0.048000,-0.048000)"
     fill="#000000"
     stroke="none"
     id="g1054">
    <path
       style="fill:#000000;stroke:none;stroke-width:0.064"
       d="M 0 0 L 0 332.16016 L 0 664.32031 L 332.16016 664.32031 L 664.32031 664.32031 L 664.32031 332.16016 L 664.32031 0 L 332.16016 0 L 0 0 z M 549.21094 13.521484 C 556.99465 13.617081 566.98278 14.514312 580.80078 16.320312 C 588.92878 17.408317 609.72766 18.752719 622.84766 19.136719 L 638.01562 19.519531 L 639.80859 20.863281 C 643.07259 23.295281 643.19967 24.1275 643.26367 42.6875 C 643.26367 52.0955 643.51984 62.144933 643.83984 64.960938 C 644.15984 67.776938 644.60878 75.199156 644.80078 81.535156 C 644.99278 87.807156 645.43977 94.143234 645.75977 95.615234 C 646.65577 99.711234 647.68031 108.35177 648.32031 117.75977 C 648.64031 122.49577 649.40833 128.70353 649.98438 131.51953 C 651.52038 138.75153 651.77519 189.37608 650.36719 198.08008 C 649.72719 201.79208 649.47266 207.87133 649.47266 215.35938 C 649.92066 271.55138 649.79294 288.0647 648.96094 294.7207 C 648.51294 298.5607 648.064 307.64886 648 314.88086 C 648 322.11286 647.61597 335.16755 647.16797 343.93555 C 646.52797 357.50355 646.59133 360.44708 647.35938 363.45508 C 648.83138 369.27908 648.96028 405.11906 647.48828 415.03906 C 646.52828 421.63106 646.46366 425.47297 646.84766 441.79297 C 647.23166 461.12097 647.16788 462.72008 644.67188 478.08008 C 644.09583 481.60008 643.64753 489.59944 643.51953 497.02344 C 643.26353 513.66344 642.62402 515.3277 636.41602 516.0957 C 635.00802 516.2877 628.03278 517.31194 620.80078 518.33594 C 613.56878 519.42394 603.19977 520.83161 597.75977 521.59961 C 592.31977 522.36761 582.78467 524.09591 576.64062 525.50391 C 559.93662 529.34391 554.36839 530.36784 542.40039 531.83984 C 536.44839 532.54384 529.92 533.43977 528 533.75977 C 495.872 539.07177 445.05686 540.6073 410.88086 537.2793 C 405.76086 536.7673 398.71922 536.192 395.19922 536 C 391.67922 535.808 386.36738 535.48738 383.35938 535.35938 C 380.35133 535.16733 373.05506 534.84825 367.03906 534.65625 C 361.08706 534.46425 354.75294 534.20808 352.96094 534.08008 C 351.23294 533.95208 346.87938 533.69545 343.35938 533.43945 C 339.83933 533.24745 333.37694 532.80047 328.96094 532.48047 C 324.54494 532.16047 317.95223 531.71153 314.24023 531.51953 C 310.52823 531.32753 305.21639 530.88055 302.40039 530.56055 C 299.58439 530.24055 289.79267 529.6633 280.64062 529.2793 C 271.48862 528.8953 262.97577 528.44831 261.75977 528.32031 C 260.54377 528.19231 257.21639 527.93569 254.40039 527.67969 C 251.58439 527.42369 248.44738 527.16706 247.35938 527.03906 C 246.33533 526.97506 239.10338 526.01573 231.35938 524.92773 C 223.61533 523.83973 212.09577 522.62423 205.75977 522.24023 C 199.42377 521.85623 190.52792 521.02327 185.91992 520.44727 C 180.09592 519.67927 174.08022 519.42473 165.82422 519.55273 C 147.96822 519.80873 147.20009 519.29623 146.49609 506.24023 C 146.24009 501.82423 145.72775 494.08094 145.34375 488.96094 C 145.02375 483.84094 144.51231 475.6487 144.32031 470.7207 C 144.12831 465.7927 143.87169 460.16023 143.67969 458.24023 C 143.10369 450.75223 142.20777 436.41655 141.75977 426.56055 C 141.56777 422.33655 141.24714 417.6 141.11914 416 C 140.99114 414.4 140.67247 409.66345 140.48047 405.43945 C 140.28847 401.21545 140.03184 396.16023 139.83984 394.24023 C 139.07184 385.21623 138.88055 382.6553 138.56055 377.2793 C 138.30455 374.0793 137.7913 368.06384 137.2793 363.83984 C 136.7673 359.61584 136.256 353.98338 136 351.35938 C 135.808 348.73533 135.03994 341.95231 134.33594 336.32031 C 133.63194 330.68831 132.6077 322.30377 132.0957 317.75977 C 131.5837 313.15177 130.62392 305.40847 129.91992 300.48047 C 123.51992 254.72047 120.96016 207.04023 124.16016 194.24023 C 126.20816 185.98423 132.22484 168.64002 134.46484 164.41602 C 137.79284 158.20802 143.74403 153.8568 160.83203 145.2168 C 173.05603 139.0088 173.69631 138.81578 184.32031 138.17578 C 189.44031 137.91978 196.35169 137.27917 199.67969 136.70312 C 204.92769 135.87112 216.76777 135.55169 237.75977 135.67969 C 259.00777 135.80769 315.19911 135.55288 316.28711 135.29688 C 317.11911 135.16883 328.25664 134.9127 341.05664 134.7207 C 353.85664 134.5927 366.65666 134.07931 369.47266 133.69531 C 372.67266 133.24731 377.53562 133.1205 382.01562 133.3125 C 389.05567 133.6965 403.32733 132.79922 415.35938 131.19922 C 417.98338 130.87922 423.61584 130.56055 427.83984 130.56055 C 432.06384 130.56055 439.29584 130.23992 443.83984 129.91992 C 448.44784 129.59992 455.04055 129.15294 458.56055 128.96094 C 462.08055 128.76894 467.26408 128.32 470.08008 128 C 472.89608 127.616 477.8873 127.35938 481.2793 127.35938 C 484.6073 127.35934 491.13569 127.04025 495.67969 126.65625 C 508.47969 125.56825 519.61592 127.29595 521.91992 130.75195 C 524.73592 135.10395 525.44041 222.59209 522.81641 250.49609 C 522.49641 254.33609 522.36855 259.77625 522.56055 262.65625 C 523.32855 273.34425 523.32841 281.08722 522.81641 323.19922 C 522.17641 375.23122 521.72894 393.21633 520.96094 401.98438 C 520.64094 405.63238 520.38431 411.00717 520.32031 413.95117 C 520.32031 419.51917 519.61514 421.76 517.11914 424 L 515.71289 425.2793 L 495.74414 425.2168 C 476.60814 425.0888 453.56792 424.31906 433.91992 423.03906 C 428.79992 422.71906 417.85561 422.27167 409.59961 422.01562 C 401.34361 421.82362 393.53631 421.56745 392.32031 421.43945 C 391.10431 421.31145 384.44761 421.05678 377.59961 420.80078 C 359.23161 420.22478 345.728 419.32792 336 417.91992 C 331.264 417.27992 323.64706 416.25569 319.03906 415.67969 C 301.50306 413.43969 299.00809 412.35108 290.49609 403.45508 C 278.72009 391.16708 273.79239 381.63111 270.40039 364.28711 L 268.80078 356.22461 L 268.86328 330.62305 C 269.05528 283.00705 270.52877 274.6873 280.38477 265.2793 C 286.97677 258.9433 300.86442 254.27216 319.23242 252.16016 C 322.62442 251.77616 329.79106 250.4962 335.03906 249.4082 L 344.64062 247.35938 L 364.80078 247.42383 C 403.58478 247.55183 411.64875 250.43212 419.96875 267.32812 L 421.95117 271.35938 L 422.46484 282.36719 C 422.97684 292.92719 423.23291 296.32094 424.12891 304.96094 C 424.57691 309.37694 424.512 317.75912 424 320.70312 C 423.04 326.14317 421.63192 326.78383 409.91992 327.42383 C 390.52792 328.51183 390.20767 328.38394 387.26367 318.33594 C 384.89567 310.07994 382.52847 308.54402 372.48047 308.41602 C 360.76847 308.22402 359.61531 310.46452 357.69531 337.72852 C 355.96731 363.00852 361.34384 367.29614 395.83984 367.74414 C 411.45584 368.00014 421.2475 368.70305 434.6875 370.62305 C 441.4715 371.58305 446.14403 371.32838 448.83203 369.98438 C 452.67203 368.00033 457.60027 364.03161 459.07227 361.59961 L 460.41602 359.35938 L 460.54492 340.16016 C 460.60892 329.60016 460.80019 320.06306 460.99219 319.03906 C 461.18419 317.95106 461.50331 313.40728 461.69531 308.86328 C 461.95131 304.38328 462.20794 300.48061 462.33594 300.22461 C 462.91194 299.32861 463.42323 286.52847 463.61523 268.48047 C 463.74323 257.92047 464.06386 248.57569 464.25586 247.67969 C 464.44786 246.78369 464.70358 241.47184 464.76758 235.83984 L 464.89648 225.59961 L 463.35938 222.40039 C 459.96733 215.55239 458.04839 215.1687 430.40039 214.7207 C 407.93639 214.4007 391.80745 213.8885 389.43945 213.3125 C 387.45545 212.8645 304.5113 212.22402 273.2793 212.41602 L 245.43945 212.54492 L 243.26367 213.63281 C 242.04767 214.20881 240.44814 215.55172 239.74414 216.51172 L 238.40039 218.30469 L 238.01562 250.75195 C 237.56762 283.07195 237.05602 303.55155 236.41602 311.93555 C 235.26402 326.33555 234.81584 400.25592 235.83984 401.91992 C 235.96784 402.17592 236.28847 409.53669 236.48047 418.30469 C 237.18447 444.41669 236.67216 443.83984 260.16016 443.83984 C 268.60816 443.83984 277.82462 443.64858 280.64062 443.39258 C 288.12867 442.75258 319.04031 442.56072 328.32031 443.13672 C 351.55231 444.54472 364.86341 445.56856 376.19141 446.97656 C 383.10341 447.87256 393.40706 448.70494 399.03906 448.96094 C 404.67106 449.15294 413.05606 449.66483 417.66406 450.04883 C 424.00006 450.56083 427.52077 450.55992 432.38477 449.91992 C 447.10477 448.12792 483.0713 448.76872 497.2793 451.13672 C 499.5833 451.52072 505.47239 451.83984 510.40039 451.83984 C 515.32839 451.83984 522.23931 452.28878 525.69531 452.80078 C 536.89531 454.46478 540.73656 453.7602 542.97656 449.4082 C 544.19256 447.0402 544.19183 447.29589 543.42383 417.08789 C 543.03983 399.99989 543.03983 389.12091 543.42383 384.12891 C 543.80783 379.96891 544.19186 362.68761 544.25586 345.59961 C 544.38386 328.51161 544.64048 310.20894 544.89648 304.96094 C 545.08848 299.64894 545.40761 288.89694 545.59961 280.96094 C 545.79161 273.02494 546.04823 263.23122 546.24023 259.19922 C 546.43223 255.16722 546.68886 243.20067 546.88086 232.64062 C 547.07286 222.08062 547.39153 212.16055 547.51953 210.56055 C 547.64753 208.96055 547.96816 202.75233 548.16016 196.73633 C 548.35216 190.72033 548.60878 185.15186 548.80078 184.25586 C 549.24878 181.50386 550.59183 148.47986 551.42383 120.25586 C 552.12783 95.359855 551.23114 94.144078 533.11914 94.080078 C 528.70314 94.080078 520.95984 93.632641 515.83984 93.056641 C 506.04784 92.032641 486.01639 92.159453 470.40039 93.439453 C 466.36839 93.759453 458.43278 94.336703 452.80078 94.720703 C 447.16878 95.104703 438.65592 95.936625 433.91992 96.640625 C 429.18392 97.344625 420.5447 98.495219 414.7207 99.199219 C 408.8967 99.903219 400.83278 100.86495 396.80078 101.37695 C 388.35278 102.46495 378.30345 103.29662 357.43945 104.64062 C 349.37545 105.15267 339.00839 105.85623 334.40039 106.24023 C 326.08039 106.94423 321.28 107.19984 304 107.83984 C 298.88 108.03184 293.69647 108.35292 292.48047 108.54492 C 286.97647 109.31292 278.0807 109.88762 270.7207 110.01562 C 266.3047 110.07967 253.0553 110.4007 241.2793 110.7207 C 229.5033 111.1047 213.50377 111.48769 205.75977 111.67969 C 198.01577 111.87169 187.96738 112.44744 183.35938 113.02344 C 160.70333 115.64744 152.512 116.41583 144 116.67188 C 136.064 116.99188 123.96823 118.33694 106.24023 120.96094 C 97.98425 122.17694 96.191317 124.99278 93.695312 140.80078 C 91.711312 153.28078 92.799828 207.61561 95.423828 225.59961 C 95.743828 228.03161 96.320625 233.40745 96.640625 237.43945 C 97.408625 247.42345 101.63194 289.34408 102.33594 294.08008 C 102.65594 296.19208 103.10333 300.35133 103.35938 303.35938 C 103.55138 306.36738 104.12862 311.36055 104.64062 314.56055 C 105.08867 317.69655 105.66392 322.30478 105.91992 324.80078 C 106.68792 333.82478 107.00714 335.93608 109.11914 350.08008 C 111.10314 363.39208 111.87223 370.04761 114.24023 393.59961 C 117.50423 425.34361 117.95117 433.66392 117.95117 457.91992 L 117.95117 475.19922 L 116.22461 481.59961 C 110.14461 504.25561 97.023786 517.24722 74.175781 523.19922 C 38.719781 532.47922 28.800969 534.20798 25.792969 531.58398 L 24 530.04883 L 23.552734 512.19141 C 23.040734 492.35141 20.991703 454.3367 20.095703 446.7207 C 19.903703 445.1207 19.584578 431.8713 19.392578 417.2793 C 19.264578 402.6873 19.008859 380.03106 18.880859 367.03906 C 18.688859 353.79106 18.175609 338.17553 17.599609 331.51953 C 16.703609 320.57553 16.255578 283.77584 16.767578 259.83984 C 16.831578 255.80784 16.384594 244.67122 15.808594 235.19922 C 14.592594 216.38322 14.272219 193.15181 13.824219 91.007812 L 13.568359 28.095703 L 15.103516 26.304688 C 17.279516 23.680683 17.599839 23.679375 51.839844 23.359375 C 80.063844 23.103375 87.680645 22.783141 104.64062 21.119141 C 108.16067 20.735141 117.12047 20.159844 124.48047 19.839844 C 158.97647 18.239844 164.99294 17.919438 176.96094 17.023438 C 184.00094 16.447433 192.38353 15.680875 195.51953 15.296875 C 207.80753 13.760875 302.14462 13.184844 336.64062 14.464844 C 343.80867 14.720844 354.68711 14.528078 364.28711 14.080078 C 380.28711 13.248078 382.07961 13.247375 409.59961 15.359375 C 420.60761 16.255375 456.00039 16.448141 470.40039 15.744141 C 478.65639 15.360141 486.01639 15.423547 494.40039 15.935547 C 503.04039 16.511547 508.5433 16.512453 513.2793 16.064453 C 516.9913 15.744453 523.19906 15.231067 527.03906 15.039062 C 530.94306 14.783062 536.12855 14.335625 538.56055 14.015625 C 540.81655 13.743625 543.26786 13.579297 546.00586 13.529297 C 547.03261 13.510547 548.09898 13.507828 549.21094 13.521484 z M 53.285156 233.38477 C 52.103391 233.34234 50.904516 233.51192 49.728516 233.91992 C 44.160516 235.83992 43.328436 238.72073 43.648438 255.55273 C 43.904438 271.74473 44.671031 273.08852 54.207031 273.72852 C 60.543031 274.17652 63.616936 273.08822 64.960938 269.82422 C 66.048938 267.32822 65.727719 249.15289 64.511719 243.71289 C 63.211719 237.73289 58.406141 233.56859 53.285156 233.38477 z M 58.246094 320.56836 C 55.817594 320.55636 53.384578 320.96747 51.392578 321.85547 C 46.208578 324.22347 45.823344 326.52777 46.527344 349.75977 L 47.039062 366.40039 L 48.320312 368.64062 C 51.072315 373.44065 56.320406 374.59233 66.816406 372.73633 C 75.840406 371.20033 77.439453 369.91956 77.439453 364.35156 C 77.439453 361.15156 75.904859 351.16784 74.880859 347.83984 C 74.560859 346.75184 74.176828 345.024 74.048828 344 C 72.576828 334.208 70.207109 326.0803 68.287109 323.9043 C 66.327109 321.7843 62.293594 320.58836 58.246094 320.56836 z M 75.027344 410.41211 C 72.591904 410.45236 69.558969 410.96339 65.792969 411.77539 C 48.384969 415.48739 46.656 418.23986 48 440.25586 C 49.088 458.55986 50.047031 462.40031 54.207031 464.32031 L 56.447266 465.4082 L 65.792969 463.87109 C 83.008969 460.99109 83.647109 460.03184 84.287109 435.83984 C 84.787109 416.13984 83.725342 410.26836 75.027344 410.41211 z M 638.42383 551.11133 C 640.30383 551.07133 641.50319 551.51927 642.36719 552.44727 C 644.60719 554.87927 645.82492 576.06377 644.54492 589.75977 C 644.09692 593.98377 643.51922 601.72706 643.19922 607.03906 C 641.40722 637.05506 640.83205 640.51269 637.24805 642.30469 C 634.88005 643.52069 615.67984 643.26347 603.83984 641.85547 C 597.88784 641.15147 571.32706 641.79136 559.03906 642.94336 C 557.31106 643.07136 548.6723 643.77692 539.9043 644.54492 C 531.0723 645.24892 523.64817 646.01503 523.32812 646.20703 C 522.30412 646.84703 464.25631 646.97594 456.32031 646.33594 C 446.91231 645.56794 441.28023 645.50481 394.24023 645.63281 C 368.96023 645.69681 354.1127 645.50478 342.7207 644.80078 C 330.8807 644.09678 324.54439 644.03247 318.40039 644.48047 C 309.82439 645.05647 245.56738 646.14317 223.35938 645.95117 C 216.31933 645.95117 204.60802 645.31292 196.41602 644.54492 C 170.43202 642.11292 124.9922 644.032 113.4082 648 C 110.6562 648.96 87.552469 649.02445 76.480469 648.06445 C 69.824469 647.48845 56.96 646.78439 48 646.40039 C 21.184 645.31239 23.680109 648.57545 22.912109 613.43945 C 22.016109 572.22345 22.144933 571.77631 40.960938 568.32031 C 44.992938 567.55231 51.711094 566.07914 55.871094 565.11914 C 62.527094 563.45514 67.456 562.75116 80 561.53516 C 87.296 560.83116 94.143215 559.87281 107.19922 557.63281 L 120.64062 555.32812 L 142.7207 555.07227 C 178.7527 554.68827 188.54362 554.81539 198.01562 555.77539 C 203.00767 556.28739 210.4967 556.92714 214.7207 557.11914 C 225.2807 557.63114 234.36784 558.528 243.83984 560 C 251.32784 561.088 261.18486 562.04886 274.88086 562.88086 C 278.08086 563.07286 281.66486 563.39198 282.88086 563.58398 C 284.09686 563.71198 289.85569 564.16047 295.67969 564.48047 C 306.75169 565.12047 308.03262 565.2487 328.64062 566.7207 C 345.28067 567.8727 352.19169 568.19262 367.67969 568.64062 C 374.71969 568.83267 382.78361 569.1513 385.59961 569.2793 C 388.41561 569.4713 395.07231 569.72792 400.32031 569.91992 C 410.36831 570.30392 426.55945 571.1997 437.43945 572.0957 C 440.95945 572.4157 452.86309 572.67233 463.87109 572.73633 C 484.22309 572.86433 487.68055 572.60761 514.56055 569.59961 C 520.70455 568.89561 531.39223 567.74306 538.24023 567.03906 C 559.16823 564.92706 573.05606 563.26469 577.66406 562.30469 C 580.09606 561.79269 586.43169 560.768 591.67969 560 C 605.05569 558.08 623.93639 554.55917 630.40039 552.70312 C 633.98439 551.67912 636.54383 551.15133 638.42383 551.11133 z "
       transform="matrix(15.625,0,0,-15.625,0,10380)"
       id="path1042" />
  </g>
</svg>
