<?xml version="1.0" standalone="no"?>
<!DOCTYPE svg PUBLIC "-//W3C//DTD SVG 20010904//EN"
 "http://www.w3.org/TR/2001/REC-SVG-20010904/DTD/svg10.dtd">
<svg version="1.0" xmlns="http://www.w3.org/2000/svg"
 width="498.240000pt" height="498.240000pt" viewBox="0 0 498.240000 498.240000"
 preserveAspectRatio="xMidYMid meet">
<metadata>
Created by potrace 1.12, written by Peter Selinger 2001-2015
</metadata>
<g transform="translate(0.000000,498.240000) scale(0.048000,-0.048000)"
fill="#000000" stroke="none">
<path fill="#000000" stroke="none" d="M0 5190 l0 -5190 5190 0 5190 0 0 5190
0 5190 -5190 0 -5190 0 0 -5190z"/>
<path fill="#ffffff" stroke="none" d="M4805 10130 c10 -8 33 -48 53 -88 l35
-74 -7 -71 c-11 -123 -98 -289 -288 -553 -85 -118 -424 -440 -576 -547 -184
-130 -366 -244 -537 -338 -76 -42 -238 -103 -391 -149 -77 -23 -186 -57 -243
-76 -111 -37 -201 -58 -293 -68 -31 -4 -83 -11 -115 -16 -32 -6 -258 -10 -503
-10 -573 0 -722 15 -829 80 -25 16 -89 45 -141 65 -52 20 -99 40 -105 44 -5 5
-53 26 -105 46 -100 40 -175 87 -303 193 -113 93 -110 81 -52 232 18 47 36
109 40 138 4 28 14 61 23 71 l17 20 230 9 c561 24 1279 1 1656 -54 187 -27
315 153 344 483 12 130 -27 199 -149 263 l-59 30 -76 -6 c-92 -9 -1230 -10
-1785 -3 l-400 6 -12 19 c-9 13 -10 34 -4 69 5 28 9 69 9 93 1 51 -59 44 386
48 432 4 856 19 930 34 28 5 136 14 240 19 105 6 281 15 392 21 112 6 206 9
210 7 7 -4 148 5 483 33 58 5 146 14 195 21 202 26 1700 34 1730 9z"/>
<path fill="#ffffff" stroke="none" d="M6070 10139 c157 -10 254 -11 345 -5
16 1 42 -4 57 -11 22 -11 92 -13 365 -8 511 9 564 9 753 -4 96 -7 461 -16 810
-21 349 -4 757 -14 905 -21 149 -7 363 -11 477 -10 l206 3 11 -38 c13 -51 31
-351 31 -524 0 -84 5 -152 14 -180 7 -25 11 -58 8 -75 -7 -35 -7 -43 1 -270 6
-177 22 -326 38 -357 15 -28 30 -315 39 -728 5 -255 11 -388 20 -415 11 -36 9
-162 -4 -231 -4 -20 -21 -724 -20 -819 0 -27 2 -117 4 -200 5 -237 -9 -642
-25 -700 -11 -38 -15 -132 -16 -380 -1 -182 -5 -338 -10 -347 -15 -29 -74 -39
-151 -26 -52 9 -90 9 -165 0 -54 -7 -129 -12 -168 -13 -38 0 -99 -4 -135 -8
-262 -34 -325 -44 -400 -65 -47 -14 -108 -27 -137 -30 -28 -4 -77 -16 -110
-27 l-58 -21 -325 -3 c-233 -2 -333 -7 -355 -16 -42 -17 -388 -13 -458 7 -29
8 -90 21 -137 29 -47 8 -107 21 -135 29 -27 8 -70 17 -95 20 -116 16 -180 38
-225 78 -24 21 -70 48 -101 58 -32 11 -78 33 -103 49 -25 16 -93 52 -151 79
-58 27 -132 69 -165 93 -33 25 -107 76 -165 114 -127 84 -250 204 -311 305
-25 41 -74 122 -109 180 -36 58 -111 170 -168 250 -57 80 -120 177 -139 215
-45 90 -181 285 -278 400 -42 50 -92 118 -112 153 -19 35 -52 84 -72 110 -21
26 -82 108 -136 182 -133 181 -305 379 -508 585 -328 332 -447 472 -447 530 0
49 71 149 128 182 74 42 232 152 292 203 30 25 82 67 115 92 350 269 757 865
825 1208 11 57 32 140 45 185 14 44 25 95 25 112 0 47 9 63 39 63 14 1 44 8
66 16 35 14 153 28 265 32 19 1 114 -3 210 -9z"/>
<path fill="#ffffff" stroke="none" d="M533 7753 c15 -7 60 -16 100 -19 39 -3
110 -9 157 -15 47 -5 146 -14 220 -19 129 -9 264 -23 360 -38 140 -22 -1 -179
-194 -217 -39 -7 -87 -20 -106 -28 -19 -8 -55 -18 -80 -22 -25 -4 -97 -22
-160 -40 -112 -31 -157 -41 -230 -50 -19 -2 -104 -13 -189 -25 -84 -12 -157
-18 -162 -13 -10 10 -17 439 -7 474 l7 25 128 1 c91 0 136 -4 156 -14z"/>
<path fill="#ffffff" stroke="none" d="M2476 7501 c16 -5 61 -14 99 -21 39 -7
85 -18 104 -25 l33 -11 -53 -58 c-32 -35 -71 -66 -99 -78 -25 -11 -65 -32 -90
-48 -25 -15 -110 -49 -188 -75 -114 -38 -153 -56 -188 -86 -50 -43 -61 -43
-129 9 -73 55 -109 128 -85 173 11 20 188 109 308 155 35 14 85 35 110 49 50
26 125 32 178 16z"/>
<path fill="#ffffff" stroke="none" d="M3830 7066 c229 -123 469 -328 647
-552 104 -131 216 -302 253 -389 32 -72 76 -176 120 -283 22 -51 61 -123 87
-160 26 -37 66 -95 88 -129 107 -165 188 -266 342 -430 64 -67 123 -135 133
-151 24 -40 299 -325 321 -334 10 -4 50 -32 90 -62 105 -80 149 -100 304 -140
77 -20 168 -50 203 -66 99 -46 229 -95 332 -124 52 -15 127 -42 165 -62 39
-19 115 -52 170 -73 55 -21 141 -54 190 -74 105 -41 198 -60 252 -52 30 5 59
-2 143 -36 86 -35 117 -43 170 -44 113 0 273 16 340 34 l65 18 0 44 0 43 35 7
c19 4 76 13 125 19 133 16 265 40 395 71 42 10 138 21 220 24 151 7 653 48
799 66 48 6 101 19 125 31 48 25 147 31 168 10 20 -20 13 -220 -10 -245 l-16
-18 -166 5 c-94 3 -180 2 -200 -4 -19 -5 -102 -14 -185 -20 -163 -11 -283 -24
-358 -38 -26 -5 -50 -9 -52 -10 -3 0 -29 -6 -58 -12 -28 -6 -108 -14 -177 -19
-92 -6 -155 -16 -240 -41 -63 -17 -140 -39 -170 -48 -30 -8 -80 -28 -110 -43
-30 -14 -71 -31 -90 -37 -19 -6 -87 -34 -150 -63 -167 -75 -245 -93 -316 -70
-16 6 -74 12 -129 15 -55 3 -145 10 -200 15 -55 6 -206 13 -335 16 -129 3
-266 7 -304 10 -55 2 -84 -2 -138 -21 -93 -34 -236 -36 -323 -5 -36 13 -83 21
-120 21 -33 0 -126 5 -207 12 l-146 11 -54 -26 c-80 -39 -82 -46 -67 -267 6
-102 17 -191 23 -199 11 -14 40 -114 56 -196 10 -49 33 -101 110 -255 21 -41
43 -93 50 -115 7 -22 16 -44 20 -50 5 -5 28 -64 53 -130 25 -66 68 -167 95
-225 27 -58 57 -130 67 -160 10 -30 42 -102 71 -160 70 -136 69 -187 -3 -149
-35 19 -158 161 -190 221 -52 95 -168 83 -220 -23 -23 -45 -47 -232 -38 -294
2 -16 6 -60 9 -97 9 -99 6 -95 247 -338 123 -124 246 -252 274 -285 27 -33 91
-107 141 -165 50 -58 103 -124 117 -147 16 -25 52 -58 92 -85 72 -46 135 -132
135 -181 0 -34 -53 -52 -124 -42 -115 16 -288 13 -361 -8 -73 -20 -109 -20
-285 3 -41 5 -107 9 -146 10 l-70 0 -33 34 c-32 33 -64 128 -86 251 -4 22 -18
78 -32 125 -23 80 -31 130 -53 325 -13 123 -29 215 -40 235 -6 11 -17 57 -25
102 -20 111 -18 103 -59 271 -84 340 -82 444 11 590 97 152 153 302 134 359
-6 19 -15 75 -20 124 -4 49 -13 100 -20 112 -58 108 -123 292 -127 355 -1 37
-9 80 -17 95 -8 15 -21 41 -30 57 -52 101 -85 174 -92 205 -24 119 -123 197
-260 205 -198 11 -367 28 -412 40 -28 8 -64 15 -80 15 -51 0 -64 19 -75 106
-5 43 -12 96 -15 117 -6 47 6 62 65 80 26 8 85 31 131 51 52 22 114 40 160 46
42 5 98 17 124 26 31 10 67 15 100 12 53 -5 59 -8 253 -131 41 -26 107 -64
146 -85 l72 -37 192 0 192 0 53 37 c30 20 66 42 81 49 72 32 16 130 -82 145
-131 21 -552 336 -855 640 -110 111 -211 204 -223 208 -12 4 -42 34 -67 66
-25 33 -52 63 -59 67 -8 4 -40 46 -72 93 -31 47 -72 103 -90 125 -100 120
-127 155 -163 205 -75 107 -346 370 -561 545 -47 38 -116 98 -154 132 -149
137 -287 226 -508 328 -153 71 -176 87 -233 170 l-36 53 15 29 c34 68 195 146
344 167 199 29 369 30 422 2z"/>
<path fill="#ffffff" stroke="none" d="M1209 6719 c112 -17 281 -49 396 -74
61 -13 133 -27 160 -31 28 -4 55 -8 60 -10 128 -30 232 -54 280 -64 91 -19
223 -54 400 -106 88 -26 189 -55 225 -65 290 -81 601 -241 793 -410 41 -35
114 -98 163 -139 150 -126 323 -307 466 -485 74 -93 159 -199 188 -235 29 -36
83 -110 121 -165 37 -55 88 -127 113 -160 73 -95 57 -115 -92 -115 -131 0
-208 -28 -387 -137 -39 -23 -84 -113 -94 -189 -5 -32 -18 -90 -30 -129 -22
-76 -36 -261 -22 -299 5 -12 14 -85 20 -162 16 -193 22 -205 151 -344 45 -48
257 -109 404 -116 217 -10 222 -13 242 -118 8 -39 25 -111 38 -161 14 -49 36
-137 50 -195 71 -299 71 -300 9 -345 -23 -16 -63 -46 -88 -65 -114 -86 -105
-82 -175 -77 -74 6 -323 32 -450 47 -95 12 -392 39 -485 45 -165 11 -219 16
-310 31 -16 2 -70 9 -120 14 -49 5 -106 12 -126 16 -20 3 -63 7 -95 9 -33 3
-70 7 -84 9 -14 3 -50 8 -80 11 -244 26 -562 83 -723 129 -420 121 -522 164
-739 312 -42 29 -107 69 -145 90 -37 21 -94 62 -126 91 -87 79 -123 58 -141
-80 -4 -26 -11 -59 -16 -73 -23 -59 -14 -86 51 -146 l62 -57 -7 -28 c-4 -15
-11 -93 -16 -173 -10 -154 -34 -323 -51 -368 -6 -15 -13 -72 -15 -127 l-5
-100 33 -55 c38 -63 135 -142 237 -191 37 -17 102 -49 146 -71 44 -22 107 -48
140 -58 33 -10 121 -36 195 -58 74 -22 178 -50 230 -62 52 -12 156 -37 230
-55 74 -18 173 -36 220 -39 47 -4 110 -11 140 -16 131 -22 224 -31 354 -35
127 -4 172 -9 293 -36 23 -5 77 -9 119 -9 70 0 149 -10 314 -41 30 -6 108 -17
172 -24 65 -7 121 -16 126 -19 11 -6 272 -29 362 -31 267 -6 616 -42 666 -68
79 -41 226 -250 252 -357 50 -205 68 -358 45 -381 -6 -6 -97 -14 -204 -19
-110 -5 -207 -14 -224 -21 -32 -13 -283 -29 -750 -50 l-280 -12 -390 23 c-226
13 -425 20 -475 16 -50 -4 -193 2 -349 13 l-264 19 -226 -30 c-195 -25 -233
-28 -277 -17 -28 6 -69 9 -90 5 -132 -21 -324 -34 -374 -26 -48 8 -357 26
-610 35 -132 5 -327 22 -338 29 -29 18 -33 560 -4 661 11 40 9 77 -11 160 -51
211 -68 382 -48 475 7 30 14 70 17 89 2 18 7 37 9 42 3 5 8 30 11 56 2 26 7
55 10 64 25 84 15 301 -18 379 -21 48 -32 391 -54 1757 -2 167 -9 324 -13 350
-6 30 -6 69 1 103 7 37 6 161 -1 390 -16 481 -21 660 -26 875 -2 105 -7 237
-10 295 -6 89 -4 113 12 160 11 31 19 64 17 75 -15 101 -25 368 -15 375 21 12
277 61 416 78 101 13 437 14 514 1z"/>
<path fill="#ffffff" stroke="none" d="M6620 3130 c63 -6 133 -15 155 -21 22
-5 106 -12 188 -16 l147 -6 5 -21 c2 -12 6 -37 10 -56 3 -19 21 -73 41 -120
20 -47 44 -108 54 -136 35 -100 139 -300 191 -369 29 -38 73 -97 97 -130 222
-298 587 -528 947 -595 22 -4 89 -17 148 -29 105 -21 432 -32 507 -17 14 3 72
10 130 16 58 6 119 15 135 20 17 5 50 12 75 15 68 11 235 77 378 150 70 36
141 67 157 68 l30 2 -3 -48 c-2 -36 1 -49 13 -53 14 -6 16 -28 14 -178 -2
-119 2 -183 11 -210 8 -26 10 -57 5 -95 -4 -31 -11 -85 -15 -121 -4 -36 -13
-94 -19 -129 -18 -95 -32 -231 -40 -366 -3 -66 -10 -126 -15 -134 -5 -8 -8
-44 -8 -81 2 -88 -10 -105 -75 -104 -249 7 -405 14 -493 22 -101 11 -543 -1
-580 -14 -8 -3 -100 -12 -205 -19 -104 -8 -244 -19 -309 -25 -170 -16 -182
-10 -282 133 -58 83 -130 174 -255 322 -37 44 -91 110 -120 147 -30 37 -89
107 -133 155 -183 205 -304 398 -527 838 -185 366 -227 446 -262 501 -14 23
-32 57 -40 75 -8 19 -51 99 -96 178 -45 80 -91 176 -102 215 -12 39 -37 101
-55 138 -52 104 -47 123 31 114 28 -3 102 -10 165 -16z"/>
<path fill="#ffffff" stroke="none" d="M8260 3034 c35 -9 123 -48 195 -87 270
-145 372 -196 440 -222 l70 -27 175 -8 c117 -5 190 -13 220 -23 25 -9 75 -21
112 -27 l66 -12 47 21 c27 12 86 58 143 112 234 223 358 271 337 132 -9 -59
-9 -225 0 -309 13 -116 -22 -149 -250 -238 -183 -71 -337 -136 -351 -147 -26
-21 -193 -71 -332 -98 -60 -12 -188 -13 -247 -2 -22 4 -55 3 -74 -2 -84 -22
-486 87 -632 172 -19 11 -53 24 -76 31 -156 41 -386 356 -467 642 -33 115 -31
116 152 93 l137 -17 60 21 c71 24 171 22 275 -5z"/>
<path fill="#ffffff" stroke="none" d="M1517 2497 c142 -61 346 -126 628 -202
28 -7 84 -19 125 -25 41 -7 111 -20 155 -30 118 -27 276 -51 430 -65 33 -4 90
-10 127 -16 37 -5 95 -9 131 -9 68 0 104 -16 94 -43 -8 -21 -320 -117 -380
-117 -15 0 -76 -16 -135 -35 l-108 -35 -90 10 c-139 15 -443 86 -579 134 -49
18 -135 47 -190 65 -116 39 -324 138 -339 163 -9 14 6 181 19 226 6 19 26 15
112 -21z"/>
</g>
</svg>
