<?xml version="1.0" encoding="UTF-8" standalone="no"?>
<svg
   xmlns:dc="http://purl.org/dc/elements/1.1/"
   xmlns:cc="http://creativecommons.org/ns#"
   xmlns:rdf="http://www.w3.org/1999/02/22-rdf-syntax-ns#"
   xmlns:svg="http://www.w3.org/2000/svg"
   xmlns="http://www.w3.org/2000/svg"
   xmlns:sodipodi="http://sodipodi.sourceforge.net/DTD/sodipodi-0.dtd"
   xmlns:inkscape="http://www.inkscape.org/namespaces/inkscape"
   version="1.0"
   width="498.240000pt"
   height="498.240000pt"
   viewBox="0 0 498.240000 498.240000"
   preserveAspectRatio="xMidYMid meet"
   id="svg1225"
   sodipodi:docname="C-F.svg"
   inkscape:version="0.92.4 (5da689c313, 2019-01-14)">
  <defs
     id="defs1229" />
  <sodipodi:namedview
     pagecolor="#ffffff"
     bordercolor="#666666"
     borderopacity="1"
     objecttolerance="10"
     gridtolerance="10"
     guidetolerance="10"
     inkscape:pageopacity="0"
     inkscape:pageshadow="2"
     inkscape:window-width="1630"
     inkscape:window-height="1005"
     id="namedview1227"
     showgrid="false"
     inkscape:zoom="1.2072495"
     inkscape:cx="301.34827"
     inkscape:cy="340.37554"
     inkscape:window-x="0"
     inkscape:window-y="1"
     inkscape:window-maximized="1"
     inkscape:current-layer="svg1225" />
  <metadata
     id="metadata1201">
Created by potrace 1.12, written by Peter Selinger 2001-2015
<rdf:RDF>
  <cc:Work
     rdf:about="">
    <dc:format>image/svg+xml</dc:format>
    <dc:type
       rdf:resource="http://purl.org/dc/dcmitype/StillImage" />
    <dc:title></dc:title>
  </cc:Work>
</rdf:RDF>
</metadata>
  <g
     transform="translate(0.000000,498.240000) scale(0.048000,-0.048000)"
     fill="#000000"
     stroke="none"
     id="g1223">
    <path
       style="fill:#000000;stroke:none;stroke-width:0.064"
       d="M 0 0 L 0 332.16016 L 0 664.32031 L 332.16016 664.32031 L 664.32031 664.32031 L 664.32031 332.16016 L 664.32031 0 L 332.16016 0 L 0 0 z M 375.03906 14.847656 C 376.25506 14.783656 382.33647 15.039828 388.48047 15.423828 C 398.52847 16.063828 404.73655 16.128141 410.56055 15.744141 C 411.58455 15.680141 413.24703 15.999266 414.20703 16.447266 C 415.61503 17.151266 420.09636 17.280938 437.56836 16.960938 C 470.27236 16.384929 473.66377 16.384797 485.75977 17.216797 C 491.90377 17.664797 515.26361 18.240547 537.59961 18.560547 C 559.93561 18.816547 586.04753 19.456297 595.51953 19.904297 C 605.05553 20.352297 618.75283 20.608922 626.04883 20.544922 L 639.23242 20.351562 L 639.93555 22.783203 C 640.76755 26.047203 641.91992 45.248312 641.91992 56.320312 C 641.91992 61.696321 642.24041 66.047844 642.81641 67.839844 C 643.26441 69.439844 643.52021 71.552625 643.32812 72.640625 C 642.88012 74.880625 642.88058 75.391922 643.39258 89.919922 C 643.77658 101.24792 644.80022 110.78358 645.82422 112.76758 C 646.78422 114.55958 647.74431 132.92729 648.32031 159.35938 C 648.64031 175.67938 649.02361 184.19192 649.59961 185.91992 C 650.30361 188.22392 650.17575 196.28712 649.34375 200.70312 C 649.08775 201.98321 648.00045 247.03914 648.06445 253.11914 C 648.06445 254.84714 648.19231 260.60792 648.32031 265.91992 C 648.64031 281.08792 647.7447 307.0087 646.7207 310.7207 C 646.0167 313.1527 645.75931 319.16706 645.69531 335.03906 C 645.63131 346.68706 645.37664 356.67205 645.05664 357.24805 C 644.09664 359.10405 640.32058 359.74411 635.39258 358.91211 C 632.06458 358.33611 629.63203 358.33611 624.83203 358.91211 C 621.37603 359.36011 616.57608 359.68014 614.08008 359.74414 C 611.64808 359.74414 607.74345 359.99986 605.43945 360.25586 C 588.67145 362.43186 584.63984 363.07202 579.83984 364.41602 C 576.83184 365.31202 572.92827 366.14394 571.07227 366.33594 C 569.28027 366.59194 566.14325 367.36045 564.03125 368.06445 L 560.32031 369.4082 L 539.51953 369.59961 C 524.60753 369.72761 518.20878 370.04705 516.80078 370.62305 C 514.11278 371.71105 491.96828 371.45578 487.48828 370.17578 C 485.63228 369.66378 481.7287 368.83231 478.7207 368.32031 C 475.7127 367.80831 471.87208 366.97684 470.08008 366.46484 C 468.35208 365.95284 465.6 365.37559 464 365.18359 C 456.576 364.15959 452.47961 362.75141 449.59961 360.19141 C 448.06361 358.84741 445.12072 357.12047 443.13672 356.48047 C 441.08872 355.77647 438.14492 354.36775 436.54492 353.34375 C 434.94492 352.31975 430.59286 350.01511 426.88086 348.28711 C 423.16886 346.55911 418.43231 343.87194 416.32031 342.33594 C 414.20831 340.73594 409.47177 337.47106 405.75977 335.03906 C 397.63177 329.66306 389.75947 321.98353 385.85547 315.51953 C 384.25547 312.89553 381.12086 307.712 378.88086 304 C 376.57686 300.288 371.77691 293.12 368.12891 288 C 364.48091 282.88 360.44842 276.67223 359.23242 274.24023 C 356.35242 268.48023 347.64745 256.00071 341.43945 248.64062 C 338.75145 245.44062 335.55148 241.08766 334.27148 238.84766 C 333.05548 236.60766 330.94406 233.47259 329.66406 231.80859 C 328.32006 230.14459 324.41694 224.89616 320.96094 220.16016 C 312.44894 208.57616 301.43927 195.9047 288.44727 182.7207 C 267.45527 161.4727 259.83984 152.51278 259.83984 148.80078 C 259.83984 145.66478 264.38325 139.26434 268.03125 137.15234 C 272.76725 134.46434 282.8807 127.42416 286.7207 124.16016 C 288.6407 122.56016 291.96808 119.87148 294.08008 118.27148 C 316.48008 101.05548 342.52886 62.912938 346.88086 40.960938 C 347.58486 37.312929 348.92777 31.999141 349.75977 29.119141 C 350.65577 26.303141 351.35938 23.039172 351.35938 21.951172 C 351.35938 18.943172 351.93547 17.919922 353.85547 17.919922 C 354.75147 17.855922 356.67208 17.408484 358.08008 16.896484 C 360.32008 16.000484 367.87106 15.103656 375.03906 14.847656 z M 263.49609 15.037109 C 267.4604 15.02799 271.34117 15.029219 275.05273 15.041016 C 292.86823 15.097641 306.79953 15.4 307.51953 16 C 308.15953 16.512 309.63211 19.072812 310.91211 21.632812 L 313.15234 26.367188 L 312.70312 30.912109 C 311.99912 38.784109 306.43148 49.408679 294.27148 66.304688 C 288.83148 73.856688 267.1362 94.4645 257.4082 101.3125 C 245.6322 109.6325 233.98306 116.92736 223.03906 122.94336 C 218.17506 125.63136 207.80771 129.53647 198.01562 132.48047 C 193.08762 133.95247 186.11284 136.12775 182.46484 137.34375 C 175.36084 139.71175 169.60089 141.05531 163.71289 141.69531 C 161.72889 141.95131 158.39956 142.4007 156.35156 142.7207 C 154.30356 143.1047 139.84016 143.35938 124.16016 143.35938 C 87.488124 143.3593 77.951516 142.40023 71.103516 138.24023 C 69.503516 137.21623 65.408078 135.36008 62.080078 134.08008 C 58.752078 132.80008 55.743375 131.51967 55.359375 131.26367 C 55.039375 130.94367 51.968625 129.60031 48.640625 128.32031 C 42.240625 125.76031 37.440047 122.75275 29.248047 115.96875 C 22.016047 110.01675 22.207922 110.78314 25.919922 101.11914 C 27.071922 98.111149 28.224469 94.143109 28.480469 92.287109 C 28.736469 90.495109 29.375172 88.384141 29.951172 87.744141 L 31.039062 86.464844 L 45.759766 85.888672 C 81.663766 84.352672 127.61614 85.82375 151.74414 89.34375 C 163.71214 91.07175 171.90377 79.551641 173.75977 58.431641 C 174.52777 50.111641 172.03261 45.695609 164.22461 41.599609 L 160.44727 39.679688 L 155.58398 40.064453 C 149.69598 40.640453 76.86375 40.703859 41.34375 40.255859 L 15.744141 39.871094 L 14.976562 38.65625 C 14.400562 37.82425 14.336703 36.480234 14.720703 34.240234 C 15.040703 32.448234 15.296875 29.823109 15.296875 28.287109 C 15.360875 25.023109 11.52 25.472797 40 25.216797 C 67.648 24.960797 94.783531 23.999071 99.519531 23.039062 C 101.31153 22.719062 108.22486 22.144219 114.88086 21.824219 C 121.60086 21.440219 132.86475 20.864469 139.96875 20.480469 C 147.13675 20.096469 153.1522 19.90325 153.4082 20.03125 C 153.8562 20.28725 162.88031 19.711922 184.32031 17.919922 C 188.03231 17.599922 193.66478 17.024172 196.80078 16.576172 C 203.87078 15.666172 235.74595 15.100944 263.49609 15.037109 z M 24.128906 167.23242 C 29.952906 167.23242 32.831328 167.48891 34.111328 168.12891 C 35.071328 168.57691 37.951719 169.15175 40.511719 169.34375 C 43.007719 169.53575 47.552547 169.92069 50.560547 170.30469 C 53.568547 170.62469 59.904625 171.19953 64.640625 171.51953 C 72.896625 172.09553 81.53568 172.99117 87.679688 173.95117 C 96.639688 175.35917 87.615672 185.40784 75.263672 187.83984 C 72.767672 188.28784 69.696469 189.12081 68.480469 189.63281 C 67.264469 190.14481 64.959375 190.78306 63.359375 191.03906 C 61.759375 191.29506 57.151141 192.44761 53.119141 193.59961 C 45.951141 195.58361 43.072391 196.22478 38.400391 196.80078 C 37.184391 196.92878 31.744688 197.63239 26.304688 198.40039 C 20.92868 199.16839 16.255547 199.55242 15.935547 199.23242 C 15.295547 198.59242 14.848281 171.13648 15.488281 168.89648 L 15.935547 167.29688 L 24.128906 167.23242 z M 154.21289 183.69141 C 155.72227 183.68616 157.19284 183.87186 158.46484 184.25586 C 159.48884 184.57586 162.36878 185.15161 164.80078 185.59961 C 167.29678 186.04761 170.23908 186.75122 171.45508 187.19922 L 173.56836 187.9043 L 170.17578 191.61523 C 168.12778 193.85523 165.63184 195.83942 163.83984 196.60742 C 162.23984 197.31142 159.68008 198.65569 158.08008 199.67969 C 156.48008 200.63969 151.04083 202.81647 146.04883 204.48047 C 138.75283 206.91247 136.25569 208.06431 134.01562 209.98438 C 130.81562 212.73638 130.11177 212.7362 125.75977 209.4082 C 121.08777 205.8882 118.78431 201.21594 120.32031 198.33594 C 121.02431 197.05594 132.35125 191.36002 140.03125 188.41602 C 142.27125 187.52002 145.47227 186.1753 147.07227 185.2793 C 149.07227 184.2393 151.69727 183.70016 154.21289 183.69141 z M 235.11914 210.79297 C 239.85514 210.76897 243.42314 211.1997 245.11914 212.0957 C 259.77514 219.9677 275.13534 233.08783 286.52734 247.42383 C 293.18334 255.80783 300.3527 266.75231 302.7207 272.32031 C 304.7687 276.92831 307.58439 283.58364 310.40039 290.43164 C 311.80839 293.69564 314.30475 298.30382 315.96875 300.67188 C 317.63275 303.03988 320.19161 306.75173 321.59961 308.92773 C 328.44761 319.48773 333.63228 325.95127 343.48828 336.44727 C 347.58428 340.73527 351.36 345.08733 352 346.11133 C 353.536 348.67133 371.13692 366.91228 372.54492 367.48828 C 373.18492 367.74428 375.74469 369.53508 378.30469 371.45508 C 385.02469 376.57508 387.83977 377.85602 397.75977 380.41602 C 402.68777 381.69602 408.51195 383.61662 410.75195 384.64062 C 417.08795 387.58468 425.408 390.72017 432 392.57617 C 435.328 393.53617 440.12855 395.26492 442.56055 396.54492 C 445.05655 397.76092 449.91945 399.8728 453.43945 401.2168 C 456.95945 402.5608 462.46361 404.67117 465.59961 405.95117 C 472.31961 408.57517 478.27252 409.7913 481.72852 409.2793 C 483.64852 408.9593 485.50486 409.40798 490.88086 411.58398 C 496.38486 413.82398 498.36777 414.33639 501.75977 414.40039 C 508.99177 414.40039 519.23153 413.37661 523.51953 412.22461 L 527.67969 411.07227 L 527.67969 408.25586 L 527.67969 405.50391 L 529.91992 405.05664 C 531.13592 404.80064 534.78392 404.22384 537.91992 403.83984 C 546.43192 402.81584 554.87922 401.28088 563.19922 399.29688 C 565.88722 398.65682 572.0313 397.95177 577.2793 397.75977 C 586.9433 397.31177 619.07202 394.68716 628.41602 393.53516 C 631.48802 393.15116 634.88002 392.32073 636.41602 391.55273 C 639.48802 389.95273 645.82397 389.56811 647.16797 390.91211 C 648.44797 392.19211 647.99934 404.9918 646.52734 406.5918 L 645.50391 407.74414 L 634.88086 407.42383 C 628.86486 407.23183 623.36008 407.29569 622.08008 407.67969 C 620.86408 407.99969 615.55223 408.57694 610.24023 408.96094 C 599.80823 409.66494 592.12818 410.49658 587.32812 411.39258 C 585.66412 411.71258 584.128 411.96725 584 412.03125 C 583.808 412.03125 582.14311 412.41678 580.28711 412.80078 C 578.49511 413.18478 573.37694 413.69562 568.96094 414.01562 C 563.07294 414.39968 559.03961 415.04062 553.59961 416.64062 C 549.56761 417.72868 544.6407 419.13689 542.7207 419.71289 C 540.8007 420.22489 537.59969 421.50484 535.67969 422.46484 C 533.75969 423.36084 531.13592 424.44803 529.91992 424.83203 C 528.70392 425.21603 524.35231 427.00728 520.32031 428.86328 C 509.63231 433.66328 504.6397 434.81575 500.0957 433.34375 C 499.0717 432.95975 495.35984 432.57677 491.83984 432.38477 C 488.31984 432.19277 482.55906 431.74383 479.03906 431.42383 C 475.51906 431.03983 465.85561 430.59239 457.59961 430.40039 C 449.34361 430.20839 440.57653 429.95177 438.14453 429.75977 C 434.62453 429.63177 432.7685 429.88752 429.3125 431.10352 C 423.3605 433.27952 414.20868 433.40783 408.64062 431.42383 C 406.33662 430.59183 403.32894 430.08008 400.96094 430.08008 C 398.84894 430.08008 392.89689 429.7605 387.71289 429.3125 L 378.36719 428.60742 L 374.91211 430.27148 C 369.79211 432.76748 369.66305 433.21532 370.62305 447.35938 C 371.00705 453.88738 371.7117 459.5837 372.0957 460.0957 C 372.7997 460.9917 374.65569 467.39262 375.67969 472.64062 C 376.31969 475.77668 377.7927 479.10494 382.7207 488.96094 C 384.0647 491.58494 385.47192 494.91231 385.91992 496.32031 C 386.36792 497.72831 386.94322 499.13553 387.19922 499.51953 C 387.51922 499.83953 388.9918 503.61584 390.5918 507.83984 C 392.1918 512.06384 394.94382 518.52823 396.67188 522.24023 C 398.39988 525.95223 400.32094 530.56047 400.96094 532.48047 C 401.60094 534.40047 403.64791 539.0087 405.50391 542.7207 C 409.98391 551.4247 409.9205 554.68786 405.3125 552.25586 C 403.0725 551.03986 395.20034 541.95133 393.15234 538.11133 C 389.82434 532.03133 382.40027 532.79998 379.07227 539.58398 C 377.60027 542.46398 376.06462 554.43239 376.64062 558.40039 C 376.76868 559.42439 377.0248 562.23942 377.2168 564.60742 C 377.7928 570.94342 377.59944 570.68823 393.02344 586.24023 C 400.89544 594.17623 408.76855 602.36847 410.56055 604.48047 C 412.28855 606.59247 416.38398 611.32706 419.58398 615.03906 C 422.78398 618.75106 426.17627 622.97527 427.07227 624.44727 C 428.09627 626.04727 430.40094 628.16067 432.96094 629.88867 C 437.56894 632.83267 441.59961 638.33666 441.59961 641.47266 C 441.59961 643.64866 438.20806 644.80016 433.66406 644.16016 C 426.30406 643.13616 415.23255 643.32782 410.56055 644.67188 C 405.88855 645.95188 403.58431 645.95247 392.32031 644.48047 C 389.69631 644.16047 385.47256 643.90384 382.97656 643.83984 L 378.49609 643.83984 L 376.38477 641.66406 C 374.33677 639.55206 372.28886 633.47161 370.88086 625.59961 C 370.62486 624.19161 369.72803 620.60761 368.83203 617.59961 C 367.36003 612.47961 366.84745 609.28078 365.43945 596.80078 C 364.60745 588.92878 363.58486 583.03977 362.88086 581.75977 C 362.49686 581.05577 361.7913 578.11242 361.2793 575.23242 C 359.9993 568.12842 360.12791 568.64067 357.50391 557.88867 C 352.12791 536.12867 352.25503 529.47291 358.20703 520.12891 C 364.41503 510.40091 367.9992 500.80034 366.7832 497.15234 C 366.3992 495.93634 365.82391 492.3528 365.50391 489.2168 C 365.24791 486.0808 364.67261 482.81683 364.22461 482.04883 C 360.51261 475.13683 356.3517 463.36018 356.0957 459.32812 C 356.0317 456.96012 355.51981 454.20805 355.00781 453.24805 C 354.49581 452.28805 353.66389 450.62361 353.08789 449.59961 C 349.75989 443.13561 347.64722 438.46447 347.19922 436.48047 C 345.66322 428.86447 339.32855 423.87138 330.56055 423.35938 C 317.88855 422.65532 307.07141 421.56878 304.19141 420.80078 C 302.39941 420.28878 300.09627 419.83984 299.07227 419.83984 C 295.80827 419.83984 294.97548 418.62464 294.27148 413.05664 C 293.95148 410.30464 293.5045 406.91236 293.3125 405.56836 C 292.9285 402.56036 293.69666 401.59927 297.47266 400.44727 C 299.13666 399.93527 302.91147 398.46359 305.85547 397.18359 C 309.18347 395.77559 313.1517 394.62423 316.0957 394.24023 C 318.7837 393.92023 322.36725 393.15217 324.03125 392.57617 C 326.01525 391.93617 328.31964 391.61659 330.43164 391.80859 C 333.82364 392.12859 334.20705 392.31941 346.62305 400.19141 C 349.24705 401.85541 353.47275 404.28881 355.96875 405.63281 L 360.57617 408 L 372.86328 408 L 385.15234 408 L 388.54492 405.63281 C 390.46492 404.35281 392.76852 402.94409 393.72852 402.49609 C 398.33652 400.44809 394.75247 394.1768 388.48047 393.2168 C 380.09647 391.8728 353.15177 371.71186 333.75977 352.25586 C 326.71977 345.15186 320.25628 339.19936 319.48828 338.94336 C 318.72028 338.68736 316.79922 336.7687 315.19922 334.7207 C 313.59922 332.6087 311.87183 330.68764 311.42383 330.43164 C 310.91183 330.17564 308.86441 327.48847 306.81641 324.48047 C 304.83241 321.47247 302.20864 317.88847 301.05664 316.48047 C 294.65664 308.80047 292.92705 306.55938 290.62305 303.35938 C 285.82305 296.51132 268.4807 279.68047 254.7207 268.48047 C 251.7127 266.04847 247.29528 262.20725 244.86328 260.03125 C 235.32728 251.26325 226.49556 245.56706 212.35156 239.03906 C 202.55956 234.49506 201.08745 233.47216 197.43945 228.16016 L 195.13672 224.76758 L 196.0957 222.91211 C 198.2717 218.56011 208.57533 213.56861 218.11133 212.22461 C 224.47933 211.29661 230.38314 210.81697 235.11914 210.79297 z M 61.503906 233.71289 C 68.303906 233.69689 74.912953 233.88869 77.376953 234.30469 C 84.544953 235.39269 95.360715 237.43906 102.7207 239.03906 C 106.6247 239.87106 111.23294 240.76744 112.96094 241.02344 C 114.75294 241.27944 116.48078 241.53606 116.80078 241.66406 C 124.99278 243.58406 131.6487 245.11977 134.7207 245.75977 C 140.5447 246.97577 148.99231 249.21692 160.32031 252.54492 C 165.95231 254.20892 172.4167 256.06312 174.7207 256.70312 C 193.2807 261.88717 213.18466 272.12736 225.47266 282.94336 C 228.09666 285.18336 232.7683 289.21584 235.9043 291.83984 C 245.5043 299.90384 256.57652 311.48886 265.72852 322.88086 C 270.46452 328.83286 275.90377 335.61592 277.75977 337.91992 C 279.61577 340.22392 283.07191 344.96047 285.50391 348.48047 C 287.87191 352.00047 291.13633 356.6087 292.73633 358.7207 C 297.40833 364.8007 296.38366 366.08008 286.84766 366.08008 C 278.46366 366.08008 273.53608 367.87166 262.08008 374.84766 C 259.58408 376.31966 256.70445 382.07936 256.06445 386.94336 C 255.74445 388.99136 254.91253 392.70322 254.14453 395.19922 C 252.73653 400.06322 251.84033 411.90394 252.73633 414.33594 C 253.05633 415.10394 253.63162 419.77512 254.01562 424.70312 C 255.03967 437.05517 255.42369 437.8247 263.67969 446.7207 C 266.55969 449.7927 280.12716 453.69653 289.53516 454.14453 C 303.42316 454.78453 303.74344 454.97531 305.02344 461.69531 C 305.53544 464.19131 306.62308 468.8 307.45508 472 C 308.35108 475.136 309.76025 480.76847 310.65625 484.48047 C 315.20025 503.61647 315.20042 503.68055 311.23242 506.56055 C 309.76042 507.58455 307.19961 509.5047 305.59961 510.7207 C 298.30361 516.2247 298.88039 515.96844 294.40039 515.64844 C 289.66439 515.26444 273.72761 513.60067 265.59961 512.64062 C 259.51961 511.87262 240.51255 510.14377 234.56055 509.75977 C 224.00055 509.05577 220.5447 508.73539 214.7207 507.77539 C 213.6967 507.64739 210.23906 507.20086 207.03906 506.88086 C 203.90306 506.56086 200.25656 506.11147 198.97656 505.85547 C 197.69656 505.66347 194.94448 505.4073 192.89648 505.2793 C 190.78448 505.0873 188.41553 504.83117 187.51953 504.70312 C 186.62353 504.51112 184.32039 504.192 182.40039 504 C 166.78439 502.336 146.43291 498.68814 136.12891 495.74414 C 109.24891 488.00014 102.72003 485.24739 88.832031 475.77539 C 86.144031 473.91939 81.984734 471.35967 79.552734 470.01562 C 77.184734 468.67162 73.536281 466.04741 71.488281 464.19141 C 65.920281 459.13541 63.616844 460.4805 62.464844 469.3125 C 62.208844 470.9765 61.759453 473.08833 61.439453 473.98438 C 59.967453 477.76038 60.543125 479.48812 64.703125 483.32812 L 68.671875 486.97656 L 68.224609 488.76758 C 67.968609 489.72758 67.519219 494.71984 67.199219 499.83984 C 66.559219 509.69584 65.023547 520.51258 63.935547 523.39258 C 63.551547 524.35258 63.104567 527.99953 62.976562 531.51953 L 62.65625 537.91992 L 64.767578 541.43945 C 67.199578 545.47145 73.407547 550.52806 79.935547 553.66406 C 82.303547 554.75206 86.463297 556.79903 89.279297 558.20703 C 92.095297 559.61503 96.128234 561.27992 98.240234 561.91992 C 100.35223 562.55992 105.9847 564.22481 110.7207 565.63281 C 115.4567 567.04081 122.11145 568.83161 125.43945 569.59961 C 128.76745 570.36761 135.42416 571.96714 140.16016 573.11914 C 144.89616 574.27114 151.23223 575.42323 154.24023 575.61523 C 157.24823 575.87123 161.27922 576.32062 163.19922 576.64062 C 171.58322 578.04867 177.53547 578.62486 185.85547 578.88086 C 193.98347 579.13686 196.86342 579.45559 204.60742 581.18359 C 206.07942 581.50359 209.53661 581.75977 212.22461 581.75977 C 216.70461 581.75977 221.76031 582.40077 232.32031 584.38477 C 234.24031 584.76877 239.23212 585.47192 243.32812 585.91992 C 247.48817 586.36792 251.07258 586.94472 251.39258 587.13672 C 252.09658 587.52072 268.80055 588.99114 274.56055 589.11914 C 291.64855 589.50314 313.98359 591.80866 317.18359 593.47266 C 322.23959 596.09666 331.6485 609.47231 333.3125 616.32031 C 336.5125 629.44031 337.66341 639.23112 336.19141 640.70312 C 335.80741 641.08717 329.98472 641.59992 323.13672 641.91992 C 316.09672 642.23992 309.88878 642.81567 308.80078 643.26367 C 306.75278 644.09567 290.68878 645.12084 260.80078 646.46484 L 242.88086 647.23242 L 217.91992 645.75977 C 203.45592 644.92777 190.71953 644.48033 187.51953 644.73633 C 184.31953 644.99233 175.16759 644.6083 165.18359 643.9043 L 148.28711 642.6875 L 133.82422 644.60742 C 121.34422 646.20742 118.9117 646.39931 116.0957 645.69531 C 114.3037 645.31131 111.67994 645.12095 110.33594 645.37695 C 101.88794 646.72095 89.600391 647.55106 86.400391 647.03906 C 83.328391 646.52706 63.551375 645.37678 47.359375 644.80078 C 38.911375 644.48078 26.432516 643.39136 25.728516 642.94336 C 23.872516 641.79136 23.616656 607.10467 25.472656 600.64062 C 26.176656 598.08062 26.047578 595.71239 24.767578 590.40039 C 21.503578 576.89639 20.415312 565.952 21.695312 560 C 22.143317 558.08 22.591203 555.52069 22.783203 554.30469 C 22.911203 553.15269 23.231375 551.93523 23.359375 551.61523 C 23.551375 551.29523 23.872453 549.69525 24.064453 548.03125 C 24.192453 546.36725 24.511125 544.51155 24.703125 543.93555 C 26.303125 538.55955 25.664734 524.67169 23.552734 519.67969 C 22.208734 516.60769 21.503703 494.65642 20.095703 407.23242 C 19.967703 396.54442 19.519672 386.49603 19.263672 384.83203 C 18.879672 382.91203 18.880125 380.41623 19.328125 378.24023 C 19.776125 375.87223 19.711672 367.9353 19.263672 353.2793 C 18.239672 322.4953 17.919609 311.0393 17.599609 297.2793 C 17.471609 290.5593 17.152938 282.11239 16.960938 278.40039 C 16.576933 272.70439 16.704516 271.16816 17.728516 268.16016 C 18.432516 266.17616 18.944406 264.06338 18.816406 263.35938 C 17.856406 256.89533 17.215469 239.80738 17.855469 239.35938 C 19.199469 238.59133 35.584469 235.45519 44.480469 234.36719 C 47.712469 233.95119 54.703906 233.72889 61.503906 233.71289 z M 411.46484 462.85156 C 411.94484 462.86044 412.49514 462.90456 413.11914 462.97656 C 414.91114 463.16856 419.64769 463.616 423.67969 464 C 427.71169 464.384 432.19161 464.95975 433.59961 465.34375 C 435.00761 465.66375 440.38481 466.11119 445.63281 466.36719 L 455.03906 466.75195 L 455.35938 468.0957 C 455.48738 468.8637 455.744 470.46369 456 471.67969 C 456.192 472.89569 457.34305 476.35136 458.62305 479.35938 C 459.90305 482.36738 461.44008 486.27245 462.08008 488.06445 C 464.32008 494.46445 470.97669 507.26369 474.30469 511.67969 C 476.16069 514.11169 478.97572 517.888 480.51172 520 C 494.71972 539.072 518.07914 553.79208 541.11914 558.08008 C 542.52714 558.33608 546.8158 559.16755 550.5918 559.93555 C 557.3118 561.27955 578.23906 561.98344 583.03906 561.02344 C 583.93506 560.83144 587.64736 560.384 591.35938 560 C 595.07138 559.616 598.976 559.0407 600 558.7207 C 601.088 558.4007 603.20078 557.95177 604.80078 557.75977 C 609.15278 557.05577 619.84019 552.83216 628.99219 548.16016 C 633.47219 545.85616 638.01506 543.87259 639.03906 543.80859 L 640.96094 543.67969 L 640.76758 546.75195 C 640.63958 549.05595 640.83161 549.88853 641.59961 550.14453 C 642.49561 550.52853 642.62409 551.93516 642.49609 561.53516 C 642.36809 569.15116 642.62322 573.24856 643.19922 574.97656 C 643.71122 576.64056 643.83953 578.62464 643.51953 581.05664 C 643.26353 583.04064 642.81655 586.49678 642.56055 588.80078 C 642.30455 591.10478 641.72775 594.81664 641.34375 597.05664 C 640.19175 603.13664 639.2952 611.84047 638.7832 620.48047 C 638.5912 624.70447 638.14422 628.54464 637.82422 629.05664 C 637.50422 629.56864 637.3125 631.87223 637.3125 634.24023 C 637.4405 639.87223 636.67172 640.96048 632.51172 640.89648 C 616.57572 640.44848 606.59294 640.00028 600.96094 639.48828 C 594.49694 638.78428 566.20784 639.55277 563.83984 640.38477 C 563.32784 640.57677 557.4407 641.15161 550.7207 641.59961 C 544.0647 642.11161 535.10336 642.81522 530.94336 643.19922 C 520.06336 644.22322 519.29648 643.8395 512.89648 634.6875 C 509.18448 629.3755 504.57617 623.55208 496.57617 614.08008 C 494.20817 611.26408 490.75248 607.03988 488.89648 604.67188 C 486.97648 602.30386 483.20077 597.82395 480.38477 594.75195 C 468.67277 581.63195 460.92825 569.27914 446.65625 541.11914 C 434.81625 517.69514 432.12867 512.57664 429.88867 509.05664 C 428.99267 507.58464 427.84014 505.40786 427.32812 504.25586 C 426.81612 503.03986 424.06359 497.91928 421.18359 492.86328 C 418.30359 487.74328 415.36025 481.59952 414.65625 479.10352 C 413.88825 476.60752 412.28872 472.63948 411.13672 470.27148 C 408.22472 464.44748 408.10484 462.78944 411.46484 462.85156 z M 519.04883 468.75977 C 522.04883 468.81577 525.31262 469.28053 528.64062 470.14453 C 530.88065 470.72053 536.51114 473.21689 541.11914 475.71289 C 558.39914 484.99289 564.9273 488.25592 569.2793 489.91992 L 573.75977 491.64844 L 584.96094 492.16016 C 592.44894 492.48016 597.11906 492.99281 599.03906 493.63281 C 600.63906 494.20881 603.83903 494.97535 606.20703 495.35938 L 610.43164 496.12891 L 613.43945 494.7832 C 615.16745 494.0152 618.9438 491.07123 622.5918 487.61523 C 637.5678 473.34323 645.50416 470.27197 644.16016 479.16797 C 643.58416 482.94397 643.58416 493.56736 644.16016 498.94336 C 644.99216 506.36736 642.75216 508.47978 628.16016 514.17578 C 616.44816 518.71978 606.59131 522.87998 605.69531 523.58398 C 604.03131 524.92798 593.34327 528.12747 584.44727 529.85547 C 580.60727 530.62347 572.41665 530.68838 568.64062 529.98438 C 567.23262 529.72835 565.1203 529.79133 563.9043 530.11133 C 558.5283 531.51933 532.79908 524.54352 523.45508 519.10352 C 522.23908 518.39952 520.0638 517.56714 518.5918 517.11914 C 508.6078 514.49514 493.88715 494.33525 488.70312 476.03125 C 486.59112 468.67125 486.71964 468.60808 498.43164 470.08008 L 507.19922 471.16797 L 511.03906 469.82422 C 513.31106 469.05622 516.04883 468.70377 519.04883 468.75977 z M 90.90625 502.45117 C 91.85875 502.4318 93.647891 503.07172 97.087891 504.51172 C 106.17589 508.41572 119.2313 512.57545 137.2793 517.43945 C 139.0713 517.88745 142.6553 518.65506 145.2793 519.03906 C 147.9033 519.48706 152.38322 520.32094 155.19922 520.96094 C 162.75122 522.68894 172.8647 524.22314 182.7207 525.11914 C 184.8327 525.37514 188.47966 525.76053 190.84766 526.14453 C 193.21566 526.46453 196.92842 526.7207 199.23242 526.7207 C 203.58442 526.7207 205.88805 527.74466 205.24805 529.47266 C 204.73605 530.81666 184.76773 536.96094 180.92773 536.96094 C 179.96773 536.96094 176.06311 537.98322 172.28711 539.19922 L 165.37695 541.43945 L 159.61523 540.80078 C 150.71923 539.84078 131.26455 535.29661 122.56055 532.22461 C 119.42455 531.07261 113.92039 529.21645 110.40039 528.06445 C 102.97639 525.56845 89.663125 519.23281 88.703125 517.63281 C 88.127125 516.73681 89.087922 506.04797 89.919922 503.16797 C 90.063922 502.71197 90.33475 502.4628 90.90625 502.45117 z "
       transform="matrix(15.625,0,0,-15.625,0,10380)"
       id="path1203" />
  </g>
</svg>
